<svg width="80" height="34" viewBox="0 0 80 34" fill="none" xmlns="http://www.w3.org/2000/svg">
<g clip-path="url(#clip0_1842_394)">
<path d="M70.936 21.8163L71.2171 21.8877M66.3588 23.1122L66.5496 23.1734M66.5496 23.1734C66.0075 23.4796 65.9473 24.2143 66.5496 24.3163L71.2271 23.0408C71.7189 22.9286 71.8394 21.8469 71.2271 21.8979L66.5496 23.1734ZM62.3438 24.1632L62.6248 24.2347M57.7566 25.4592L57.9473 25.5204M57.9473 25.5204C58.0477 25.5 62.5245 24.2755 62.6248 24.2449C63.2371 24.3571 63.1468 25.1632 62.6248 25.3877L57.9473 26.6632C57.335 26.551 57.4253 25.7449 57.9473 25.5204ZM1.67629 11.5612L1.48557 11.6224C1.35508 11.5816 1.00376 11.4388 1.26474 11.2959M7.60853 19.4898L7.47804 19.5306M7.47804 19.5306C7.45797 19.9286 7.68883 20.3673 8.06022 20.5204L8.28105 20.5816M7.47804 19.5306V17.7347V16.2041M7.62861 16.1632L7.47804 16.2041M7.47804 16.2041C7.43789 15.8877 7.69887 15.4388 8.06022 15.5408M11.0113 20.4081L10.8607 20.449V18.653V17.1224L11.0113 17.0816M16.7227 22.3571L16.4617 22.4286M16.4617 22.4286L14.9561 22.0102C14.7252 21.949 14.5847 21.6326 14.5847 21.3979M16.4617 22.4286C16.6926 22.4694 16.8632 22.2245 16.8331 22.0102V16.0204M21.8519 23.8061L21.7014 23.8469L19.8946 23.3673M25.064 23.7143L25.1945 23.6735C25.1945 23.6122 25.1343 23.5204 25.1343 23.5204L24.813 23.0408C24.7629 22.9183 24.7026 22.7959 24.7026 22.6632V17.7347C24.7026 17.6224 24.7428 17.5 24.813 17.4081L25.1343 17.0816C25.1744 17.0816 25.1945 17.0204 25.1945 16.9694L25.2547 16.7959M24.8532 23.0918L24.7026 23.1326L25.0238 23.6326M25.1744 23.5918L25.0238 23.6326M25.0238 23.6326C25.0238 23.6326 25.0339 23.6837 25.064 23.7041L25.1041 23.8979M25.2246 23.8571L25.0941 23.8979C25.1343 24.1326 25.3049 24.3673 25.5257 24.449M25.8469 24.3571L25.5257 24.449M25.5257 24.449L26.3287 24.6632M24.7026 22.602L24.5521 22.6428M24.5521 22.6428V17.7143M24.5521 22.6428C24.5521 22.8163 24.6023 23 24.7026 23.1428M24.7227 17.653L24.5521 17.7143M24.5521 17.7143C24.5521 17.5612 24.6023 17.3877 24.7026 17.2755L25.0238 16.9694M26.66 24.5816L26.3388 24.653M25.0439 17.1939L24.7026 17.2653M25.2146 16.9081L25.0238 16.9694M25.0238 16.9694C25.0339 16.949 25.064 16.9081 25.064 16.9081M25.2246 16.8571L25.054 16.9183M25.2848 16.6837L25.0941 16.7449C25.1242 16.5306 25.3149 16.3775 25.5257 16.4183M34.2785 26.6428L34.1882 26.6632M34.1882 26.6632C34.2685 26.7143 34.3187 26.5714 34.3388 26.5102V20.6632L33.5157 20.4388C33.4956 20.4388 33.4755 20.4796 33.4755 20.4796M34.1882 26.6632C34.0477 26.6224 28.8381 25.2143 28.8381 25.2143M41.4354 28.5918L41.325 28.6122M41.325 28.6122C41.4153 28.6632 41.4956 28.5408 41.4755 28.4592V22.6122M41.325 28.6122L35.995 27.1632M70.936 23.1326L71.2171 23.2041M66.1882 24.3775L66.5496 24.4898M66.5496 24.4898L71.2271 23.2143C71.7992 23.0204 72.0402 21.7959 71.2271 21.7449L66.5496 23.0204C65.9774 23.2143 65.7365 24.4388 66.5496 24.4898ZM62.3438 25.4592L62.6248 25.5306M57.5859 26.7245L57.9473 26.8163M57.9473 26.8163L62.6248 25.5408C63.207 25.3877 63.4379 24.1326 62.6248 24.0918L57.9473 25.3673C57.3551 25.5714 57.1443 26.7857 57.9473 26.8163ZM44.5169 32.4286L44.5872 32.449M1.71644 7.69386V7.65304M1.71644 7.65304C1.59598 7.61223 1.37516 7.62243 1.24467 7.65304M1.71644 7.65304C5.06901 6.93876 32.9134 1.02039 36.5772 0.244879M1.71644 7.65304C7.73902 9.23467 39.1368 17.5 43.4228 18.6326M44.5169 20.5408L44.5872 20.5612M44.5872 20.5612V22.9694M44.5872 20.5612C47.9197 19.7041 75.8043 12.5714 79.4479 11.6428M44.5872 20.5612C44.5872 19.6939 44.0251 18.7755 43.4228 18.6326M43.4228 18.6632V18.6224M8.14053 18.1735L8.18068 18.1939M8.18068 18.1939C8.12045 18.2041 8.12045 18.1224 8.12045 18.0816M8.18068 18.1939L8.27102 18.1735M8.18068 18.1939L8.27102 18.153M8.66248 19.6837H8.68256M8.68256 19.6837L8.74279 19.6632L8.65245 19.6837M8.68256 19.6837H8.64241M8.1606 20.1735L8.72271 20.0204M8.1606 20.1735L8.38143 20.2347M8.1606 20.1735C7.89962 20.1122 7.80928 19.7959 7.78921 19.5612M8.1606 20.1735L8.10038 20.2653C7.82936 20.1632 7.68883 19.8367 7.66876 19.5612M7.77917 19.5612L8.27102 19.4286M7.77917 19.5612V17.7653M7.77917 19.5612H7.66876M8.38143 20.2347L8.60226 20.1735M8.38143 20.2347C8.6123 20.3163 8.76286 20.0408 8.74279 19.8367V19.8571M8.57215 16.0306L7.77917 16.2449H7.66876M12.8783 14.3163L13.591 14.1122M13.591 14.1122H13.4203L12.9184 14.2551M13.591 14.1122H13.6311M11.1619 14.8265L11.6637 14.6632M8.34128 15.6224L8.10038 15.6939C7.78921 15.6224 7.60853 15.949 7.60853 16.2245V17.7551L7.66876 17.7755V16.2449M8.88331 19.8469L8.79297 19.8673C8.81305 20.1428 8.63237 20.4694 8.3212 20.3979M8.49184 15.7041L8.3212 15.7449M11.6136 14.8163L11.202 14.9388M13.5709 14.2449L12.8181 14.449M8.89335 16.5306L8.80301 16.551C8.81305 16.2347 8.64241 15.8469 8.33124 15.7449L8.11041 15.6837M13.0389 15.3979L12.7378 15.4694M11.5232 19.0918L11.5634 19.1122L11.6738 19.0918M12.0652 20.5918V20.6122M12.0652 20.6122L12.1355 20.5918M12.0652 20.6122H12.0452M11.5332 21.0918L12.0954 20.9388M11.5332 21.0918C11.2923 21.0204 11.1619 20.7245 11.1719 20.4796M11.5332 21.0918L11.473 21.1837M11.1819 20.4796L11.6738 20.3469M11.1819 20.4796V18.7041M11.1819 20.4796H11.0715M11.7641 21.1735L12.005 21.102M11.7641 21.1735L11.5433 21.102M11.7641 21.1735L11.7039 21.2653C11.9749 21.2959 12.1255 21.0306 12.1355 20.7857M11.7641 21.1735C11.995 21.2245 12.1556 20.9694 12.1355 20.7551M11.9548 16.949L11.1819 17.1632H11.0715M11.744 16.5408L11.4831 16.602L11.7039 16.6632M12.1957 20.8061L12.266 20.7653M12.1957 20.8061V17.4694M12.1957 20.8061C12.1957 21.0714 12.005 21.4081 11.7039 21.3367L11.4831 21.2653C11.1819 21.1632 11.0013 20.7857 11.0113 20.4796V18.6837V17.1326M11.8745 16.6224L11.7039 16.6632M11.7039 16.6632C11.995 16.7959 12.1857 17.153 12.1957 17.4694M12.266 17.449L12.1957 17.4694M15.7992 16.4898L15.5383 16.551M25.6964 21.051V21.0306M25.6964 21.0306C25.6863 20.9796 25.7466 20.949 25.7867 20.9388M25.6964 21.0306C25.7064 21.0714 25.6261 21.0714 25.6261 21.0714L25.325 21.1122C25.2647 21.102 25.2246 21.1734 25.2346 21.2245M25.2246 21.8367L25.2647 21.8571C25.2045 21.8571 25.2146 21.7857 25.1945 21.7653V21.1122C25.1945 21.1122 25.2146 21.0204 25.2647 21L26.3689 20.6326M26.4291 22.8061H26.389C26.389 22.8061 26.4191 22.8469 26.4291 22.8673C26.4291 22.8673 26.4693 22.8877 26.4893 22.8877M26.4291 22.8061C26.4291 22.8061 26.4291 22.8469 26.4492 22.8673C26.4492 22.8673 26.4492 22.8877 26.4693 22.8877L26.5797 22.9286M26.4291 22.8061L26.389 22.6735M26.4291 22.8061L26.5395 22.8265M26.389 22.6735H26.3689M26.389 22.6735V17.8061M26.3588 23.9388V23.9796M26.3588 23.9388C26.2685 23.9796 26.4893 23.9796 26.4893 23.9796L26.6801 23.9388M26.3588 23.9388L26.6801 23.8673M26.6801 23.2857L25.4454 23.6326M26.3789 22.5L25.0238 22.8775M25.345 23.3673L26.6801 23M25.345 23.3673C25.345 23.4592 25.4454 23.5306 25.4354 23.6326M25.345 23.3673L25.1744 23.4796M25.345 23.3673L25.0238 22.8877M26.5797 22.9286C26.5897 22.8877 26.5596 22.8877 26.5596 22.8877C26.5295 22.8979 26.5395 22.8265 26.5395 22.8265M26.5797 22.9286H26.5997L26.67 22.949M26.6801 22.8877C26.6801 22.8877 26.6399 22.9286 26.6098 22.9286M26.6801 23.5L25.4755 23.8265L25.4354 23.6326M25.2246 19.2449H25.2647C25.2045 19.2551 25.2246 19.2041 25.1945 19.1735M26.6801 23.7653L25.6662 24.051L26.4893 24.2653M26.3689 22.2959L24.9435 22.6735V17.7245M26.4893 24.2653L26.5997 24.2449M26.4893 24.2653C26.6098 24.3163 26.66 24.153 26.6801 24.051M26.66 17.2755L24.9536 17.7347M26.3789 22.653C26.3789 22.653 26.399 22.653 26.399 22.6735M26.3789 22.653V22.6735L26.399 22.8061M26.3789 22.653V17.7857V17.7653C26.3789 17.7653 26.3789 17.7959 26.399 17.8061M26.4291 17.6939C26.4291 17.6939 26.389 17.6632 26.389 17.6326L26.3689 17.7653M26.4291 17.6939L26.389 17.8061M26.4291 17.6939L26.5395 17.7143M26.4291 17.6939C26.4291 17.6735 26.4492 17.6224 26.4492 17.6224C26.4391 17.5816 26.4693 17.5816 26.4693 17.5816M26.4693 17.5816H26.4492C26.4492 17.5816 26.4191 17.5816 26.409 17.602L26.389 17.6428M26.4693 17.5816L26.6801 17.449M26.4693 17.5816L26.5797 17.602M26.5395 22.8265C26.5395 22.8265 26.6299 22.8367 26.67 22.8469M26.5395 22.8265V17.7143M26.6801 17.5408L26.5897 17.602M26.6801 17.7347C26.6801 17.7347 26.5897 17.7347 26.5496 17.7143M26.5797 17.602C26.5797 17.602 26.6499 17.6428 26.67 17.6735M26.5797 17.602C26.5797 17.602 26.5496 17.6326 26.5596 17.6632M26.6399 17.1224L25.0238 17.5612L25.345 17.2551M26.409 16.949L25.335 17.2551M26.0878 16.8673L25.4354 17.0408C25.4354 17.1224 25.3651 17.1735 25.345 17.2551M25.8068 16.7959L25.4655 16.8673M25.8068 16.4898L25.5659 16.5612M26.8005 24.1122L26.7302 24.1326C26.7102 24.3265 26.6198 24.551 26.389 24.5102M26.7905 17.3265L26.7302 17.3469M26.7302 17.3469V24.1224M26.7302 17.3469C26.7001 17.1224 26.6299 16.8571 26.389 16.7959L25.5659 16.5714C25.4153 16.5102 25.2647 16.653 25.2447 16.7959M26.5295 16.7347L26.399 16.7959M21.1393 19.9694H21.1794M20.6675 21.7653L20.7378 21.7857M21.2296 19.5408H21.2497M21.2296 19.5408C21.2698 19.5102 21.1895 19.449 21.1895 19.449M21.2296 19.5408L21.1192 19.8469M21.2497 19.5408C21.2497 19.5 21.2497 19.4183 21.1895 19.4286L20.4567 19.6224M21.2497 19.5408L21.1393 19.8673M20.537 22.7551L21.33 22.5408M20.537 22.7551C20.5169 22.8163 20.5671 22.8877 20.6274 22.9081M20.537 22.7551V22.4898C20.537 22.4592 20.4768 22.4286 20.4768 22.4286H20.4567M20.6675 18.6326L20.7378 18.653M20.7378 18.653L21.3199 18.5M20.7378 18.653C20.6775 18.653 20.6073 18.602 20.6274 18.5408M20.6274 22.9081L21.4304 22.6939M20.6274 22.9081L20.6976 22.9286M20.5571 16.4898H20.537V16.7551M21.9021 23.7041L20.4768 23.3061C20.4868 23.1632 20.5671 23.0306 20.6876 22.9592M21.9222 23.3061L20.6876 22.9592M20.6876 22.9592H20.7077M16.0502 18.5714L16.0903 18.5918M15.5985 20.3877L15.6587 20.4081M16.1606 18.153V18.1735M16.1606 18.153C16.1606 18.1122 16.1506 18.051 16.1004 18.0612M16.1606 18.153L16.0301 18.4796M16.1606 18.1735C16.2008 18.1326 16.1004 18.0612 16.1004 18.0612M16.1606 18.1735L16.0502 18.4796M15.4479 21.3775L16.2509 21.153M15.4479 21.3775C15.478 21.4286 15.478 21.5102 15.5383 21.5306M15.4479 21.3775V21.1122C15.4479 21.0714 15.3877 21.051 15.3877 21.051H15.3676M15.5985 17.2551L15.6587 17.2755M15.5383 21.5306L16.3614 21.3061M15.5383 21.5306L15.6085 21.551M15.468 15.1122H15.4479V15.3775M15.3877 21.9286L16.7629 22.2959M16.8331 21.9081L15.5985 21.5816M20.8883 21L20.6274 21.0714M29.591 21.1122V20.9796M29.591 22.4694V22.1224M29.7315 20.6939L30.0125 20.6224M29.7315 20.6939V21.0204M29.7315 20.6939C29.7315 20.6326 29.7817 20.5408 29.8419 20.5612L30.7854 20.8265M31.0364 19.051L31.207 19.0918M31.0665 19.3163L30.9762 19.2959M31.0665 19.3163C31.0665 19.2245 31.1167 19.153 31.197 19.0918L31.4078 19.0306M31.0665 19.3163V19.6632M29.079 20.8469V19.0306M29.079 20.8469C29.059 20.8469 29.0188 20.8265 29.0188 20.8265M29.079 20.8469V20.9796M29.079 24.9898V24.8367V24.7245V23.4796M36.7378 23.0612V22.9286M36.7378 24.4183V24.0714M37.1694 22.5714L36.8883 22.6428C36.8783 22.5714 36.9285 22.4898 36.9987 22.5102L37.9423 22.7755V21.6632L38.3538 21.7755V21.1632M38.1832 21L38.3538 21.0408M38.1129 21.2449L38.2233 21.2653V21.6122L38.2836 21.5918V21.2653V21.2245V21.153M36.2359 22.7959V20.9796M36.2359 22.7959C36.2158 22.7959 36.1757 22.7755 36.1757 22.7755M36.2359 22.7959V22.9286M36.2359 26.9388V26.7857M71.0063 21.8163H71.0765V21.7959M62.4743 24.1632L62.404 24.1428M3.85445 20.1939L4.3463 20.0612M3.85445 20.1939L5.38017 20.6122M3.85445 20.1939V21.1837M5.38017 20.6122L5.79172 20.5M5.38017 20.6122V21.5816M5.79172 21.4796L5.38017 21.5918L3.85445 21.1939M37.0188 0.132634C36.9084 0.102022 36.6976 0.0918176 36.5872 0.132634L36.2158 0.224471M37.0188 0.132634C41.2748 1.09182 73.0038 8.2857 78.7252 9.58161L78.3538 9.67345C72.6324 8.37753 40.9034 1.18365 36.6474 0.224471M37.0188 0.132634L36.6474 0.224471M79.8996 22.8265C79.9197 23.3571 79.5885 24.0306 79.1468 24.1224M79.7089 20.4796L79.8996 20.5408M79.8996 20.5408V22.8367L79.5282 22.9286M79.8996 20.5408L79.5282 20.6326V22.9286M79.5282 22.9286C79.5383 23.4796 79.2171 24.1428 78.7353 24.2449M36.6474 0.224471C36.527 0.224471 36.276 0.183654 36.1757 0.244879M79.8996 11.5102V13.8061M79.8996 11.5102C79.8896 10.7449 79.458 9.82651 78.7353 9.58161M79.8996 11.5102L79.5282 11.6224M79.8996 13.7959L79.5282 13.9081M79.4479 20.6122L79.5182 20.6326M79.458 13.8979L79.5282 13.9183V11.6224M79.5282 11.6224C79.5282 10.7551 78.9661 9.85712 78.3639 9.67345M0.833123 18.2857L1.67629 18.5M0.291091 18.2245L0.100375 18.2857M0.100375 18.2857L1.67629 18.7041V18.4388L1.48557 18.3979M0.100375 18.2857V20.5816C0.0803001 21.4388 0.642408 22.3469 1.26474 22.5102M4.39649 10.4796L4.89837 10.3367M4.28607 10.7041L4.93852 10.5204M10.7001 13.0408L9.95734 13.2653M1.63613 7.67345C1.52572 7.64284 1.31493 7.63263 1.20452 7.65304L0.833123 7.76529M1.63613 7.67345C5.92221 8.8061 37.33 17.0714 43.3425 18.653M1.63613 7.67345L1.26474 7.76529M3.53325 12.4183C3.4128 12.7041 3.53325 13.0918 3.79423 13.2551M3.53325 12.4183C3.55332 12.3571 4.5872 10.051 4.61731 9.98978L4.24592 10.1122L3.16186 12.5408L3.53325 12.4183ZM5.05897 12.8163C4.93852 13.102 5.05897 13.4898 5.31995 13.653M5.05897 12.8163L6.14304 10.3877M5.05897 12.8163L4.68758 12.9183M4.63739 9.95916L4.61731 9.99998M8.66248 20.4796L8.44166 20.4081L8.07026 20.5204M8.66248 20.4796H8.68256M8.66248 20.4796L8.29109 20.5714M4.68758 12.9183C4.46675 13.3061 4.98871 14.1632 5.34002 13.6122M4.68758 12.9183L5.77164 10.4898C6.14304 9.95916 6.63488 10.7959 6.42409 11.1837M6.84567 14.0408C6.58469 13.8673 6.46424 13.4898 6.58469 13.2041L7.66876 10.7755M6.20326 10.3061L6.18319 10.3469L5.81179 10.4388M8.04015 15.5408C8.04015 15.5408 7.95985 15.6632 7.94981 15.6734M6.58469 13.1734L6.2133 13.2653M8.37139 14.4183C8.10038 14.2755 8 13.8571 8.11041 13.5816L7.73902 13.7041M7.72898 10.7245L7.70891 10.7653L7.33751 10.8571M9.20452 11.1734L8.12045 13.5816M7.73902 13.7041C7.51819 14.0918 8.06023 14.9388 8.39147 14.3775L9.47553 11.949C9.69636 11.5612 9.15433 10.7143 8.82309 11.2755L7.73902 13.7041ZM12.0552 21.3979L11.8344 21.3367L11.463 21.4286C11.0615 21.2959 10.8607 20.8469 10.8607 20.4388M9.90715 14.8061C9.64617 14.6428 9.52572 14.2551 9.64617 13.9694L9.27478 14.0714L10.3588 11.6632M9.24467 11.1224L9.22459 11.1837L8.8532 11.2755M12.0853 21.3979H12.0652L11.6939 21.4898M11.4429 16.449C11.4429 16.449 11.3325 16.5612 11.3325 16.602M10.7302 11.551L9.64617 13.9796M11.1719 14.3673C11.0514 14.653 11.1719 15.0306 11.4329 15.2041M11.1719 14.3673L12.256 11.9388M11.1719 14.3673L10.8005 14.4694M10.7704 11.551L10.7503 11.5918M10.7503 11.5816L10.3789 11.6939M12.256 11.9388L12.276 11.8979M12.256 11.9388L11.8846 12.0408M10.8005 14.4694C10.5897 14.8571 11.0816 15.6939 11.4529 15.1632M10.8005 14.4694L11.8846 12.0408M12.9586 15.5918C12.6976 15.4183 12.5772 15.0204 12.6976 14.7347L12.3262 14.8571C12.1054 15.2449 12.6474 16.0918 12.9787 15.5306L14.0627 13.1224M15.3275 21.9183C15.0966 21.8265 14.936 21.5408 14.9561 21.2857L14.5847 21.3979M11.8846 12.0408C12.256 11.5102 12.7478 12.3469 12.537 12.7347M13.7817 12.3367L12.6976 14.7449M13.7817 12.3367L13.8018 12.2959M13.7817 12.3367L13.4103 12.4388M14.9561 21.2755V15.2857L14.5847 15.3775C14.5445 15.1734 14.7353 14.8979 14.9561 14.9796M14.5847 21.3979V15.3877M16.7528 22.2857L15.3275 21.9081L14.9561 22M13.4103 12.4388L12.3262 14.8673M13.4103 12.4388C13.7616 11.8877 14.2836 12.7449 14.0627 13.1326M15.0364 15C14.9661 15.0612 14.9561 15.1939 14.9661 15.2857M20.0452 22.8877C20.0452 23.0306 20.1154 23.2245 20.266 23.2551M20.0452 22.8877V16.4694M20.0452 22.8877L19.6738 22.9796C19.6738 23.1326 19.744 23.3163 19.8946 23.3571M20.0452 16.4694V16.3571M20.0452 16.4694L19.6738 16.5612C19.6637 16.4286 19.744 16.2857 19.8946 16.3163L21.7014 16.8163M21.9122 23.7041L20.276 23.2449L19.9046 23.3571M26.6801 24.5714L26.5094 24.5102L26.7503 24.4388M25.5659 16.4388C25.5659 16.4388 25.5056 16.5204 25.4956 16.551M29.2095 25.1122C29.1092 25.0714 29.059 24.9694 29.059 24.8673L28.6876 24.9592M29.059 24.8775V19.0306L28.6876 19.1224M28.6876 19.1224V24.9694C28.6876 25.0612 28.7378 25.2041 28.8381 25.2143M28.6876 19.1224C28.6876 19.0306 28.7378 18.9286 28.8381 18.949M30.946 19.3163C30.9862 19.2755 31.0364 19.2143 31.0364 19.1428L30.665 19.2347M31.0364 19.153V18.9388L30.665 19.051M34.3388 26.5204C34.2484 26.4898 29.2999 25.1428 29.2095 25.1224L28.8381 25.2143M36.3664 27.0612C36.266 27.0204 36.2058 26.9286 36.2158 26.8163L35.8444 26.9081M36.2158 26.8265V20.9796L35.8444 21.0714M35.8444 21.0714V26.9183C35.8344 27.0102 35.8946 27.1632 35.995 27.1632M35.8444 21.0714C35.8344 20.9796 35.8946 20.8775 35.995 20.8979M38.1832 21.0918C38.1531 21.153 38.1531 21.2551 38.0728 21.2653L37.7014 21.3571M38.1832 21.0918V20.8775L37.8118 20.9898M38.1832 21.0918L37.8118 21.1837C37.7917 21.2653 37.7716 21.3877 37.6612 21.3571L35.9849 20.8979M41.4755 28.4694C41.3852 28.4388 36.4567 27.0918 36.3664 27.0714L35.995 27.1632M42.941 29.7449V29.6735M42.941 29.7449L43.5834 29.9183M42.941 29.7449L42.5496 29.8367M43.7641 33.7653C44.2058 33.6734 44.537 33 44.5169 32.4694V30.1632M44.3262 30.1224L44.5169 30.1632M44.5169 30.1632L44.1455 30.2755M42.5496 29.8367L44.1455 30.2755M42.5496 29.8367V29.5918M44.1455 30.2755V32.5714M44.1455 32.5714L44.5169 32.4796M44.1455 32.5714C44.1255 33.4286 43.5935 34.0612 42.9812 33.8673M42.941 22.6939V22.6326M42.941 22.6939L43.1317 22.7551M42.941 22.6939L42.5496 22.8061M43.1317 22.7551C43.2422 22.7959 43.3727 22.7959 43.4931 22.7959M43.1317 22.7551L42.7403 22.8469L42.5496 22.8061M42.5496 22.8061V22.5408L44.1455 22.9796M43.5734 29.7245C43.3024 29.7143 42.9912 29.7041 42.7302 29.6326M43.5734 22.9388C43.3024 22.9286 42.9912 22.9286 42.7302 22.8469V29.6224L42.5395 29.5816M1.26474 7.76529C7.27729 9.34692 38.6951 17.6122 42.9711 18.7449M1.26474 7.76529C0.642408 7.57141 0.0803001 8.20406 0.100375 9.06121V10.9694L1.67629 11.4081M44.5169 20.5816V22.8775M44.5169 20.5816C44.5169 19.7143 43.9548 18.8061 43.3526 18.653L42.9812 18.7449C43.5935 18.9183 44.1255 19.8367 44.1455 20.6735M44.5169 20.5816L44.1455 20.6735M44.5169 22.8673L44.1455 22.9796M44.1455 22.9796V20.6735M5.64115 21.5102L5.79172 21.551V20.4592L4.19573 20.0204V20.0918M19.6738 16.5714V22.9898M21.7014 16.8061C21.8419 16.8469 21.9222 17.0306 21.9222 17.1735V23.5918C21.9423 23.7041 21.8319 23.8979 21.7014 23.8367M11.463 21.4388L11.6838 21.5M11.463 16.449C11.0615 16.3673 10.8507 16.7653 10.8607 17.1122M11.463 16.4592L11.6838 16.5306C12.0652 16.6428 12.276 17.1224 12.266 17.5M12.266 20.8469V17.5102M11.6838 21.4898C12.0552 21.602 12.2961 21.1632 12.266 20.8367M8.07026 15.5306L8.29109 15.5918C8.6926 15.7347 8.89335 16.1735 8.89335 16.5816V19.9081M8.29109 20.5816C8.68256 20.6837 8.90339 20.2551 8.89335 19.9183M16.4617 15.3877L14.9561 14.9898M16.4617 15.3775C16.6926 15.4694 16.8532 15.7551 16.8331 16.0102L16.2509 15.8571M25.0941 16.7347L25.054 16.9081M25.5358 16.4183L26.3388 16.6428C26.6499 16.7347 26.7804 17.0918 26.8105 17.3877V24.1632C26.8005 24.4183 26.6299 24.7653 26.3388 24.6632M11.0013 12.3367L9.91719 14.7653C9.56587 15.3163 9.04391 14.4592 9.26474 14.0714M11.0013 12.3469C11.2221 11.9592 10.6801 11.1122 10.3488 11.6734M5.32999 13.6122L6.41405 11.1837M7.94981 11.5714L6.86575 14C6.49435 14.5306 6.00251 13.6939 6.2133 13.3061L7.29736 10.8775M7.94981 11.5816C8.1606 11.1939 7.66876 10.3571 7.29736 10.8877M11.4429 15.1632L12.527 12.7347M4.88833 10.7857L3.80427 13.2143C3.47302 13.7755 2.93099 12.9286 3.15182 12.5408M4.88833 10.7959C5.10916 10.4081 4.56713 9.56121 4.23588 10.1224M1.67629 11.6632V11.4183M1.68632 11.6632L1.49561 11.6224V18.3979C1.39523 18.3367 1.19448 18.3265 1.1744 18.1837V11.4081M1.26474 22.5C5.53074 23.6632 36.9787 32.2245 42.9711 33.8571M39.5182 21.4592C39.5182 21.3571 39.4479 21.2653 39.3676 21.2143M39.5182 21.449V21.6632C39.5082 21.7653 39.5684 21.8673 39.6688 21.9081L41.325 22.3673M41.4755 22.6224C41.4856 22.5306 41.4354 22.3673 41.325 22.3775M37.8118 21.1939V21C37.8018 20.8979 37.8519 20.7959 37.9624 20.8265L39.3676 21.2041M32.3614 19.7143V19.5M32.3614 19.7245C32.3513 19.8265 32.4115 19.9286 32.5119 19.9694L34.1882 20.4286C34.2986 20.4388 34.3087 20.5918 34.3388 20.6735M30.5044 19.4081L28.8281 18.949M30.5044 19.4183C30.6048 19.4388 30.655 19.3265 30.655 19.2449V19.051C30.6449 18.949 30.6951 18.8469 30.8055 18.8775L32.2108 19.2551M32.3614 19.5102C32.3614 19.3979 32.3011 19.3163 32.2108 19.2653M0.100375 14.6734V18.1632M0.100375 14.6734L0.291091 14.6122M0.100375 14.6734L0.662483 14.8265L1.1744 14.6939M0.100375 18.1735L0.662483 18.3265M0.662483 18.3265V14.8367M0.662483 18.3265L1.11418 18.2143V18.3469M71.1066 21.8367L71.0866 21.7755M66.1179 24.2959L66.1882 24.2755M62.5044 24.1632L62.4843 24.1224M57.5157 26.6326L57.5859 26.6122M79.4479 22.949C79.468 23.5306 79.1368 24.1122 78.6951 24.2653M79.4479 22.949V20.5612L79.8996 20.4286M79.4479 22.949C76.1355 23.8571 48.2108 31.4694 44.5872 32.4592V30.051L44.1355 30.1632L43.5734 30.0102M43.8043 33.7551C44.2961 33.6939 44.6073 32.9796 44.5972 32.4592M43.5734 26.5102V30M79.8996 16.9286V20.4183M79.8996 16.9286C76.276 17.9183 47.468 25.7653 44.1455 26.6632L43.5834 26.5102M79.8996 16.9286L79.7089 16.8877M44.1455 30.1632V26.6735M43.7641 26.4796L43.5734 26.5204M0.100375 11.0918L0.291091 11.0306M0.100375 11.0918V14.5816L0.662483 14.7347M0.100375 11.0918L0.662483 11.2449M0.662483 11.2449L0.853199 11.1837M0.662483 11.2449V14.7347M0.662483 14.7347L1.1744 14.5816M36.5772 0.244879C36.4667 0.224471 36.256 0.224471 36.1455 0.244879C32.7829 0.959164 4.94856 6.85712 1.28482 7.63263M36.5772 0.244879C42.2986 1.5408 74.0276 8.73467 78.2836 9.69386M79.7089 13.8571L79.8996 13.9183M79.8996 13.9183V16.8367C76.276 17.8265 47.468 25.6632 44.1455 26.5714V23.0816M79.8996 13.9183L79.4479 14.0306V11.6428M78.2836 9.69386C74.9511 10.551 47.0565 17.7041 43.4228 18.6326M78.2836 9.69386C78.8858 9.86733 79.4479 10.7653 79.4479 11.6428M44.1355 26.5714L43.5734 26.4183V22.9286L43.7641 22.8673M44.1455 23.0816L43.5834 22.9286M44.1455 23.0816L44.5972 22.9694L44.4065 22.9081M16.2309 20.153C16.2309 20.153 16.2008 20.1837 16.2309 20.1735V20.1326M16.0301 20.2347V20.1939M15.8996 20.2551C15.8996 20.2551 15.8695 20.2857 15.8996 20.2755V20.2347M15.4078 21.9081L15.2171 21.8469M20.4768 23.2857L20.1757 23.2143M8.64241 19.6837L8.40151 19.6224L8.29109 19.5612H8.27102M8.64241 19.6837L8.53199 19.6428M8.68256 19.4898L8.74279 19.4694M8.68256 19.4898V19.3571M8.68256 19.4898C8.66248 19.4898 8.62233 19.5102 8.62233 19.5102V19.3775C8.63237 19.3673 8.68256 19.3571 8.68256 19.3571M8.68256 19.3571L8.74279 19.3367L8.63237 19.3775M8.19071 17.653C8.23087 17.653 8.23087 17.7653 8.23087 17.7653L8.12045 18.0714M8.19071 17.653L8.12045 17.6326M8.19071 17.653L7.77917 17.7653M8.19071 17.653L8.13049 17.6326M8.19071 17.653C8.25094 17.653 8.25094 17.7245 8.25094 17.7653L8.12045 18.0714M8.12045 18.0714C8.12045 18.0714 8.12045 18.1837 8.18068 18.1837M7.77917 17.7653V16.2347M7.77917 17.7653H7.66876V19.5612M8.68256 18.7041L8.74279 18.6837M8.68256 18.7041V18.5714M8.68256 18.7041C8.67252 18.7245 8.62233 18.7245 8.62233 18.7245V18.5918C8.63237 18.5816 8.68256 18.5714 8.68256 18.5714M8.68256 18.5714L8.74279 18.551L8.63237 18.5918M8.68256 17.4081L8.74279 17.3877M8.68256 17.4081V17.2755M8.68256 17.4081H8.62233V17.2755H8.68256M8.68256 17.2755L8.74279 17.2551L8.63237 17.2755M8.39147 20.2347L8.33124 20.3265C8.60226 20.3877 8.76286 20.0918 8.74279 19.8469V16.5204M8.6123 16.1837H8.57215L8.64241 16.2041M8.57215 16.1939L8.51192 16.2653L8.58218 16.2857M8.65245 16.2143L8.59222 16.2857L8.70263 16.2449M8.68256 16.6224L8.74279 16.602M8.68256 16.6224V16.4898H8.62233V16.6224H8.68256ZM8.27102 19.5612V16.4286M8.27102 19.5612L8.40151 19.5816M8.59222 16.1837L8.40151 16.2449L8.29109 16.3367L8.27102 16.4286M8.27102 16.4286L8.40151 16.4694V19.5816M8.40151 19.5816L8.53199 19.6428M8.72271 16.4694L8.63237 16.4898M8.53199 19.6428V16.4183M8.53199 16.4183L8.64241 16.3061M8.53199 16.4183L8.40151 16.4796M8.64241 16.2959L8.40151 16.2347M8.1606 15.8265C7.89962 15.7755 7.79925 16.0306 7.78921 16.2449M8.1606 15.8265L8.38143 15.8979M8.1606 15.8265L8.10038 15.7653C7.82936 15.7041 7.67879 16.0102 7.66876 16.2449M8.38143 15.8979C8.47177 15.9183 8.57215 16.0102 8.62233 16.0918M8.38143 15.8979L8.3212 15.8265M8.74279 16.5102V16.5306C8.74279 16.2551 8.59222 15.9286 8.33124 15.8265L8.11041 15.7653M8.10038 20.2755L8.3212 20.3367M8.33124 20.4081L8.11041 20.3469M8.10038 20.3469C7.78921 20.2449 7.62861 19.8571 7.60853 19.5408V17.7449M8.79297 16.551V19.8775M15.9297 20.2755V20.2143M15.6888 20.2755V20.3367M15.5383 19.3163L15.7491 19.2959M15.7491 19.2959L15.5383 19.3571M15.7491 19.2959V19.0714M12.0452 20.6122L11.8043 20.5408L11.6939 20.5M12.0452 20.6122L11.9348 20.551M12.0853 20.4286L12.1455 20.4081M12.0853 20.4286V20.2755M12.0853 20.4286H12.0251M12.0853 20.2755H12.1455M12.0853 20.2755C12.0853 20.2755 12.0452 20.2959 12.0251 20.2959L12.1355 20.2551M11.6336 18.6837C11.6336 18.6837 11.6336 18.5714 11.5734 18.5918M11.6336 18.6837L11.5232 18.9898M11.6336 18.6837L11.5232 19.0102C11.5232 19.0102 11.5031 19.102 11.5634 19.102M11.6336 18.6837C11.6336 18.6326 11.6336 18.5714 11.5734 18.5714M11.5734 18.5918L11.5132 18.5714H11.5734M11.5734 18.5918L11.1819 18.7041M11.5132 18.9898C11.4831 19.0306 11.4931 19.1122 11.5533 19.102L11.6637 19.0816M11.1819 18.7041H11.0715M11.0113 18.6632L11.0715 18.6837M11.0715 18.6837H11.1819M11.0715 18.6837V20.4796M11.5734 18.5714L11.1819 18.6837M12.0853 19.6428L12.1455 19.6224M12.0853 19.6428V19.4898M12.0853 19.6428H12.0251V19.5102M12.0853 19.4898H12.1455M12.0853 19.4898C12.0853 19.4898 12.0452 19.5102 12.0251 19.5102M12.0251 19.5102L12.1355 19.4694M11.1819 18.6837V17.153M12.0853 18.3265L12.1455 18.3061M12.0853 18.3265V18.1939M12.0853 18.3265C12.0753 18.3367 12.0251 18.3469 12.0251 18.3469V18.2143M12.0853 18.1939L12.1455 18.1735M12.0853 18.1939C12.0853 18.1939 12.0351 18.1939 12.0251 18.2143M12.0251 18.2143L12.1355 18.1735M11.9749 17.1224C11.9749 17.1224 11.9749 17.102 11.995 17.102M11.9749 17.1224L12.0452 17.1428M11.9749 17.1224L11.8043 17.1632M11.9649 17.1122L11.8946 17.1735L11.9649 17.1939M11.9749 17.1939L12.0452 17.1326M12.0853 17.5408L12.1455 17.5204M12.0853 17.5408V17.4081C12.0853 17.4081 12.0452 17.4286 12.0251 17.4286M12.0853 17.5408C12.0753 17.551 12.0251 17.5612 12.0251 17.5612V17.4286M12.0251 17.4286L12.1154 17.3877M11.6838 20.5L11.6637 20.4796M12.0853 17.1632L11.9749 17.2041M11.8043 20.5204L11.6738 20.4796V17.3469L11.8043 17.3877M11.8043 20.5204L11.9348 20.5612V17.3367M11.8043 20.5204V17.3877M11.0715 20.4796C11.0615 20.7551 11.212 21.0918 11.4831 21.1837L11.7039 21.2551M12.0251 20.2857V20.4183M12.1355 20.5816L12.0452 20.6224M11.8043 17.3877L11.9348 17.3265L12.0452 17.2143L11.8043 17.153M11.6637 17.3469L11.6838 17.2755L11.7942 17.1632M11.5332 16.7551C11.3024 16.6735 11.1518 16.949 11.1719 17.153M11.0715 17.1632C11.0514 16.9183 11.212 16.6326 11.4831 16.6837M11.0715 17.1632V18.6939M11.7641 16.8163L11.5433 16.7551L11.4831 16.6837M11.7641 16.8163C11.8745 16.8367 11.9649 16.9388 12.0251 17.0306M11.7641 16.8163L11.7039 16.7551L11.4831 16.6837M12.1355 20.7449V20.7857M12.1355 20.7857V17.449M15.5784 20.3061L16.2509 20.1122M12.1355 17.449V17.4286M12.1355 17.449C12.1154 17.1837 11.9849 16.8367 11.7039 16.7653M11.0113 17.1428C10.9812 16.8775 11.1819 16.551 11.4831 16.6122M21.3199 21.551L21.2095 21.5714M21.2095 21.5714L21.2698 21.5918M21.2095 21.5714V21.5918M10.8206 11.602L10.8407 12.7143M10.8808 11.6428H10.8407L10.9009 11.6632M12.4065 11.9898L12.2359 11.9592M13.9322 12.3877L13.7616 12.3571M25.7967 20.9388L26.3789 20.7449M25.9072 21.5102C25.9072 21.5102 25.9272 21.4898 25.9473 21.4898L26.3789 21.3979M25.2146 21.7959L26.3789 21.551M25.2246 21.4694C25.2246 21.4694 25.2447 21.5 25.2447 21.5306L25.3049 21.5918M25.2246 21.4694V21.2245L25.2647 21.2857M25.2246 21.4694L25.2647 21.5102V21.2857M25.6562 21.6122C25.7265 21.6122 25.8971 21.6122 25.8971 21.5408M25.6562 21.6122V21.153L25.3752 21.1735M25.6562 21.6122H25.3752C25.3149 21.6326 25.2748 21.5714 25.2647 21.5204M25.7967 18.3469L26.3789 18.1326M25.2647 21.2857C25.2647 21.2347 25.325 21.1735 25.3752 21.1735M25.3752 21.1735L25.3149 21.1122M25.6662 21.153C25.7365 21.1122 25.9272 21.1428 25.9072 21.0204C25.8971 20.9898 25.9473 20.9796 25.9473 20.9796M25.9473 20.9796L26.3789 20.8469M25.9473 20.9796V21.5M25.0238 22.8877C24.9837 22.8265 24.9636 22.7551 24.9536 22.6735H24.7629M25.0238 22.8877L24.8532 22.9796M25.9072 18.8979H25.9473M25.9473 18.8979V18.3775M25.9473 18.8979L26.3789 18.8061M25.4354 23.6326L25.2447 23.6735C25.2447 23.602 25.2045 23.5408 25.1744 23.4796M24.8532 22.9796L25.1744 23.4796M24.8532 22.9796C24.803 22.8877 24.7729 22.7755 24.7629 22.6735M25.4655 23.8265C25.5056 23.9183 25.5558 24.0102 25.6562 24.051L25.5659 24.2041M25.2848 23.8571L25.4755 23.8163M25.2848 23.8571C25.335 24 25.4053 24.1735 25.5659 24.2041M25.2848 23.8571L25.2447 23.6632M25.2146 19.1837L26.3789 18.9388M25.2246 18.8571C25.2246 18.8775 25.2447 18.9183 25.2447 18.9183L25.3049 18.9796M25.2246 18.8571V18.6122M25.2246 18.8571L25.2647 18.9183C25.2647 18.9694 25.325 19 25.3752 19.0102L25.6562 18.9898M25.6562 18.9898C25.7265 18.9898 25.877 19.0102 25.8971 18.9286M25.6562 18.9898V18.5306L25.3752 18.551M25.2246 18.6122L25.2647 18.6734M25.2246 18.6122C25.2246 18.551 25.2647 18.5 25.3149 18.5M25.2647 18.9081V18.6632C25.2647 18.5918 25.3752 18.551 25.3752 18.551M25.3752 18.551L25.3149 18.4898M25.6662 18.5306C25.7465 18.5204 25.9272 18.5204 25.9072 18.3979C25.8971 18.3775 25.9473 18.3775 25.9473 18.3775M25.9473 18.3775L26.3789 18.2245M25.7867 18.3469C25.7466 18.3571 25.6863 18.3877 25.6964 18.4388C25.7064 18.4694 25.6261 18.4796 25.6261 18.4796L25.325 18.5M25.5659 24.2041L26.389 24.4286L26.4793 24.2551M26.3789 21.6224L25.2748 21.8469M26.3789 19.0102L25.2748 19.2347M25.1945 19.1632V18.5102C25.1945 18.5102 25.2346 18.4081 25.2647 18.3775L26.3689 18.0102M24.7629 22.6735V17.7245M26.389 17.8061C26.389 17.8061 26.3689 17.8061 26.3689 17.7857M25.0138 17.5612C24.9636 17.602 24.9636 17.6734 24.9435 17.7347H24.7528M26.6801 24.051V24.1122C26.66 24.2653 26.5797 24.4694 26.399 24.4388M26.6801 24.051V17.3265V24.102M26.5395 17.7143C26.5496 17.6939 26.5596 17.653 26.5596 17.653M25.0238 17.551L24.8532 17.4796L25.1744 17.153M25.345 17.2551L25.1744 17.1632C25.1744 17.1632 25.2647 17.0816 25.2447 17.0102M25.2447 17.0102L25.4354 17.051L25.4755 16.8775M25.2447 17.0102L25.2848 16.8367M25.4755 16.8775C25.5257 16.8061 25.5659 16.7245 25.6662 16.7449M25.4755 16.8775L25.2848 16.8367M25.2848 16.8367C25.335 16.7143 25.4253 16.6122 25.5659 16.6428M25.5659 16.6428L25.6562 16.7347L26.4793 16.9592M25.5659 16.6428L26.389 16.8673M26.5997 17.0612C26.5997 17.0612 26.5295 16.9796 26.4893 16.9694L26.399 16.8775M26.389 16.8775C26.5797 16.9388 26.6299 17.153 26.67 17.3367M24.7629 17.7347C24.7729 17.653 24.793 17.551 24.8532 17.4898M25.1844 23.6632L25.2447 23.8571C25.2748 24.0306 25.3952 24.2245 25.5659 24.2755L26.389 24.5M20.8883 21.153V20.9081M20.8883 21.1428V21.1837V20.9388M21.3199 21.5714L20.6274 21.7653M20.4166 22.449V22.4694M20.4166 22.4694V22.7143C20.4366 22.8571 20.4868 23.0204 20.6274 23.0612M20.4166 22.4694L20.527 22.4898M20.8883 20.9388V20.8979C20.8883 20.7551 21.0088 20.6326 21.1493 20.6326M20.8883 20.9388C20.8883 20.7959 21.0088 20.6735 21.1493 20.6735M21.1493 20.6326L21.3199 20.6122M21.1493 20.6326V20.6735M21.1493 20.6735H21.3199M21.3199 21.4388H21.1493C21.0188 21.4388 20.8883 21.3265 20.8883 21.1939L20.6274 21.2653M20.8883 18.0204V17.7755M20.8883 18.0204V18.0918L20.9084 18.1326M20.8883 18.0204V18.0612M20.8883 18.0612V17.8163M20.8883 18.0612C20.8883 18.2041 21.0088 18.3061 21.1493 18.3061H21.3199M21.3199 18.4388L20.6274 18.6326M21.3199 20.3265L20.7378 20.4796C20.6775 20.5102 20.6274 20.602 20.6274 20.6735V21.6632C20.6073 21.7245 20.6775 21.7755 20.7378 21.7755L21.3199 21.6224M21.1895 19.449L20.4567 19.6428M21.1895 19.449L21.1694 19.4286M20.4567 22.4286V19.6428M20.4567 22.4286C20.3262 22.4694 20.1757 22.4694 20.0452 22.4286V19.6428C20.1757 19.6837 20.3262 19.6837 20.4567 19.6428M21.3199 19.9286L21.1694 19.9694M21.1694 19.9694C21.1192 20.0204 21.1092 19.8979 21.1092 19.8571M21.1694 19.9694C21.1694 19.9694 21.0891 19.9081 21.1292 19.8775M21.1694 19.9694L21.3199 19.9081M21.1493 17.5C21.0088 17.5 20.8883 17.6224 20.8883 17.7653V17.8061C20.8883 17.6632 21.0088 17.5408 21.1493 17.5408M21.1493 17.5H21.3199M21.1493 17.5V17.5408M21.1493 17.5408H21.3199M20.3563 16.8163C20.4065 16.8265 20.4166 16.7245 20.4166 16.7245V16.4796M20.7378 17.3469C20.6775 17.3775 20.6274 17.4694 20.6274 17.5408V18.5306M21.4003 17.1735L20.7478 17.3469M20.537 16.7551C20.537 16.7551 20.5069 16.8265 20.4768 16.8469M20.537 16.7551L20.4266 16.7143M20.4567 19.6224C20.3262 19.6632 20.1757 19.6632 20.0452 19.6224V16.8571C20.1656 16.8877 20.3363 16.8877 20.4567 16.8571M20.4567 19.6224V16.8571M21.9222 22.9081L21.8519 22.8877C21.8519 22.8877 21.7817 22.8673 21.7817 22.8265M20.4567 16.8571H20.4768L20.3664 16.8163L20.3463 16.8367H20.1556L20.0452 16.7959M21.3199 22.6428L21.5809 22.7551L21.9222 22.8469M21.3199 22.6428V17.2449M21.3199 22.6428L21.9222 22.7959M21.5809 16.9694L21.8218 16.9081M21.5809 16.9694L21.9021 17.0612M21.5809 16.9694L21.3199 17.2347L21.9222 17.4081M20.8181 21.2653L20.7478 21.2449M20.8181 21.2653L20.9084 21.2449M20.8181 21.2653L20.6274 21.3571M15.7992 19.5102V19.7551L15.8193 19.7959M15.7992 19.5102L15.8193 19.551V19.7959M15.7992 19.5102C15.7992 19.3673 15.9197 19.2449 16.0602 19.2449H16.2509M15.7992 19.7653L15.8193 19.8367V19.8775M15.8193 19.7959C15.8193 19.9388 15.9398 20.0612 16.0803 20.0612H16.2509M16.2509 20.1735L15.5383 20.3673M15.4379 21.1122L15.3275 21.0714V21.3367C15.3476 21.4592 15.4178 21.6326 15.5383 21.6837M16.0803 19.2755L16.0602 19.2347M16.0803 19.2755H16.2509M16.0803 19.2755C15.9598 19.2959 15.8193 19.3979 15.8193 19.5408M15.7992 16.3775V16.6224L15.8193 16.6837M15.7992 16.3775C15.7992 16.2347 15.9197 16.1122 16.0602 16.1122H16.2509M15.7992 16.3775L15.8193 16.4183M15.8193 16.6837V16.4183M15.8193 16.6837C15.8193 16.8163 15.9498 16.9286 16.0803 16.9286H16.2509M16.2509 17.0408L15.5383 17.2347M15.5383 20.2755C15.5583 20.3367 15.5684 20.4286 15.6487 20.4081L16.2509 20.2347M15.5383 20.2653V19.2755C15.5583 19.2143 15.5784 19.1224 15.6487 19.102M16.2509 18.9388L15.6487 19.1122M16.1004 18.0612H16.0803M16.1004 18.0612L15.3676 18.2551M15.3676 21.051V18.2653M15.3676 21.051C15.2472 21.0816 15.0765 21.0816 14.9561 21.051V18.2653C15.0765 18.2959 15.2472 18.2959 15.3676 18.2653M16.2509 18.551L16.0803 18.5918C16.0201 18.5918 16.0201 18.5204 16.0201 18.4796M15.8193 16.4183C15.8193 16.2857 15.9498 16.1735 16.0803 16.1735M16.0602 16.102L16.0803 16.1632L16.2509 16.1428M15.3676 18.2653L16.1004 18.051M15.2673 15.4388C15.3174 15.4286 15.3275 15.3469 15.3275 15.3469V15.0816M15.6487 15.9694C15.5684 15.9898 15.5583 16.0918 15.5383 16.1632V17.1326M16.3112 15.7857L15.6587 15.9796M16.2509 17.1224L15.6487 17.2755C15.5684 17.2959 15.5583 17.2041 15.5383 17.1428M15.3877 15.4592C15.4479 15.4796 15.4479 15.3877 15.4479 15.3877L15.3375 15.3469M15.3877 15.4592L15.3676 15.4796M15.3877 15.4592L15.2773 15.4388H15.2572C15.207 15.4694 15.1267 15.4592 15.0665 15.4388L14.9561 15.3979M16.0402 18.4796C16.0502 18.5204 16.0201 18.5918 16.0803 18.5714L16.2509 18.5306M16.8432 21.5102L16.7829 21.4898C16.7829 21.4898 16.7127 21.4694 16.7127 21.449M15.6386 21.551H15.6186V21.5714L15.5985 21.5918C15.468 21.6326 15.4078 21.8061 15.3877 21.9388M15.6286 21.551C15.6286 21.551 15.6286 21.5714 15.6085 21.5714M15.3676 15.4796V18.2449C15.2472 18.2755 15.0765 18.2755 14.9561 18.2449V15.4796C15.0765 15.5102 15.2472 15.5102 15.3676 15.4796ZM16.2509 21.2449L16.4918 21.3775L16.8331 21.4694M16.2509 21.2449V15.8571M16.2509 21.2449L16.8331 21.4183M16.6826 15.5306L16.4918 15.5918L16.2509 15.8571M16.7629 15.6734L16.5019 15.602M8.14053 15.551V15.6224M31.468 22.9081V22.8877C31.5483 22.8673 31.5383 22.7653 31.5583 22.6939V22.4796M31.468 22.9081C31.3375 22.9592 31.0565 23.0612 30.926 23.102M31.468 22.9081V22.3571M31.5583 22.4898C31.5583 22.4898 31.5483 22.3367 31.468 22.3571M31.468 22.3571L31.4078 22.3367L31.3877 22.3571C31.2673 22.3673 31.0063 22.3877 30.8758 22.3979M31.468 21.551V21.5306C31.5282 21.5 31.5583 21.3979 31.5583 21.3367M31.468 21.551L31.3174 21.6122V22.3571M31.468 21.551V21M31.5583 21.3469V21.1326C31.5684 21.0816 31.5282 20.9898 31.468 21M31.468 21L31.3174 21.0408M31.468 21L31.4078 20.9796L31.3877 21L31.2572 21.0204M29.079 23.4592L29.059 23.5204L29.079 23.5408M29.0991 23.3469L29.059 23.3673M29.079 23.4796C29.079 23.4796 29.079 23.5306 29.059 23.5408M29.079 23.4796V23.3469M29.059 24.6428C29.059 24.6428 29.079 24.6939 29.079 24.7143M30.5445 23.1632L30.9159 23.0918V22.4081M30.9159 22.4081C31.0464 22.4081 31.3275 22.3775 31.458 22.3469M30.9159 22.4081H30.5445M30.3538 23.2347C30.394 23.2041 30.5445 23.1734 30.5445 23.1734V22.4081M30.3538 23.2347L29.7917 23.4592M30.3538 23.2347V22.4286M30.5445 22.4081C30.4944 22.4081 30.3538 22.4286 30.3538 22.4286M31.3074 21.6122C31.2171 21.6428 31.0063 21.7143 30.9159 21.7449L30.5445 21.8163M29.0188 23.3265C29.0188 23.3265 29.059 23.3469 29.079 23.3469M29.079 23.3469V22.3367M32.0602 24.0102V23.9898L32.0201 24.0102M29.5709 24.2245V23.4592M29.5709 24.2245C29.6713 24.2449 34.2183 25.4898 34.3187 25.5204M29.5709 24.2245L29.5107 24.2449M34.2284 22.1224L32.0703 23.9898M34.2484 21.9388L31.9197 23.9592L31.8795 23.9796L32.0301 24.0204M31.5784 23.1224L31.3174 23.0612L29.591 23.5204M30.5445 21.8163C30.5445 21.8163 30.394 21.8469 30.3538 21.8775M30.5445 21.8163V21.051M30.9159 21.7347V21.051H30.5445M30.3538 21.8775L29.7917 22.102M30.3538 21.8775V21.0714M30.5445 21.051C30.4944 21.051 30.3538 21.0714 30.3538 21.0714M29.059 21L29.079 20.9592M29.0991 20.8469L29.059 20.8673M29.079 21.0306C29.079 21.0306 29.059 21.0102 29.059 20.9898M29.079 20.9796C29.079 20.9796 29.079 21.0306 29.059 21.0408M29.079 20.9796V22.2245M29.059 22.1428C29.059 22.1428 29.079 22.1939 29.079 22.2143V22.3265M29.7917 23.4592C29.7917 23.4592 29.6913 23.4796 29.6412 23.4796H29.5107M29.7917 23.4592V22.4898M30.3538 22.4286L29.7917 22.4898M29.7215 22.4694H29.6512M29.7215 22.4694L30.2836 22.4081C30.3338 22.3979 30.4542 22.3877 30.5044 22.3877M29.7215 22.4694L29.7917 22.4898M29.6412 22.5102V22.4694H29.5709M29.5709 22.4694V22.102M29.5709 22.4694L29.5107 22.4898M29.5107 22.4898V23.4796M29.5107 22.4898V22.1224M32.4216 24.1326L32.4417 24.0918L32.4617 24.1122L32.4216 24.1326ZM32.4216 24.1326L32.271 24.0918L32.2911 24.051L34.3388 22.2959M34.2585 22.5204L32.4417 24.0816M29.5107 23.4796V24.2449M29.7917 22.4796C29.7516 22.5102 29.6412 22.5 29.6412 22.5C29.6412 22.5 29.5508 22.4694 29.5107 22.4796M31.3174 22.9592V23.051M31.3174 20.6735V21M34.2083 21.8163V21.9694M30.8858 22.3877H30.5144M29.7917 22.102C29.7917 22.102 29.6913 22.1224 29.6412 22.1224H29.5107M29.7917 22.102V21.1326M30.3538 21.0714L29.7917 21.1326M32.8331 24.2041V24.2245H32.793M32.8331 24.2041L32.793 24.2245M32.8331 24.2041L34.2585 22.9592M29.7215 21.1122H29.6512M29.7215 21.1122L30.2836 21.051C30.3338 21.0408 30.4542 21.0306 30.5044 21.0306H30.8758M29.7215 21.1122L29.7917 21.1326M29.6412 21.153V21.1122H29.5709M29.6412 21.153C29.6412 21.153 29.7516 21.1632 29.7917 21.1326M29.6412 21.153C29.6412 21.153 29.5508 21.1326 29.5107 21.1326M29.5709 21.1122V20.3673M29.5709 21.1122L29.5107 21.1326M32.793 24.2245L32.6424 24.1837L32.6826 24.1632L34.2585 22.7857M29.5107 22.1224V21.1326M29.5107 21.1326V20.3673L30.6148 20.653M30.8858 21.0306C30.9762 21.0306 31.1669 21.0306 31.2572 21.0102M31.3174 21.0306C31.2271 21.0408 31.0163 21.051 30.926 21.051M29.4003 19.8061C29.4003 19.8367 29.4404 19.8673 29.4404 19.8673L29.3701 19.8877M30.6148 20.7653L29.7315 21.0102M31.5784 23.1122V20.6122M29.7315 23.6326L31.5684 23.1122M29.7315 23.6326V24.1122M29.7315 23.6326L29.5609 23.5714M29.4003 19.8163V19.3367L29.33 19.3571M29.3902 19.8163L29.3199 19.8367V19.3571C29.3199 19.3571 29.34 19.3163 29.3601 19.3163L30.3036 19.5612C30.3036 19.5612 30.3438 19.5918 30.3438 19.6326M33.2146 24.3163V24.2959L33.1744 24.3367M33.2146 24.3163L33.4956 24.2449M33.2146 24.3163L33.1744 24.3367M33.1744 24.3367L33.0238 24.2959L33.064 24.2551M33.2045 24.3061L34.2585 23.3877C34.2585 23.3877 34.2986 23.4286 34.3187 23.4286M33.064 24.2653L34.2685 23.2347M33.606 24.4388L33.5859 24.4183L33.5659 24.4388L33.4153 24.3979L33.4354 24.3775L34.3388 23.5918M34.2585 23.8367L33.5859 24.4081M33.7365 22.3877V21.6224M30.3338 20.1224L29.4304 19.8775M33.9774 24.5102V24.5306M33.9774 24.5102L33.9373 24.551M33.9774 24.5102L34.2585 24.2653M33.8269 24.4694L34.2585 24.0918M33.8369 24.4694L33.7967 24.5102L33.9473 24.551L33.9875 24.5306M34.2685 24.5204L34.2083 24.5816L34.1681 24.602L34.2585 24.6224M30.675 19.5408V20.6326L30.6148 20.653M30.6148 20.653V19.5306L31.0665 19.6632M32.813 20.2755L30.7854 20.8265M30.7854 20.8265V19.7143M31.9197 19.2245V19.8877L31.7491 19.9286L31.2271 19.8367M31.5784 19.1224L31.2171 19.2143M31.5784 19.1224L32.3112 19.3163M31.5784 19.1224L31.5082 19.102M31.1468 19.2041L31.5082 19.1122M31.1468 19.2041L31.2171 19.2245V19.8367L30.7854 19.7245M31.1468 19.2041V19.2755L31.1267 19.2959V19.6428L31.0665 19.6632M31.4981 19.102V19.0612M33.8871 24.3571L33.606 24.4286H33.5659M34.2585 24.449L33.9774 24.5204M33.1142 24.1428L32.8331 24.2143M32.7227 24.0306L32.4617 24.102M32.3513 23.9388L32.0703 24.0102H32.0301M29.7315 24.1122L32.6424 23.3265M29.7315 24.1122L34.2183 25.3367M29.5107 24.2449C29.611 24.2755 34.2183 25.5306 34.3187 25.5612V24.7755M34.3187 24.8367L34.2284 24.8571V25.3367M33.5458 20.9388C33.5458 20.9694 33.5859 21 33.5859 21L33.5157 21.0204M33.5458 20.9388V20.4592L33.4755 20.4796M33.5458 20.9388L33.4755 20.9592M34.3187 23.7245C34.3187 23.7245 34.2886 23.7551 34.2585 23.7449M34.2585 23.7449H34.3187M34.2585 23.7449C34.2585 23.7653 34.3187 23.7857 34.3187 23.7857M34.2585 23.7449V24.7347C34.2585 24.7347 34.2986 24.7755 34.3187 24.7755M34.3187 24.7755V23.7857M34.3187 23.7857V23.4183V22.4286M33.4755 20.9592C33.4755 20.9796 33.5157 21.0204 33.5157 21.0204M33.4755 20.9592V20.4796M34.3187 22.3673C34.3187 22.3673 34.2886 22.3979 34.2585 22.3877M34.2585 22.3877H34.3187M34.2585 22.3877C34.2585 22.4081 34.3187 22.4286 34.3187 22.4286M34.2585 22.3877V23.3775M34.3187 22.4286V21.6632L33.2146 21.3571V20.2347L32.7629 20.1224M34.3388 21.2041L33.5859 20.9898M33.5157 21.0204L34.3388 21.2449M29.3199 19.8265C29.3099 19.8673 29.3601 19.8877 29.3601 19.8877L30.3036 20.1326M30.3338 19.6428V20.102C30.3338 20.102 30.3338 20.1428 30.2936 20.1428M32.7629 20.0204V20.1122M32.7428 20.0204V20.2449M32.7428 20.2551L33.1744 20.3673V21.4796M33.1644 21.4796L34.1079 21.7245C34.1079 21.7245 34.2384 21.8367 34.2183 21.9183M34.2284 21.9081V22.2347L34.3187 22.2755M34.3187 24.8673L34.2284 24.8469M29.5709 20.9796L29.7415 21.0204M38.5947 24.8571L38.6148 24.8367C38.675 24.8163 38.6851 24.7041 38.7051 24.6428M38.7152 24.6428V24.4286C38.7152 24.4286 38.6851 24.2755 38.6248 24.2959L38.6048 24.3163M38.7152 23.0816V23.2959M38.6148 22.949C38.675 22.9388 38.7152 23.0306 38.7051 23.0816M38.6148 22.949H38.5947M38.6148 22.949L38.5445 22.9286M38.7152 23.2857C38.7152 23.3469 38.6851 23.449 38.6248 23.4796L38.6048 23.5V22.949L38.4743 22.9898M36.2359 25.3979L36.2158 25.4592L36.2359 25.4796M36.256 25.2959L36.2158 25.3163M38.0627 25.051C38.1932 25.0102 38.4843 24.9183 38.6048 24.8571V24.3265M36.2359 25.4286C36.2359 25.4286 36.2359 25.4796 36.2158 25.4898M36.2359 25.4286V25.2959M36.2359 25.4286V26.6735M36.2158 26.5918C36.2158 26.5918 36.2359 26.6428 36.2359 26.6632V26.7755M37.6813 25.1122L38.0527 25.0408V24.3571M38.0527 24.3571C38.1832 24.3571 38.4642 24.3367 38.5947 24.3163M38.0527 24.3571H37.6813M37.6813 24.3571V25.1224C37.6813 25.1224 37.5508 25.153 37.5107 25.1837V24.3775C37.5107 24.3775 37.6412 24.3571 37.6813 24.3571ZM38.4743 23.551L38.6048 23.4898M38.4642 23.551C38.3639 23.5816 38.1531 23.653 38.0527 23.6837V23H37.6813M36.1757 25.2755C36.1757 25.2755 36.2158 25.2959 36.2359 25.2959M36.2359 25.2959V24.2857M36.7277 26.1735V25.4081M36.7277 26.1735C36.8281 26.1939 41.3752 27.4388 41.4755 27.4694M36.7277 26.1735L36.6675 26.1939M39.1769 25.9592L39.2171 25.9388V25.9592L39.4981 25.8877M41.3852 24.0714L39.2271 25.9388M39.0665 25.9081L41.3952 23.8877M39.0765 25.8979L39.0364 25.9183L39.187 25.9592H39.2271M38.7353 25.0714L38.4743 25.0102L36.7478 25.4694M37.6813 23.7653L38.0527 23.6939M37.6813 23.7653C37.6813 23.7653 37.5508 23.7959 37.5107 23.8265M37.6813 23.7653V23M37.5107 23.8265L36.9285 24.051M37.5107 23.8265V23.0204M37.6813 23C37.6412 23 37.5107 23.0204 37.5107 23.0204M36.2359 22.8979L36.2158 22.9592L36.2359 22.9796M36.256 22.7959L36.2158 22.8163M36.2359 22.9286C36.2359 22.9286 36.2359 22.9796 36.2158 22.9898M36.2359 22.9286V24.1735M36.2158 24.0918C36.2158 24.0918 36.2359 24.1428 36.2359 24.1632V24.2755M37.5107 25.1735L36.9285 25.3979M39.5985 26.0612V26.0408L39.5784 26.0816L39.4078 26.0408L39.4479 26L41.4755 24.2449M36.8683 24.4183H36.798M36.8683 24.4183L37.4304 24.3571M36.8683 24.4183L36.9285 24.4388V25.4081C36.9285 25.4081 36.8381 25.4183 36.798 25.4286H36.6675M36.798 24.4183V24.4592M36.798 24.4183H36.7277V24.051M36.7277 24.4081L36.6675 24.4286C36.7077 24.4183 36.798 24.449 36.798 24.449C36.798 24.449 36.8984 24.4694 36.9285 24.4286L37.5107 24.3673M41.4153 24.4694L39.5985 26.0306M36.6675 25.4286V26.1939M36.6675 25.4286V24.4388V24.0714M38.4743 24.9081V25M38.4743 23.5714V24.2959M38.4743 22.6224V22.949M41.3651 24.7245V24.7959M38.6148 24.2959L38.5445 24.2755M38.5445 24.2755L38.5245 24.2959C38.404 24.3061 38.1531 24.3265 38.0326 24.3367H37.6612C37.611 24.3367 37.4906 24.3469 37.4404 24.3571M38.5445 24.2755L38.655 24.2959M36.9285 24.051C36.9285 24.051 36.8381 24.0612 36.798 24.0714H36.6675M36.9285 24.051V23.0816M37.5107 23.0204L36.9285 23.0816M39.99 26.153V26.1735H39.9498M39.99 26.153L39.9498 26.1735M39.99 26.153L41.4153 24.9081M36.798 23.0612H36.8683L36.9285 23.0816M36.798 23.0612V23.102M36.798 23.0612H36.7277M36.7277 23.0612V22.3367M36.7277 23.0612L36.6675 23.0816M39.9498 26.1735L39.7992 26.1326L39.8394 26.1122L41.4153 24.7347M36.6675 24.0714V23.0816M36.9285 23.0714C36.8984 23.1122 36.798 23.0918 36.798 23.0918C36.798 23.0918 36.7077 23.0612 36.6675 23.0714M38.5245 22.949L38.5445 22.9286M38.5445 22.9286L38.655 22.949M38.4141 22.9592L38.5245 22.9388M38.404 22.9592C38.3137 22.9796 38.123 22.9796 38.0326 22.9796H37.6612C37.611 22.9796 37.4906 22.9898 37.4404 23L36.8783 23.0612M38.4743 22.9796C38.3739 22.9898 38.1631 23 38.0627 23M36.5872 21.8163C36.5872 21.8163 36.5471 21.7857 36.5471 21.7551L36.4768 21.7755C36.4768 21.7959 36.5169 21.8367 36.5169 21.8367M36.5872 21.8163L37.4906 22.0612M36.5872 21.8163L36.5169 21.8367M36.6675 23.0816V22.3163L37.7716 22.602L37.8319 22.5816V21.4898M37.7716 22.7347L36.8883 22.9592V22.6326M38.7353 25.0612V22.5612M38.7252 25.0612L36.8883 25.5816L36.7177 25.5204M36.5571 21.7653V21.2857L36.4868 21.3061M40.3614 26.2449V26.2653M40.3614 26.2449L40.3212 26.2857M40.3614 26.2449L41.4354 25.3265M41.4253 25.1735L40.2208 26.2041L40.1807 26.2449L40.3312 26.2857L40.3714 26.2653L40.6524 26.1939M40.7428 26.3571L40.7629 26.3775M40.7428 26.3571L40.7227 26.3775H40.7629M40.7428 26.3571L41.4153 25.7857M40.7629 26.3775L41.0238 26.3061M41.4755 25.5612L40.5922 26.3265L40.5721 26.3469L40.7227 26.3877M40.8733 24.3367V23.5714M36.5169 21.8367L37.4605 22.0816M41.0941 26.5L41.1343 26.4592V26.4796L41.0941 26.5ZM41.0941 26.5L40.9435 26.4592L40.9837 26.4183L41.4153 26.051M41.4153 26.2041L41.1343 26.449M41.4253 26.4694L41.3651 26.5306L41.325 26.551L41.4153 26.5714M39.9699 22.2143L37.9423 22.7653M38.8959 21.8775L39.0665 21.8367V21.1735M38.7353 21.0714L38.3639 21.1632M38.7353 21.0714L39.468 21.2653M38.7353 21.0714L38.665 21.051M38.9059 21.8775L38.3639 21.7857M38.2836 21.153L38.655 21.0612M38.2836 21.153L38.3538 21.1735M38.2233 21.2551C38.2033 21.1632 38.2836 21.0816 38.3538 21.0306L38.5646 20.9694M38.655 21.051V21.0102M41.4153 26.3979L41.1343 26.4694M40.271 26.0918L39.99 26.1632M39.8795 25.9796L39.5985 26.051L39.5784 26.0714M36.8883 26.051L39.7992 25.2653M36.8883 26.051C36.8883 26.051 41.2146 27.2347 41.3752 27.2755M36.8883 26.051V25.5714M36.6675 26.1939L41.4755 27.5102V26.7245M41.4755 26.7857L41.3852 26.8061M40.7227 22.949C40.7227 22.949 40.7026 22.9081 40.6826 22.8877M40.6826 22.8877V22.4081L40.6223 22.4286M40.6826 22.8877L40.6223 22.9081M41.4755 25.6735C41.4755 25.6735 41.4253 25.6735 41.4153 25.6939M41.4153 25.6939H41.4755M41.4153 25.6939C41.4153 25.7347 41.4755 25.7347 41.4755 25.7347M41.4153 25.6939V26.6837C41.4153 26.6837 41.4454 26.7245 41.4755 26.7245M41.4755 26.7245V25.7347M41.4755 25.7347V25.3673M41.4755 24.3163C41.4755 24.3163 41.4253 24.3163 41.4153 24.3367M41.4153 24.3367H41.4755M41.4153 24.3367C41.4153 24.3775 41.4755 24.3775 41.4755 24.3775M41.4153 24.3367V25.3265C41.4153 25.3265 41.4454 25.3673 41.4755 25.3673M41.4755 25.3673V24.3775M41.4755 24.3775V23.6122L40.3714 23.3061M41.4755 23.153L40.7227 22.9388L40.6625 22.9592C40.6625 22.9592 40.6223 22.9183 40.6223 22.8979M41.4755 23.1939L40.6725 22.9694M40.6324 22.9081V22.4286C40.6324 22.4286 40.6524 22.3877 40.6725 22.3877M40.6625 22.3877L41.4655 22.6122M36.4768 21.7857V21.3061C36.4768 21.3061 36.4969 21.2653 36.5169 21.2653M36.5069 21.2653L37.4504 21.5102C37.4504 21.5102 37.5006 21.551 37.4906 21.5816M37.4906 21.5918V22.051C37.4906 22.051 37.4906 22.0918 37.4504 22.0918M37.7716 22.5918V21.4694L38.2233 21.602M40.3714 22.1735L39.8996 22.0612V21.9694V22.1939M40.3614 23.3061V22.1837M39.8996 22.2041L40.3112 22.3163V23.4286L41.2647 23.6735C41.325 23.7143 41.3651 23.7959 41.3752 23.8673M41.3852 23.8571V24.1837L41.4755 24.2245M41.4755 26.8163L41.3852 26.7959V27.2755M36.7277 22.9286L36.8984 22.9694M71.3676 21.8979L71.0665 21.8265M66.0979 24.2449L66.399 24.3163M62.7754 24.2449L62.4743 24.1735M57.4956 26.5918L57.7967 26.6632M78.7754 24.2245L79.1468 24.1326M30.5646 19.4081L30.936 19.3163M43.3927 33.8673L43.7641 33.7755M43.8444 33.7551C47.1568 32.8571 75.0816 25.2551 78.7052 24.2653M8.49184 20.4081L8.79297 20.3367M8.27102 15.5918L7.90966 15.6837M11.7039 14.602L11.1418 14.7653M11.8946 21.3367L12.1757 21.2449M11.6537 16.5102L11.3124 16.602M25.6964 21.0204V21.0612M25.9072 21.5306V21.0306M25.6964 18.3979V18.4592M25.9072 18.9388V18.4388M26.6801 17.4286L26.4592 17.5816M25.7566 16.4694L25.4354 16.5612M20.8883 21.2245L20.9084 21.2653M15.8193 16.7041V16.7653M31.4981 22.3571L31.3877 22.3367M31.4981 21L31.3877 20.9796M20.7077 22.9286V22.9694C20.7378 22.9694 20.7077 22.9286 20.7077 22.9286Z" stroke="black" stroke-width="0.2" stroke-linecap="round" stroke-linejoin="round"/>
<path d="M3.5131 14.9592C3.42276 14.9898 3.26216 15.1429 3.19189 15.2041" stroke="black" stroke-width="0.2" stroke-linecap="round" stroke-linejoin="round"/>
<path d="M4.24585 19.1735C4.33619 19.2041 4.5269 19.2245 4.61724 19.2143" stroke="black" stroke-width="0.2" stroke-linecap="round" stroke-linejoin="round"/>
<path d="M6.65484 19.1531L6.63477 19.3061" stroke="black" stroke-width="0.2" stroke-linecap="round" stroke-linejoin="round"/>
<path d="M6.63477 19.3062C6.63477 19.449 6.7251 19.6021 6.80541 19.7041" stroke="black" stroke-width="0.2" stroke-linecap="round" stroke-linejoin="round"/>
<path d="M6.82566 19.551C6.82566 19.3571 6.72529 19.1632 6.54461 19.0714H6.4342C6.4342 19.0714 6.31374 19.1939 6.28363 19.2449C6.22341 19.4898 6.35389 19.8979 6.65502 19.8571L6.74536 19.7959C6.78551 19.7347 6.81563 19.6122 6.81563 19.551" stroke="black" stroke-width="0.2" stroke-linecap="round" stroke-linejoin="round"/>
<path d="M5.4303 17.551C5.37007 16.5 4.83808 15.1632 3.70382 14.9694C2.12791 14.9694 2.12791 17.1836 2.73017 18.2347C3.6436 19.9183 5.42026 19.4898 5.4303 17.551Z" stroke="black" stroke-width="0.2" stroke-linecap="round" stroke-linejoin="round"/>
<path d="M6.80477 19.3973L6.63477 19.3673" stroke="black" stroke-width="0.2" stroke-linecap="round" stroke-linejoin="round"/>
<path d="M3.49316 15.1014V15.0714" stroke="black" stroke-width="0.2" stroke-linecap="round" stroke-linejoin="round"/>
<path d="M3.49316 15.0714L3.79429 14.9694" stroke="black" stroke-width="0.2" stroke-linecap="round" stroke-linejoin="round"/>
<path d="M3.49316 15.0714L3.59316 15.0914" stroke="black" stroke-width="0.2" stroke-linecap="round" stroke-linejoin="round"/>
<path d="M3.25218 17.2653H3.23218" stroke="black" stroke-width="0.2" stroke-linecap="round" stroke-linejoin="round"/>
<path d="M3.2522 15.9694V17.2653" stroke="black" stroke-width="0.2" stroke-linecap="round" stroke-linejoin="round"/>
<path d="M3.3822 17.3053L3.2522 17.2653" stroke="black" stroke-width="0.2" stroke-linecap="round" stroke-linejoin="round"/>
<path d="M3.72386 16.7347L3.70386 16.7447" stroke="black" stroke-width="0.2" stroke-linecap="round" stroke-linejoin="round"/>
<path d="M3.55322 18.1224H3.5733C4.07518 17.8673 3.9748 17.1429 3.72386 16.7245" stroke="black" stroke-width="0.2" stroke-linecap="round" stroke-linejoin="round"/>
<path d="M3.72388 16.7348L3.79414 16.6123" stroke="black" stroke-width="0.2" stroke-linecap="round" stroke-linejoin="round"/>
<path d="M2.86082 16.3469C2.28867 16.949 2.70022 18.4184 3.61364 18.3367" stroke="black" stroke-width="0.2" stroke-linecap="round" stroke-linejoin="round"/>
<path d="M3.38218 15.9994L3.23218 15.9694" stroke="black" stroke-width="0.2" stroke-linecap="round" stroke-linejoin="round"/>
<path d="M3.38257 16V17.3061" stroke="black" stroke-width="0.2" stroke-linecap="round" stroke-linejoin="round"/>
<path d="M3.38218 17.3053L3.23218 17.2653" stroke="black" stroke-width="0.2" stroke-linecap="round" stroke-linejoin="round"/>
<path d="M3.23218 15.9694V17.2653" stroke="black" stroke-width="0.2" stroke-linecap="round" stroke-linejoin="round"/>
<path d="M2.93092 16.5408L2.84058 16.3469" stroke="black" stroke-width="0.2" stroke-linecap="round" stroke-linejoin="round"/>
<path d="M2.93087 16.5408C2.49925 17.0102 2.75019 17.8775 3.30226 18.1224H3.54317C4.04505 17.8673 3.94467 17.153 3.69373 16.7449" stroke="black" stroke-width="0.2" stroke-linecap="round" stroke-linejoin="round"/>
<path d="M3.70386 16.7449L3.7942 16.5918" stroke="black" stroke-width="0.2" stroke-linecap="round" stroke-linejoin="round"/>
<path d="M2.8407 16.3469C2.31874 16.9286 2.60983 18.0408 3.31247 18.3367C4.22589 18.4286 4.19578 17.1428 3.80431 16.602" stroke="black" stroke-width="0.2" stroke-linecap="round" stroke-linejoin="round"/>
<path d="M4.77783 19.0204C4.77783 19.0204 4.97858 18.949 4.98862 18.949" stroke="black" stroke-width="0.2" stroke-linecap="round" stroke-linejoin="round"/>
<path d="M3.94389 15.0103C3.94389 15.0103 3.76389 15.0403 3.73389 15.0503" stroke="black" stroke-width="0.2" stroke-linecap="round" stroke-linejoin="round"/>
<path d="M2.89087 15.2755C3.00128 15.2245 3.28234 15.2551 3.40279 15.2755" stroke="black" stroke-width="0.2" stroke-linecap="round" stroke-linejoin="round"/>
<path d="M3.40283 15.2755C4.86833 15.7755 5.5007 18.5408 3.92479 19.2449" stroke="black" stroke-width="0.2" stroke-linecap="round" stroke-linejoin="round"/>
<path d="M3.31252 15.4286C4.84828 15.8469 5.33009 19.3163 3.31252 19.1327C1.80687 18.7041 1.31503 15.2959 3.31252 15.4286Z" stroke="black" stroke-width="0.2" stroke-linecap="round" stroke-linejoin="round"/>
<path d="M3.5332 18.1224H3.5532" stroke="black" stroke-width="0.2" stroke-linecap="round" stroke-linejoin="round"/>
<path d="M3.74407 15.051L2.89087 15.2755" stroke="black" stroke-width="0.2" stroke-linecap="round" stroke-linejoin="round"/>
<path d="M3.9248 19.2449L4.778 19.0204" stroke="black" stroke-width="0.2" stroke-linecap="round" stroke-linejoin="round"/>
<path d="M62.4341 24.6735C62.4341 24.7857 62.414 24.9388 62.3438 25.0408" stroke="black" stroke-width="0.2" stroke-linecap="round" stroke-linejoin="round"/>
<path d="M62.7352 24.8469C62.7352 24.7551 62.6951 24.6429 62.6047 24.6021H62.5345C62.3237 24.7041 62.2333 25.0612 62.4642 25.1939H62.5345C62.6549 25.1225 62.7352 24.9898 62.7452 24.8469" stroke="black" stroke-width="0.2" stroke-linecap="round" stroke-linejoin="round"/>
<path d="M71.1267 22.2449C71.1267 22.3571 71.1066 22.5102 71.0364 22.6122" stroke="black" stroke-width="0.2" stroke-linecap="round" stroke-linejoin="round"/>
<path d="M71.4278 22.4184C71.4278 22.3265 71.3877 22.2143 71.2973 22.1735H71.2271C71.0163 22.2755 70.926 22.6326 71.1568 22.7653H71.2271C71.3475 22.6939 71.4278 22.5612 71.4379 22.4184" stroke="black" stroke-width="0.2" stroke-linecap="round" stroke-linejoin="round"/>
</g>
<defs>
<clipPath id="clip0_1842_394">
<rect width="80" height="34" fill="white"/>
</clipPath>
</defs>
</svg>
