<svg width="1261" height="905" viewBox="0 0 1261 905" fill="none" xmlns="http://www.w3.org/2000/svg">
<path d="M-66.1993 702.542L105.456 682.79L85.288 489.78L-44.8259 573.296L-66.1993 702.542Z" stroke="#F2F7FA" stroke-width="2" stroke-linejoin="round"/>
<path d="M-21.5222 458.432L-44.8262 573.296L62.0611 393.034L-21.5222 458.432Z" stroke="#F2F7FA" stroke-width="2" stroke-linejoin="round"/>
<path d="M-66.1992 702.542L85.2881 489.78L-21.5218 458.432" stroke="#F2F7FA" stroke-width="2" stroke-linejoin="round"/>
<path d="M-44.826 573.296L105.456 682.79L240.898 700.465L287.997 515.766L85.288 489.78L62.0613 393.034L287.997 515.766L105.456 682.79" stroke="#F2F7FA" stroke-width="2" stroke-linejoin="round"/>
<path d="M240.898 700.465L402.634 505.288" stroke="#F2F7FA" stroke-width="2" stroke-linejoin="round"/>
<path d="M85.2881 489.78L240.898 700.465L403.078 617.315L402.634 505.289L287.998 515.766L403.078 617.315L551.005 699.769L569.544 544.346L403.078 617.315" stroke="#F2F7FA" stroke-width="2" stroke-linejoin="round"/>
<path d="M569.544 544.346L402.634 505.288L551.005 699.769L754.328 634.667L683.458 466.14L569.544 544.346Z" stroke="#F2F7FA" stroke-width="2" stroke-linejoin="round"/>
<path d="M569.544 544.346L754.328 634.667L857.92 721.661L976.505 748.341L1168.65 673.066L1208.39 555.085L1172.57 427.009L1005.87 409.446L888.788 502.207L683.458 466.141L551.005 699.769" stroke="#F2F7FA" stroke-width="2" stroke-linejoin="round"/>
<path d="M1168.65 673.066L1088.91 612.885L976.505 748.341L867.167 679.67L754.328 634.667L888.788 502.207L867.167 679.67L683.457 466.141" stroke="#F2F7FA" stroke-width="2" stroke-linejoin="round"/>
<path d="M867.167 679.67L1088.91 612.885L1208.39 555.085L1005.87 409.446" stroke="#F2F7FA" stroke-width="2" stroke-linejoin="round"/>
<path d="M888.788 502.207L1088.91 612.885L1005.87 409.446L867.167 679.67L857.92 721.661L1088.91 612.885" stroke="#F2F7FA" stroke-width="2" stroke-linejoin="round"/>
<path d="M1088.91 612.885L1172.57 427.009" stroke="#F2F7FA" stroke-width="2" stroke-linejoin="round"/>
</svg>
