<svg width="344" height="461" viewBox="0 0 344 461" fill="none" xmlns="http://www.w3.org/2000/svg">
<g clip-path="url(#clip0_149_4056)">
<path d="M111.045 231.536C114.643 233.154 118.872 231.55 120.491 227.952C122.11 224.354 120.505 220.125 116.907 218.507C113.309 216.888 109.08 218.492 107.462 222.09C105.843 225.688 107.447 229.917 111.045 231.536Z" fill="#F2F7FA"/>
<path d="M249.63 134.895C253.228 136.513 257.457 134.909 259.076 131.311C260.694 127.713 259.09 123.484 255.492 121.865C251.894 120.247 247.665 121.851 246.047 125.449C244.428 129.047 246.032 133.276 249.63 134.895Z" fill="#F2F7FA"/>
<path d="M94.3379 113.499C97.9358 115.117 102.165 113.513 103.783 109.915C105.402 106.317 103.798 102.088 100.2 100.469C96.6017 98.8508 92.3729 100.455 90.7542 104.053C89.1355 107.651 90.7399 111.88 94.3379 113.499Z" fill="#F2F7FA"/>
<path d="M227.643 310.252C231.241 311.871 235.47 310.266 237.088 306.668C238.707 303.07 237.103 298.842 233.505 297.223C229.907 295.604 225.678 297.209 224.059 300.807C222.441 304.405 224.045 308.633 227.643 310.252Z" fill="#F2F7FA"/>
<path d="M130.221 336.693C133.819 338.311 138.048 336.707 139.667 333.109C141.285 329.511 139.681 325.282 136.083 323.663C132.485 322.045 128.256 323.649 126.637 327.247C125.019 330.845 126.623 335.074 130.221 336.693Z" fill="#F2F7FA"/>
<path d="M204.468 397.765C208.066 399.383 212.295 397.779 213.913 394.181C215.532 390.583 213.927 386.354 210.33 384.736C206.732 383.117 202.503 384.721 200.884 388.319C199.265 391.917 200.87 396.146 204.468 397.765Z" fill="#F2F7FA"/>
<path d="M97.2688 106.984L253.002 128.578L230.574 303.737L113.976 225.021L97.2688 106.984Z" stroke="#F2F7FA" stroke-width="2" stroke-linejoin="round"/>
<path d="M132.751 329.997L113.976 225.021L207.399 391.25L132.751 329.997Z" stroke="#F2F7FA" stroke-width="2" stroke-linejoin="round"/>
<path d="M97.2686 106.984L230.574 303.737L132.751 329.997" stroke="#F2F7FA" stroke-width="2" stroke-linejoin="round"/>
<path d="M113.976 225.021L253.002 128.579L376.588 115.367L415.528 284.381L230.574 303.737L207.399 391.25L415.528 284.381L253.002 128.579" stroke="#F2F7FA" stroke-width="2" stroke-linejoin="round"/>
<path d="M230.574 303.737L376.588 115.367L415.528 284.381" stroke="#F2F7FA" stroke-width="2" stroke-linejoin="round"/>
</g>
<defs>
<clipPath id="clip0_149_4056">
<rect width="377.309" height="335.296" fill="white" transform="translate(137.567) rotate(24.2227)"/>
</clipPath>
</defs>
</svg>
