<svg width="529" height="278" viewBox="0 0 529 278" fill="none" xmlns="http://www.w3.org/2000/svg">
<g clip-path="url(#clip0_170_8596)">
<path d="M22.099 148.442C25.2199 148.442 27.7498 145.912 27.7498 142.791C27.7498 139.67 25.2199 137.14 22.099 137.14C18.9782 137.14 16.4482 139.67 16.4482 142.791C16.4482 145.912 18.9782 148.442 22.099 148.442Z" fill="#F2F7FA"/>
<path d="M129.003 68.2353C132.124 68.2353 134.654 65.7054 134.654 62.5846C134.654 59.4637 132.124 56.9338 129.003 56.9338C125.882 56.9338 123.353 59.4637 123.353 62.5846C123.353 65.7054 125.882 68.2353 129.003 68.2353Z" fill="#F2F7FA"/>
<path d="M226.701 54.5517C229.821 54.5517 232.351 52.0218 232.351 48.901C232.351 45.7801 229.821 43.2502 226.701 43.2502C223.58 43.2502 221.05 45.7801 221.05 48.901C221.05 52.0218 223.58 54.5517 226.701 54.5517Z" fill="#F2F7FA"/>
<path d="M5.65078 55.5776C8.77162 55.5776 11.3016 53.0476 11.3016 49.9268C11.3016 46.8059 8.77162 44.276 5.65078 44.276C2.52994 44.276 0 46.8059 0 49.9268C0 53.0476 2.52994 55.5776 5.65078 55.5776Z" fill="#F2F7FA"/>
<path d="M262.204 186.893C265.325 186.893 267.855 184.363 267.855 181.242C267.855 178.121 265.325 175.591 262.204 175.591C259.084 175.591 256.554 178.121 256.554 181.242C256.554 184.363 259.084 186.893 262.204 186.893Z" fill="#F2F7FA"/>
<path d="M116.432 207.471C119.553 207.471 122.083 204.941 122.083 201.82C122.083 198.699 119.553 196.169 116.432 196.169C113.311 196.169 110.781 198.699 110.781 201.82C110.781 204.941 113.311 207.471 116.432 207.471Z" fill="#F2F7FA"/>
<path d="M40.1381 231.047C43.2589 231.047 45.7889 228.517 45.7889 225.397C45.7889 222.276 43.2589 219.746 40.1381 219.746C37.0172 219.746 34.4873 222.276 34.4873 225.397C34.4873 228.517 37.0172 231.047 40.1381 231.047Z" fill="#F2F7FA"/>
<path d="M100.514 277.288C103.635 277.288 106.165 274.758 106.165 271.637C106.165 268.517 103.635 265.987 100.514 265.987C97.3932 265.987 94.8633 268.517 94.8633 271.637C94.8633 274.758 97.3932 277.288 100.514 277.288Z" fill="#F2F7FA"/>
<path d="M5.65039 49.9268L129.359 62.7323L116.432 201.82L22.0985 142.791L5.65039 49.9268Z" stroke="#F2F7FA" stroke-width="2" stroke-linejoin="round"/>
<path d="M39.816 225.266L22.0986 142.791L100.514 271.637L39.816 225.266Z" stroke="#F2F7FA" stroke-width="2" stroke-linejoin="round"/>
<path d="M5.65039 49.9268L116.432 201.82L39.8159 225.266" stroke="#F2F7FA" stroke-width="2" stroke-linejoin="round"/>
<path d="M22.0986 142.791L129.359 62.7323L226.7 48.9009L262.118 181.451L116.432 201.82L100.514 271.637L262.118 181.451L129.359 62.7323" stroke="#F2F7FA" stroke-width="2" stroke-linejoin="round"/>
<path d="M116.432 201.82L226.7 48.9009L262.117 181.451" stroke="#F2F7FA" stroke-width="2" stroke-linejoin="round"/>
<path d="M345.732 230.708C348.853 230.708 351.383 228.178 351.383 225.058C351.383 221.937 348.853 219.407 345.732 219.407C342.611 219.407 340.081 221.937 340.081 225.058C340.081 228.178 342.611 230.708 345.732 230.708Z" fill="#F2F7FA"/>
<path d="M347.392 97.0717C350.513 97.0717 353.043 94.5418 353.043 91.4209C353.043 88.3001 350.513 85.7701 347.392 85.7701C344.271 85.7701 341.741 88.3001 341.741 91.4209C341.741 94.5418 344.271 97.0717 347.392 97.0717Z" fill="#F2F7FA"/>
<path d="M396.128 11.3016C399.249 11.3016 401.779 8.77162 401.779 5.65078C401.779 2.52994 399.249 0 396.128 0C393.007 0 390.478 2.52994 390.478 5.65078C390.478 8.77162 393.007 11.3016 396.128 11.3016Z" fill="#F2F7FA"/>
<path d="M262.118 187.102C265.238 187.102 267.768 184.572 267.768 181.451C267.768 178.33 265.238 175.8 262.118 175.8C258.997 175.8 256.467 178.33 256.467 181.451C256.467 184.572 258.997 187.102 262.118 187.102Z" fill="#F2F7FA"/>
<path d="M522.662 63.8886C525.783 63.8886 528.313 61.3587 528.313 58.2378C528.313 55.117 525.783 52.587 522.662 52.587C519.542 52.587 517.012 55.117 517.012 58.2378C517.012 61.3587 519.542 63.8886 522.662 63.8886Z" fill="#F2F7FA"/>
<path d="M450.054 191.961C453.175 191.961 455.705 189.431 455.705 186.311C455.705 183.19 453.175 180.66 450.054 180.66C446.933 180.66 444.403 183.19 444.403 186.311C444.403 189.431 446.933 191.961 450.054 191.961Z" fill="#F2F7FA"/>
<path d="M422.2 266.795C425.32 266.795 427.85 264.265 427.85 261.144C427.85 258.023 425.32 255.494 422.2 255.494C419.079 255.494 416.549 258.023 416.549 261.144C416.549 264.265 419.079 266.795 422.2 266.795Z" fill="#F2F7FA"/>
<path d="M495.668 247.165C498.789 247.165 501.319 244.635 501.319 241.514C501.319 238.393 498.789 235.864 495.668 235.864C492.548 235.864 490.018 238.393 490.018 241.514C490.018 244.635 492.548 247.165 495.668 247.165Z" fill="#F2F7FA"/>
<path d="M262.117 181.451L347.722 91.2209L450.053 186.311L345.731 225.058L262.117 181.451Z" stroke="#F2F7FA" stroke-width="2" stroke-linejoin="round"/>
<path d="M421.895 261.318L345.731 225.057L495.668 241.514L421.895 261.318Z" stroke="#F2F7FA" stroke-width="2" stroke-linejoin="round"/>
<path d="M262.117 181.451L450.053 186.311L421.895 261.318" stroke="#F2F7FA" stroke-width="2" stroke-linejoin="round"/>
<path d="M345.731 225.058L347.722 91.221L396.128 5.65076L522.775 58.429L450.054 186.311L495.668 241.514L522.775 58.429L347.722 91.221" stroke="#F2F7FA" stroke-width="2" stroke-linejoin="round"/>
<path d="M450.054 186.311L396.128 5.65076L522.775 58.429" stroke="#F2F7FA" stroke-width="2" stroke-linejoin="round"/>
</g>
<defs>
<clipPath id="clip0_170_8596">
<rect width="529" height="277.288" fill="white"/>
</clipPath>
</defs>
</svg>
