<svg width="250" height="47" viewBox="0 0 250 47" fill="none" xmlns="http://www.w3.org/2000/svg">
<path d="M36.5393 0.0717773L0 46.2259H13.4623L50.0016 0.0717773H36.5393Z" fill="#F5F7F9"/>
<path d="M234.618 19.3013H188.464V7.75872H242.313V0.0717773H86.541L92.6323 7.76682H128.848V46.2259H142.31V7.76682H175.002V46.2259H234.618C242.054 46.2259 250 41.3496 250 32.7636C250 24.1775 242.054 19.3013 234.618 19.3013ZM230.77 38.5308H188.464V26.9882H230.77C233.954 26.9882 238.466 28.7135 238.466 32.7555C238.466 36.7974 233.962 38.5227 230.77 38.5227V38.5308Z" fill="#F5F7F9"/>
<path d="M71.1588 0.0717773H65.3835H57.6965L21.1572 46.2259H34.6195L68.2671 3.7168L86.7028 26.9963H55.7687L61.86 34.6914H92.786L101.923 46.2259H115.385L78.8458 0.0717773H71.1588Z" fill="#F5F7F9"/>
</svg>
