<svg width="40" height="42" viewBox="0 0 40 42" fill="none" xmlns="http://www.w3.org/2000/svg">
<path d="M24.5773 14.1236L30.5359 6.54419H33.6081V19.2181H30.5152V11.5558C30.3773 11.5766 30.2763 11.7589 30.1869 11.8682C28.3716 14.0868 26.6974 16.4975 24.9238 18.7592C24.8012 18.9154 24.6673 19.1053 24.5149 19.2184H21.4838C21.4973 19.1778 21.4424 19.1286 21.4424 19.1148V6.60624L21.5042 6.54419H24.5145L24.5763 6.60624V14.1236H24.5773Z" fill="#0C0C0C"/>
<path d="M15.011 27.1289V25.5758L14.9489 25.5138H9.58822L9.52613 25.5758V32.12L9.58822 32.1821H14.9489L15.011 32.12V30.5667H18.0417L18.1035 30.6287V35.2261L18.0417 35.2885H6.43359V22.4073H18.0417L18.1035 22.4694V27.0668L18.0417 27.1289H15.011Z" fill="#0C0C0C"/>
<path d="M33.6081 22.4073V35.2885H30.577L30.5152 35.2265V25.5761L30.4535 25.5141H24.5773V35.2268L24.5155 35.2888H21.5051L21.4434 35.2268V22.5113C21.4434 22.4977 21.4979 22.4483 21.4848 22.4077H33.6084L33.6081 22.4073Z" fill="#0C0C0C"/>
<path d="M18.1035 6.54419V9.58826L18.0417 9.65031H9.58822L9.52613 9.71267V19.2181H6.43359V6.54419H18.1035Z" fill="#0C0C0C"/>
<path d="M9.44318 0V3.06486H3.11354C3.10633 3.06486 3.01038 3.16123 3.01038 3.16848V9.48464H0V0H9.44318Z" fill="#995757"/>
<path d="M40.0001 0V9.48464H36.9897V3.16848C36.9897 3.16123 36.8938 3.06486 36.8866 3.06486H30.5566V0H39.9998H40.0001Z" fill="#995757"/>
<path d="M3.01037 32.2236V38.5398C3.01037 38.547 3.10633 38.6434 3.11354 38.6434H9.44348V41.667H0V32.2236H3.01037Z" fill="#995757"/>
<path d="M39.9998 32.2236V41.667H30.5566V38.6434H36.8866C36.8938 38.6434 36.9897 38.547 36.9897 38.5398V32.2236H40.0001H39.9998Z" fill="#995757"/>
</svg>
