<svg width="377" height="513" viewBox="0 0 377 513" fill="none" xmlns="http://www.w3.org/2000/svg">
<g clip-path="url(#clip0_149_3970)">
<path d="M235.165 352.266C231.784 349.918 227.14 350.756 224.792 354.137C222.444 357.518 223.281 362.163 226.663 364.511C230.044 366.859 234.689 366.021 237.037 362.64C239.384 359.258 238.547 354.614 235.165 352.266Z" fill="#F2F7FA"/>
<path d="M105.454 341.913C102.073 339.565 97.4286 340.403 95.0806 343.784C92.7327 347.166 93.5704 351.81 96.9517 354.158C100.333 356.506 104.978 355.669 107.326 352.287C109.674 348.906 108.836 344.261 105.454 341.913Z" fill="#F2F7FA"/>
<path d="M390.373 403.889C386.992 401.541 382.348 402.379 380 405.76C377.652 409.141 378.489 413.786 381.871 416.134C385.252 418.482 389.897 417.644 392.245 414.263C394.593 410.881 393.755 406.237 390.373 403.889Z" fill="#F2F7FA"/>
<path d="M97.6371 161.345C94.2558 158.997 89.6112 159.835 87.2633 163.217C84.9153 166.598 85.753 171.242 89.1344 173.59C92.5157 175.938 97.1602 175.101 99.5082 171.719C101.856 168.338 101.018 163.693 97.6371 161.345Z" fill="#F2F7FA"/>
<path d="M291.23 176.589C287.849 174.241 283.204 175.079 280.856 178.46C278.508 181.842 279.346 186.486 282.727 188.834C286.108 191.182 290.753 190.344 293.101 186.963C295.449 183.582 294.611 178.937 291.23 176.589Z" fill="#F2F7FA"/>
<path d="M331.726 91.2478C328.345 88.8998 323.7 89.7376 321.352 93.1189C319.004 96.5003 319.842 101.145 323.223 103.493C326.605 105.841 331.249 105.003 333.597 101.622C335.945 98.2403 335.107 93.5957 331.726 91.2478Z" fill="#F2F7FA"/>
<path d="M386.122 410.012L230.5 358.101L286.979 182.712L391.54 285.739L386.122 410.012Z" stroke="#F2F7FA" stroke-width="2" stroke-linejoin="round"/>
<path d="M392.342 174.468L391.541 285.738L327.475 97.3707L392.342 174.468Z" stroke="#F2F7FA" stroke-width="2" stroke-linejoin="round"/>
<path d="M386.122 410.012L286.978 182.712L392.341 174.468" stroke="#F2F7FA" stroke-width="2" stroke-linejoin="round"/>
<path d="M391.54 285.739L230.5 358.101L101.203 348.036L93.5558 167.223L286.978 182.712L327.474 97.3709L93.5558 167.223L230.5 358.101" stroke="#F2F7FA" stroke-width="2" stroke-linejoin="round"/>
<path d="M286.979 182.712L101.203 348.036L93.5562 167.223" stroke="#F2F7FA" stroke-width="2" stroke-linejoin="round"/>
</g>
<defs>
<clipPath id="clip0_149_3970">
<rect width="393.697" height="349.859" fill="white" transform="translate(324.34 512.054) rotate(-145.225)"/>
</clipPath>
</defs>
</svg>
