<svg width="386" height="336" viewBox="0 0 386 336" fill="none" xmlns="http://www.w3.org/2000/svg">
<g clip-path="url(#clip0_174_10534)">
<path d="M93.2563 160.298C95.8729 158.716 99.2769 159.554 100.859 162.171C102.442 164.787 101.603 168.191 98.9868 169.774C96.3702 171.356 92.9662 170.518 91.3838 167.901C89.8013 165.284 90.6397 161.88 93.2563 160.298Z" fill="#F2F7FA"/>
<path d="M208.936 221.673C211.553 220.09 214.957 220.929 216.539 223.545C218.121 226.162 217.283 229.566 214.667 231.148C212.05 232.731 208.646 231.892 207.063 229.276C205.481 226.659 206.319 223.255 208.936 221.673Z" fill="#F2F7FA"/>
<path d="M305.581 220.067C308.198 218.484 311.602 219.323 313.185 221.94C314.767 224.556 313.929 227.96 311.312 229.543C308.695 231.125 305.291 230.287 303.709 227.67C302.127 225.053 302.965 221.649 305.581 220.067Z" fill="#F2F7FA"/>
<path d="M91.4584 252.681C94.075 251.099 97.4791 251.937 99.0615 254.554C100.644 257.17 99.8056 260.574 97.189 262.157C94.5724 263.739 91.1683 262.901 89.5859 260.284C88.0035 257.668 88.8418 254.264 91.4584 252.681Z" fill="#F2F7FA"/>
<path d="M319.826 86.5694C322.442 84.9869 325.846 85.8253 327.429 88.4419C329.011 91.0586 328.173 94.4626 325.556 96.045C322.94 97.6275 319.536 96.7891 317.953 94.1725C316.371 91.5558 317.209 88.1518 319.826 86.5694Z" fill="#F2F7FA"/>
<path d="M175.593 88.8117C178.21 87.2292 181.614 88.0676 183.196 90.6843C184.779 93.3009 183.94 96.7049 181.324 98.2873C178.707 99.8698 175.303 99.0314 173.721 96.4148C172.138 93.7981 172.977 90.3941 175.593 88.8117Z" fill="#F2F7FA"/>
<path d="M98.1596 77.594C100.776 76.0116 104.18 76.85 105.763 79.4666C107.345 82.0832 106.507 85.4872 103.89 87.0697C101.274 88.6521 97.8695 87.8137 96.2871 85.1971C94.7046 82.5805 95.543 79.1765 98.1596 77.594Z" fill="#F2F7FA"/>
<path d="M149.565 23.6499C152.181 22.0675 155.585 22.9059 157.168 25.5225C158.75 28.1391 157.912 31.5432 155.295 33.1256C152.679 34.708 149.275 33.8696 147.692 31.253C146.11 28.6364 146.948 25.2324 149.565 23.6499Z" fill="#F2F7FA"/>
<path d="M94.3233 257.419L212.122 226.217L178.458 93.5496L96.1213 165.036L94.3233 257.419Z" stroke="#F2F7FA" stroke-width="2" stroke-linejoin="round"/>
<path d="M100.735 82.5081L96.1221 165.036L152.431 28.3877L100.735 82.5081Z" stroke="#F2F7FA" stroke-width="2" stroke-linejoin="round"/>
<path d="M94.3232 257.419L178.458 93.5496L100.734 82.5082" stroke="#F2F7FA" stroke-width="2" stroke-linejoin="round"/>
<path d="M96.1218 165.036L212.123 226.217L308.448 224.805L322.577 91.1177L178.459 93.5496L152.431 28.3878L322.577 91.1177L212.123 226.217" stroke="#F2F7FA" stroke-width="2" stroke-linejoin="round"/>
<path d="M178.459 93.5495L308.448 224.805L322.577 91.1176" stroke="#F2F7FA" stroke-width="2" stroke-linejoin="round"/>
</g>
<defs>
<clipPath id="clip0_174_10534">
<rect width="292.447" height="259.883" fill="white" transform="matrix(0.855689 -0.517491 -0.517491 -0.855689 135.351 335.958)"/>
</clipPath>
</defs>
</svg>
