<svg width="102" height="100" viewBox="0 0 102 100" fill="none" xmlns="http://www.w3.org/2000/svg">
<path d="M73.7559 11.623C64.9751 11.623 57.8281 18.7664 57.8281 27.5508C57.8281 36.3352 64.9715 43.4786 73.7559 43.4786C82.5403 43.4786 89.6837 36.3352 89.6837 27.5508C89.6837 18.7664 82.5403 11.623 73.7559 11.623ZM81.9218 27.5508C81.9218 23.0496 78.2572 19.3849 73.7559 19.3849V17.9763C79.0366 17.9763 83.3305 22.2737 83.3305 27.5508H81.9218Z" fill="#C82121"/>
<path d="M49.0932 20.2823C48.4461 22.5777 48.1172 24.9445 48.1172 27.3184C48.1172 36.2173 52.6077 44.3867 60.1301 49.1776C63.2406 51.1583 66.6585 52.4311 70.2838 52.9531C72.7829 53.3142 75.2642 53.3142 77.7633 52.9531C80.1551 52.6063 82.4898 51.9234 84.7064 50.9187C93.9556 46.725 99.9299 37.4615 99.9299 27.3184C99.9299 13.0317 88.3067 1.41211 74.0235 1.41211C69.0825 1.41211 64.281 2.81003 60.1301 5.45573C54.735 8.89513 50.8165 14.1579 49.0932 20.2823ZM73.7518 44.8908C64.1916 44.8908 56.4154 37.1111 56.4154 27.5508C56.4154 17.9906 64.1916 10.2144 73.7518 10.2144C83.3121 10.2144 91.0883 17.9906 91.0883 27.5508C91.0883 37.1111 83.3121 44.8908 73.7518 44.8908Z" fill="#005792" fill-opacity="0.2"/>
<path d="M29.4352 19.3887H20.9297V27.8942H29.4352V19.3887ZM28.023 26.482H22.3383V20.7973H28.023V26.482Z" fill="#005792"/>
<path d="M44.5602 19.3887H36.0547V27.8942H44.5602V19.3887ZM43.148 26.482H37.4633V20.7973H43.148V26.482Z" fill="#005792"/>
<path d="M44.5602 34.1543H36.0547V42.6598H44.5602V34.1543ZM43.148 41.2476H37.4633V35.5629H43.148V41.2476Z" fill="#005792"/>
<path d="M25.1797 36.4611H28.022V43.5794H29.4342V35.0488H25.1797V36.4611Z" fill="#005792"/>
<path d="M73.7505 10.2148C64.1902 10.2148 56.4141 17.991 56.4141 27.5513C56.4141 37.1115 64.1902 44.8913 73.7505 44.8913C83.3107 44.8913 91.0869 37.1115 91.0869 27.5513C91.0869 17.991 83.3107 10.2148 73.7505 10.2148ZM73.7505 43.4791C64.9697 43.4791 57.8227 36.3357 57.8227 27.5513C57.8227 18.7669 64.9661 11.6235 73.7505 11.6235C82.5349 11.6235 89.6783 18.7669 89.6783 27.5513C89.6783 36.3357 82.5349 43.4791 73.7505 43.4791Z" fill="#005792"/>
<path d="M73.7578 17.9766V19.3852C78.2591 19.3852 81.9237 23.0498 81.9237 27.5511H83.3324C83.3324 22.2704 79.0349 17.9766 73.7578 17.9766Z" fill="white"/>
<path d="M78.5751 63.6641H67.8672V92.141C67.8672 95.5375 70.6309 98.3048 74.0309 98.3048C77.431 98.3048 80.1947 95.5411 80.1947 92.141V63.6641H78.5787H78.5751ZM75.032 94.8117H73.0227V92.8024H75.032V94.8117Z" fill="#005792" fill-opacity="0.2"/>
<path d="M101.348 27.3186C101.348 12.256 89.0919 0 74.0294 0C69.2457 0 64.5799 1.24778 60.4612 3.6146V1.65177H26.6393L13.7719 14.6586V19.3886H4.72292C2.12013 19.3886 0 21.5088 0 24.1115V69.4923C0 72.0951 2.12013 74.2152 4.72292 74.2152H21.6375V82.0522H16.1995V83.4609H58.6879V82.0522H53.3679V74.2152H66.457V92.1452C66.457 96.3211 69.8534 99.7176 74.0294 99.7176C78.2053 99.7176 81.6018 96.3211 81.6018 92.1452V74.1723C83.915 73.8684 85.7062 71.8913 85.7062 69.4959V52.0129C95.2199 47.5081 101.344 37.8691 101.344 27.3257L101.348 27.3186ZM49.0955 20.2825C50.8188 14.158 54.7408 8.89167 60.1323 5.45585C64.2832 2.81016 69.0883 1.41223 74.0258 1.41223C88.3125 1.41223 99.9321 13.0354 99.9321 27.3186C99.9321 37.4616 93.9579 46.7251 84.7087 50.9189C82.492 51.9235 80.1574 52.6064 77.7655 52.9532C75.2664 53.3143 72.7852 53.3143 70.2861 52.9532C66.6607 52.4276 63.2428 51.1584 60.1323 49.1777C52.61 44.3869 48.1194 36.2174 48.1194 27.3186C48.1194 24.9482 48.4484 22.5814 49.0955 20.2825ZM80.1931 92.1416C80.1931 95.5381 77.4294 98.3053 74.0294 98.3053C70.6293 98.3053 67.8656 95.5417 67.8656 92.1416V63.6646H80.1895V92.1416H80.1931ZM77.1649 62.256H70.8939V54.4548C72.9961 54.6979 75.0662 54.6979 77.1649 54.4548V62.256ZM26.2281 4.07223V14.4548H15.9564L26.2281 4.07223ZM15.1841 15.867H27.6403V3.064H59.0526V4.47981C58.931 4.56204 58.813 4.64785 58.6915 4.73008C58.5199 4.84449 58.3518 4.96247 58.1838 5.08045C58.0122 5.20201 57.8477 5.32714 57.6797 5.45227C57.5152 5.5774 57.3508 5.69898 57.1863 5.82411C57.0218 5.95282 56.861 6.0851 56.7036 6.21738C56.5463 6.34609 56.3854 6.47479 56.2317 6.61065C56.0744 6.74651 55.9207 6.88596 55.7669 7.02539C55.6168 7.16125 55.463 7.29712 55.3164 7.43656C55.1663 7.57957 55.0197 7.72614 54.8731 7.86915C54.7265 8.01216 54.5799 8.15517 54.4405 8.29818C54.2975 8.44477 54.1581 8.59851 54.015 8.74867C53.8756 8.89883 53.7362 9.04542 53.6039 9.19558C53.4645 9.34931 53.3322 9.5102 53.1999 9.66751C53.0712 9.82125 52.9389 9.97498 52.8102 10.1287C52.6779 10.2896 52.5528 10.4576 52.4276 10.6221C52.3061 10.7794 52.1809 10.9367 52.0594 11.1012C51.9342 11.2692 51.8163 11.4408 51.6983 11.6125C51.5839 11.7769 51.4659 11.9378 51.3551 12.1058C51.2371 12.281 51.1262 12.4598 51.0118 12.6386C50.9046 12.8066 50.7973 12.971 50.6936 13.1391C50.5828 13.3214 50.4791 13.5073 50.3719 13.6933C50.2753 13.8613 50.1716 14.0293 50.0787 14.2045C49.975 14.394 49.8785 14.5906 49.7784 14.7837C49.689 14.9553 49.5996 15.1234 49.5138 15.295C49.4137 15.4952 49.3243 15.7025 49.2313 15.9063C49.1527 16.0744 49.0705 16.2424 48.999 16.414C48.906 16.6285 48.8202 16.8502 48.7308 17.0683C48.6665 17.2327 48.595 17.3901 48.5306 17.5545C48.4341 17.8048 48.3483 18.0586 48.2589 18.3089C48.2124 18.4448 48.1588 18.5806 48.1123 18.7201C47.9836 19.1134 47.862 19.5102 47.7476 19.907C47.0647 22.3275 46.7179 24.823 46.7179 27.3257C46.7179 27.6153 46.7215 27.9085 46.7322 28.1981C46.7322 28.2946 46.743 28.3876 46.7465 28.4841C46.7537 28.6772 46.7608 28.8702 46.7751 29.0633C46.7823 29.1777 46.793 29.2885 46.8002 29.4029C46.8145 29.5781 46.8252 29.7497 46.8395 29.9249C46.8502 30.0501 46.8681 30.1752 46.8824 30.3039C46.9003 30.4612 46.9146 30.6221 46.936 30.7794C46.9539 30.9081 46.9718 31.0404 46.9897 31.1691C47.0111 31.3228 47.0326 31.4766 47.054 31.6268C47.0755 31.759 47.1005 31.8913 47.1219 32.0236C47.147 32.1702 47.172 32.3203 47.2006 32.4669C47.2256 32.5992 47.2542 32.7351 47.2828 32.8674C47.3114 33.0104 47.34 33.157 47.3722 33.3C47.4008 33.4323 47.4366 33.5645 47.4652 33.7004C47.5009 33.8434 47.5331 33.9864 47.5689 34.1259C47.6046 34.2581 47.6404 34.3904 47.6761 34.5227C47.7154 34.6621 47.7512 34.8051 47.7905 34.9446C47.8298 35.0769 47.8692 35.2092 47.9121 35.3379C47.955 35.4773 47.9943 35.6132 48.0408 35.7526C48.0837 35.8849 48.1302 36.0136 48.1731 36.1459C48.2196 36.2817 48.2624 36.4176 48.3125 36.5534C48.359 36.6857 48.409 36.8145 48.4591 36.9467C48.5091 37.079 48.5556 37.2113 48.6093 37.3436C48.6593 37.4759 48.7165 37.6046 48.7701 37.7333C48.8238 37.862 48.8774 37.9943 48.931 38.123C48.9882 38.2517 49.0454 38.3804 49.1026 38.5091C49.1598 38.6378 49.217 38.763 49.2743 38.8917C49.335 39.0204 49.3958 39.1455 49.4566 39.2707C49.5174 39.3958 49.5781 39.5245 49.6425 39.6461C49.7069 39.7712 49.7712 39.8963 49.8391 40.0215C49.9035 40.1466 49.9678 40.2682 50.0358 40.3897C50.1037 40.5148 50.1716 40.6364 50.2431 40.758C50.3111 40.8795 50.379 41.0011 50.4505 41.1226C50.522 41.2442 50.5971 41.3658 50.6686 41.4873C50.7401 41.6053 50.8116 41.7233 50.8867 41.8413C50.9618 41.9628 51.0404 42.0808 51.1191 42.1988C51.1942 42.3132 51.2692 42.4312 51.3479 42.5456C51.4266 42.6636 51.5088 42.7816 51.591 42.896C51.6697 43.0104 51.7483 43.1248 51.8306 43.2356C51.9128 43.35 51.9986 43.4644 52.0844 43.5788C52.1666 43.6897 52.2489 43.8005 52.3347 43.9113C52.4205 44.0257 52.5099 44.1366 52.5992 44.2474C52.685 44.3582 52.7709 44.4655 52.8602 44.5728C52.9496 44.6836 53.0426 44.7909 53.1355 44.9017C53.2249 45.0089 53.3143 45.1162 53.4072 45.2199C53.5002 45.3271 53.5967 45.4344 53.6933 45.5417C53.7862 45.6453 53.8792 45.749 53.9757 45.8527C54.0722 45.9564 54.1724 46.0601 54.2689 46.1637C54.3654 46.2639 54.462 46.3675 54.5621 46.4677C54.6622 46.5678 54.7659 46.6714 54.866 46.7715C54.9661 46.8717 55.0662 46.9682 55.1698 47.0647C55.2735 47.1648 55.3808 47.2614 55.4845 47.3579C55.5882 47.4544 55.6918 47.5509 55.7991 47.6439C55.9064 47.7404 56.0136 47.8334 56.1245 47.9299C56.2317 48.0229 56.339 48.1158 56.4462 48.2052C56.5571 48.2982 56.6679 48.3911 56.7823 48.4805C56.8931 48.5699 57.0004 48.6593 57.1148 48.7451C57.2292 48.8345 57.3436 48.9239 57.4616 49.0132C57.576 49.099 57.6868 49.1848 57.8012 49.2706C57.9192 49.3565 58.0372 49.4423 58.1552 49.5281C58.2732 49.6103 58.3876 49.6961 58.5091 49.7748C58.6307 49.857 58.7523 49.9392 58.8738 50.0215C58.9418 50.0679 59.0061 50.1144 59.074 50.1573V54.6514H15.2056V15.867H15.1841ZM4.72292 20.7973H13.7719V56.0601H60.4612V51.0225C60.4898 51.0404 60.522 51.0547 60.5506 51.069C60.6686 51.1369 60.7866 51.1977 60.9046 51.2621C61.1799 51.4158 61.4587 51.5624 61.7376 51.7054C61.8806 51.7769 62.0272 51.8484 62.1738 51.9199C62.4348 52.0451 62.6958 52.1702 62.9603 52.2846C63.1105 52.3525 63.2607 52.4169 63.4144 52.4812C63.6861 52.5956 63.9614 52.7065 64.2367 52.8102C64.3797 52.8638 64.5192 52.921 64.6622 52.9746C64.9947 53.0962 65.3307 53.2106 65.6668 53.3178C65.7526 53.3464 65.8384 53.375 65.9242 53.4036C66.3461 53.5359 66.7751 53.6575 67.2042 53.7647C67.315 53.7934 67.4294 53.8184 67.5438 53.8434C67.862 53.9221 68.1838 53.9971 68.5091 54.0615C68.6665 54.0937 68.8202 54.1223 68.9775 54.1509C69.1491 54.1831 69.3172 54.2188 69.4888 54.2474V62.2453H66.4605V63.9721H1.41581V24.1008C1.41581 22.2739 2.90311 20.7901 4.7265 20.7901L4.72292 20.7973ZM51.9557 82.0522H23.0461V74.2152H51.9557V82.0522ZM4.72292 72.803C2.89596 72.803 1.41223 71.3193 1.41223 69.4923V65.3915H66.457V72.803H4.72292ZM84.2975 69.4923C84.2975 71.1083 83.1356 72.4562 81.6018 72.7458V62.256H78.5735V54.2581C78.6164 54.251 78.6557 54.2403 78.6986 54.2331C79.1205 54.1616 79.5424 54.0794 79.9643 53.9864C80.0429 53.9685 80.118 53.9507 80.1931 53.9328C80.5685 53.847 80.9403 53.7505 81.3122 53.6468C81.3944 53.6253 81.4766 53.6039 81.5553 53.5788C81.9736 53.4609 82.3847 53.3286 82.7959 53.1891C82.8817 53.1605 82.9675 53.1284 83.0533 53.0998C83.4323 52.9675 83.8077 52.828 84.1795 52.6779C84.2188 52.6636 84.2546 52.6493 84.2939 52.635V69.4959L84.2975 69.4923Z" fill="#005792"/>
<path d="M70.8906 54.4551V62.2563H77.1616V54.4551C75.0594 54.6982 72.9893 54.6982 70.8906 54.4551Z" fill="#005792" fill-opacity="0.2"/>
<path d="M75.0327 92.8066H73.0234V94.8159H75.0327V92.8066Z" fill="#005792"/>
</svg>
