<svg width="112" height="21" viewBox="0 0 112 21" fill="none" xmlns="http://www.w3.org/2000/svg">
<path d="M16.3695 0.161499L0 20.8385H6.03106L22.4006 0.161499H16.3695Z" fill="#005792"/>
<path d="M105.109 8.77633H84.4316V3.60525H108.556V0.161499H38.7705L41.4994 3.60888H57.7237V20.8385H63.7548V3.60888H78.4006V20.8385H105.109C108.44 20.8385 112 18.654 112 14.8074C112 10.9609 108.44 8.77633 105.109 8.77633ZM103.385 17.3912H84.4316V12.2201H103.385C104.811 12.2201 106.832 12.993 106.832 14.8038C106.832 16.6146 104.815 17.3875 103.385 17.3875V17.3912Z" fill="#005792"/>
<path d="M31.8771 0.161499H29.2898H25.8461L9.47656 20.8385H15.5076L30.5816 1.79447L38.8408 12.2237H24.9824L27.7113 15.6711H41.566L45.6593 20.8385H51.6903L35.3208 0.161499H31.8771Z" fill="#005792"/>
</svg>
