<svg width="155" height="155" viewBox="0 0 155 155" fill="none" xmlns="http://www.w3.org/2000/svg">
<rect width="154.256" height="154.561" fill="#F5F7F9"/>
<g clip-path="url(#clip0_7209_1837)">
<path d="M137.952 119.757C137.324 118.937 130.801 112.218 124.43 105.81H131.912C132.262 105.81 132.547 105.525 132.547 105.175C132.547 104.826 132.262 104.54 131.912 104.54H123.166C122.15 103.524 121.153 102.527 120.194 101.574V93.4519H131.919C132.268 93.4519 132.554 93.1661 132.554 92.8168C132.554 92.4675 132.268 92.1817 131.919 92.1817H120.194V81.0933H131.919C132.268 81.0933 132.554 80.8075 132.554 80.4582C132.554 80.1089 132.268 79.8231 131.919 79.8231H120.194V68.7347H131.919C132.268 68.7347 132.554 68.4489 132.554 68.0996C132.554 67.7503 132.268 67.4646 131.919 67.4646H120.194V56.3761H131.919C132.268 56.3761 132.554 56.0904 132.554 55.7411C132.554 55.3918 132.268 55.106 131.919 55.106H120.194V44.0176H131.919C132.268 44.0176 132.554 43.7318 132.554 43.3825C132.554 43.0332 132.268 42.7474 131.919 42.7474H120.194V40.9819C120.194 40.8168 120.13 40.658 120.01 40.5373L108.698 29.0107C108.577 28.8901 108.412 28.8202 108.247 28.8202H105.821V16.6839C105.821 16.3346 105.535 16.0488 105.186 16.0488C104.836 16.0488 104.551 16.3346 104.551 16.6839V28.8329H93.4484V16.6839C93.4484 16.3346 93.1626 16.0488 92.8133 16.0488C92.464 16.0488 92.1782 16.3346 92.1782 16.6839V28.8329H81.0951V16.6839C81.0951 16.3346 80.8092 16.0488 80.4599 16.0488C80.1106 16.0488 79.8248 16.3346 79.8248 16.6839V28.8329H68.7417V16.6839C68.7417 16.3346 68.4559 16.0488 68.1065 16.0488C67.7572 16.0488 67.4714 16.3346 67.4714 16.6839V28.8329H56.3883V16.6839C56.3883 16.3346 56.1025 16.0488 55.7532 16.0488C55.4038 16.0488 55.118 16.3346 55.118 16.6839V28.8329H44.0413V16.6839C44.0413 16.3346 43.7555 16.0488 43.4061 16.0488C43.0568 16.0488 42.771 16.3346 42.771 16.6839V28.8329H40.5544C40.3892 28.8329 40.2241 28.8964 40.1098 29.0171L28.4487 40.5437C28.328 40.6644 28.2582 40.8231 28.2582 40.9946V42.7601H16.5336C16.1842 42.7538 15.8984 43.0395 15.8984 43.3888C15.8984 43.7381 16.1842 44.0239 16.5336 44.0239H28.2582V55.1123H16.5336C16.1842 55.1187 15.8984 55.3981 15.8984 55.7538C15.8984 56.1094 16.1842 56.3888 16.5336 56.3888H28.2582V67.4773H16.5336C16.1842 67.4773 15.8984 67.7631 15.8984 68.1123C15.8984 68.4616 16.1842 68.7474 16.5336 68.7474H28.2582V79.8358H16.5336C16.1842 79.8358 15.8984 80.1216 15.8984 80.4709C15.8984 80.8202 16.1842 81.106 16.5336 81.106H28.2582V92.1944H16.5336C16.1842 92.1944 15.8984 92.4802 15.8984 92.8295C15.8984 93.1788 16.1842 93.4646 16.5336 93.4646H28.2582V104.553H16.5336C16.1842 104.559 15.8984 104.839 15.8984 105.194C15.8984 105.55 16.1842 105.829 16.5336 105.829H28.2582V107.678C28.2582 107.843 28.3217 108.008 28.4424 108.122L40.3892 120.208C40.5099 120.328 40.6687 120.398 40.8402 120.398H42.7774V132.547C42.7774 132.896 43.0632 133.182 43.4125 133.182C43.7618 133.182 44.0476 132.896 44.0476 132.547V120.398H55.1371V132.547C55.1371 132.896 55.4229 133.182 55.7722 133.182C56.1215 133.182 56.4074 132.896 56.4074 132.547V120.398H67.4905V132.547C67.4905 132.896 67.7763 133.182 68.1256 133.182C68.4749 133.182 68.7607 132.896 68.7607 132.547V120.398H79.8438V132.547C79.8438 132.896 80.1297 133.182 80.479 133.182C80.8283 133.182 81.1141 132.896 81.1141 132.547V120.398H92.1972V132.547C92.1972 132.896 92.483 133.182 92.8324 133.182C93.1817 133.182 93.4675 132.896 93.4675 132.547V120.398H101.54C102.512 121.382 103.522 122.399 104.551 123.427V132.547C104.551 132.896 104.836 133.182 105.186 133.182C105.535 133.182 105.821 132.896 105.821 132.547V124.698C111.207 130.058 116.656 135.31 118.289 136.574C120.588 138.358 122.671 138.955 124.43 138.955C125.777 138.955 126.939 138.606 127.86 138.161C130.02 137.132 136.752 130.54 138.003 128.222C139.312 125.809 139.648 121.986 137.952 119.763V119.757ZM41.1006 119.128L29.5221 107.417V41.2613L40.8084 30.1031H107.974L118.917 41.255V100.323C115.316 96.767 112.483 94.0615 111.918 93.7503V44.4431C111.918 44.2716 111.848 44.1065 111.728 43.9858L104.246 36.7078C104.125 36.5935 103.966 36.53 103.801 36.53H44.1048C43.9333 36.53 43.7682 36.5999 43.6475 36.7269L36.6864 44.0049C36.5721 44.1255 36.5086 44.2779 36.5086 44.4431V104.407C36.5086 104.572 36.5721 104.724 36.6864 104.845L43.368 111.844C43.4887 111.971 43.6538 112.041 43.8253 112.041H93.6326C94.4456 113.069 97.0433 115.813 100.289 119.128H41.1006ZM108.018 93.6614C107.091 93.9599 106.494 94.1314 105.834 93.7948C105.046 93.3947 103.312 91.6991 102.347 90.702C103.312 89.6605 103.833 89.0254 104.049 88.6253C104.424 87.9394 104.405 86.955 104.004 85.9326C103.471 84.5862 102.442 83.5447 101.242 83.1446C99.3742 82.5222 98.0341 82.6048 96.8845 83.4177C95.8429 84.1544 93.9438 86.0913 93.0737 86.9995C83.7436 77.4352 66.741 60.0024 66.2774 59.469C66.1313 59.2276 65.9471 58.0527 65.8137 57.1954C65.4072 54.617 65.077 52.8832 64.2322 52.318C63.4002 51.7655 55.0228 47.0977 53.4794 47.0977C52.279 47.0977 46.9248 51.4861 46.9248 53.1881C46.9248 54.5217 51.0722 62.5046 51.3072 62.9238C51.3707 63.0317 51.4279 63.146 51.4914 63.2604C52.0313 64.2701 52.7744 65.6482 55.1942 65.9404C55.9501 66.0293 56.636 66.061 57.2394 66.0864C58.5414 66.1373 59.4814 66.1754 60.3134 66.7596C61.3106 67.4582 76.5856 82.7445 86.9002 93.1407C86.3667 93.6551 85.9348 94.0742 85.7061 94.2775L85.4838 94.4743C84.258 95.5794 82.5813 97.0908 82.5813 98.869C82.5813 101.549 83.8325 103.302 86.0237 103.689C86.3032 103.74 86.5826 103.759 86.8494 103.759C88.5261 103.759 89.9234 102.895 90.6094 102.394C91.3969 103.073 93.1563 104.712 93.6136 106.128C93.8232 106.763 93.6199 107.506 93.4103 108.287C93.2007 109.056 92.9721 109.907 93.1055 110.777H44.0984L37.7852 104.159V44.6971L44.3779 37.7938H103.547L110.648 44.7098V93.2994C109.644 93.1343 108.762 93.4138 108.012 93.6551L108.018 93.6614ZM87.8021 92.2389C83.7118 88.1172 62.403 66.6644 61.0375 65.7054C59.9069 64.9116 58.6938 64.8608 57.2902 64.8036C56.6805 64.7782 56.0517 64.7528 55.3467 64.6702C53.581 64.4543 53.1301 63.616 52.6092 62.6507C52.5457 62.53 52.4759 62.403 52.4124 62.2887C51.593 60.8471 48.2522 54.0645 48.1951 53.1881C48.2967 52.2545 52.5902 48.533 53.4794 48.3615C54.5147 48.3996 62.2188 52.4895 63.5272 53.3659C63.9782 53.6771 64.3719 56.1793 64.5561 57.3859C64.8165 59.0562 64.9563 59.8818 65.2929 60.2692C65.8328 60.9042 88.6087 84.2433 92.1845 87.9076C91.3271 88.7587 89.3836 90.6956 87.8084 92.2452L87.8021 92.2389ZM136.885 127.613C135.761 129.683 129.232 136.097 127.307 137.012C125.504 137.869 122.607 138.32 119.057 135.564C116.879 133.874 108.628 125.765 102.283 119.325C102.277 119.318 102.27 119.306 102.258 119.299C98.1548 115.133 94.8457 111.672 94.5155 111.126C94.1471 110.358 94.3694 109.545 94.6234 108.605C94.8711 107.678 95.1315 106.719 94.8076 105.722C94.2741 104.083 92.4767 102.343 91.5557 101.53L94.9473 98.3229C95.2014 98.0816 95.2141 97.6815 94.9728 97.4274C94.7314 97.1734 94.3313 97.1607 94.0772 97.402L90.1711 101.092C90.1521 101.111 88.3038 102.787 86.2333 102.425C84.258 102.076 83.8452 100.292 83.8452 98.8564C83.8452 97.637 85.2806 96.3478 86.3286 95.4015L86.5509 95.1983C86.8557 94.9252 87.4845 94.3156 88.2403 93.5789C90.3045 91.5593 93.3468 88.53 93.5183 88.3522C93.5183 88.3522 93.5183 88.3459 93.5247 88.3395C93.5247 88.3395 93.531 88.3395 93.531 88.3332C93.5564 88.3014 96.3574 85.3165 97.6022 84.4401C98.1929 84.021 98.9932 83.7225 100.829 84.3322C101.826 84.6624 102.505 85.6087 102.81 86.3835C103.064 87.0249 103.109 87.66 102.925 88.0029C102.652 88.5046 101.407 89.8256 101 90.2574C99.3679 91.9912 97.3926 93.8647 97.3736 93.8837C97.1195 94.125 97.1068 94.5251 97.3482 94.7792C97.4752 94.9125 97.6403 94.976 97.8118 94.976C97.9706 94.976 98.1294 94.9189 98.2501 94.8046C98.2691 94.7855 99.9205 93.2169 101.47 91.6101C102.359 92.5247 104.239 94.3918 105.249 94.9062C106.412 95.5032 107.504 95.2301 108.406 94.8554C110.26 94.0806 111.143 94.7728 111.378 94.8998C112.039 95.3761 115.195 98.4182 119.095 102.267L119.108 102.279C126.24 109.322 135.799 119.026 136.936 120.512C138.302 122.303 137.971 125.587 136.885 127.594V127.613Z" fill="#005792"/>
<path d="M102.761 107.303C102.513 107.055 102.113 107.055 101.865 107.303C101.618 107.551 101.618 107.951 101.865 108.198L123.86 130.115C123.987 130.242 124.146 130.299 124.311 130.299C124.476 130.299 124.635 130.236 124.762 130.115C125.01 129.867 125.01 129.467 124.762 129.219L102.767 107.303H102.761Z" fill="#005792"/>
<path d="M108.374 101.498C108.127 101.251 107.726 101.251 107.479 101.498C107.231 101.746 107.231 102.146 107.479 102.394L129.473 124.31C129.601 124.437 129.759 124.494 129.924 124.494C130.09 124.494 130.248 124.431 130.375 124.31C130.623 124.063 130.623 123.662 130.375 123.415L108.381 101.498H108.374Z" fill="#005792"/>
</g>
<defs>
<clipPath id="clip0_7209_1837">
<rect width="123.216" height="123.205" fill="white" transform="translate(15.8984 15.8965)"/>
</clipPath>
</defs>
</svg>
