<svg width="24" height="24" viewBox="0 0 24 24" fill="none" xmlns="http://www.w3.org/2000/svg">
<g clip-path="url(#clip0_2386_3733)">
<path d="M12 24C5.384 24 0 18.616 0 12C0 5.384 5.384 0 12 0C18.616 0 24 5.384 24 12C24 18.616 18.616 24 12 24ZM12 0.8C5.824 0.8 0.8 5.824 0.8 12C0.8 18.176 5.824 23.2 12 23.2C18.176 23.2 23.2 18.176 23.2 12C23.2 5.824 18.176 0.8 12 0.8Z" fill="#0C0C0C"/>
<path d="M11.9999 21.6639C6.67194 21.6639 2.33594 17.3279 2.33594 11.9999C2.33594 6.67194 6.67194 2.33594 11.9999 2.33594C17.3279 2.33594 21.6639 6.67194 21.6639 11.9999C21.6639 17.3279 17.3279 21.6639 11.9999 21.6639ZM11.9999 3.13594C7.11194 3.13594 3.13594 7.11194 3.13594 11.9999C3.13594 16.8879 7.11194 20.8639 11.9999 20.8639C16.8879 20.8639 20.8639 16.8879 20.8639 11.9999C20.8639 7.11194 16.8879 3.13594 11.9999 3.13594Z" fill="#0C0C0C"/>
<path d="M8.28794 10.1439C8.08794 9.92787 7.85594 9.75987 7.57594 9.63987C7.30394 9.51987 6.99994 9.46387 6.67194 9.46387C6.34394 9.46387 6.03994 9.51987 5.76794 9.63987C5.49594 9.75187 5.25594 9.92787 5.06394 10.1439C4.86394 10.3599 4.71194 10.6319 4.59994 10.9439C4.48794 11.2559 4.43994 11.6079 4.43994 11.9999V12.2079C4.43994 12.5999 4.49594 12.9519 4.59994 13.2639C4.71194 13.5759 4.86394 13.8399 5.06394 14.0559C5.26394 14.2719 5.50394 14.4399 5.77594 14.5599C6.04794 14.6799 6.35194 14.7359 6.67994 14.7359C7.00794 14.7359 7.31194 14.6799 7.58394 14.5599C7.85594 14.4479 8.08794 14.2799 8.28794 14.0559C8.48794 13.8319 8.63994 13.5679 8.75194 13.2639C8.86394 12.9519 8.91994 12.5999 8.91994 12.2079V11.9999C8.91994 11.6079 8.86394 11.2559 8.75194 10.9439C8.63994 10.6319 8.48794 10.3679 8.28794 10.1439ZM7.66394 12.2079C7.66394 12.4559 7.63994 12.6799 7.59994 12.8719C7.55994 13.0639 7.49594 13.2319 7.40794 13.3599C7.32794 13.4959 7.22394 13.5919 7.10394 13.6639C6.98394 13.7359 6.83994 13.7679 6.68794 13.7679C6.53594 13.7679 6.37594 13.7359 6.25594 13.6639C6.13594 13.5919 6.03194 13.4959 5.94394 13.3599C5.86394 13.2239 5.79994 13.0639 5.75994 12.8719C5.71994 12.6799 5.69594 12.4559 5.69594 12.2079V11.9919C5.69594 11.7359 5.71994 11.5119 5.75994 11.3199C5.79994 11.1279 5.86394 10.9599 5.94394 10.8319C6.02394 10.7039 6.12794 10.5999 6.24794 10.5359C6.36794 10.4719 6.51194 10.4319 6.67994 10.4319C6.84794 10.4319 6.97594 10.4639 7.10394 10.5359C7.22394 10.5999 7.32794 10.7039 7.41594 10.8319C7.50394 10.9599 7.56794 11.1279 7.60794 11.3199C7.64794 11.5119 7.67194 11.7359 7.67194 11.9919V12.2079H7.66394Z" fill="#0C0C0C"/>
<path d="M10.4961 9.53564H9.7041V14.6636H10.4961H10.9361H13.2321V13.7116H10.9361V12.4876H12.8801V11.5676H10.9361V10.4876H13.2401V9.53564H10.9361H10.4961Z" fill="#0C0C0C"/>
<path d="M18.7999 9.53564H18.3679H17.7919L16.6479 13.1036L15.5039 9.53564H14.9279H14.4959H13.8799V14.6636H15.1199V13.4636L14.9999 11.0156L16.2399 14.6636H17.0559L18.2959 11.0156L18.1759 13.4636V14.6636H19.4159V9.53564H18.7999Z" fill="#0C0C0C"/>
</g>
<defs>
<clipPath id="clip0_2386_3733">
<rect width="24" height="24" fill="white"/>
</clipPath>
</defs>
</svg>
