<svg width="24" height="24" viewBox="0 0 24 24" fill="none" xmlns="http://www.w3.org/2000/svg">
<g clip-path="url(#clip0_2386_3661)">
<path d="M23.6 15.144H21.08V8.856H23.6C23.824 8.856 24 8.68 24 8.456C24 8.232 23.824 8.056 23.6 8.056H21.08V4.208C21.08 3.504 20.504 2.928 19.8 2.928H15.944V0.4C15.944 0.176 15.768 0 15.544 0C15.32 0 15.144 0.176 15.144 0.4V2.92H8.856V0.4C8.856 0.176 8.68 0 8.456 0C8.232 0 8.056 0.176 8.056 0.4V2.92H4.216C3.512 2.92 2.936 3.496 2.936 4.2V8.048H0.4C0.176 8.048 0 8.224 0 8.448C0 8.672 0.176 8.848 0.4 8.848H2.92V15.136H0.4C0.176 15.136 0 15.312 0 15.536C0 15.76 0.176 15.936 0.4 15.936H2.92V19.784C2.92 20.488 3.496 21.064 4.2 21.064H8.04V23.584C8.04 23.808 8.216 23.984 8.44 23.984C8.664 23.984 8.84 23.808 8.84 23.584V21.064H15.128V23.584C15.128 23.808 15.304 23.984 15.528 23.984C15.752 23.984 15.928 23.808 15.928 23.584V21.064H19.784C20.488 21.064 21.064 20.488 21.064 19.784V15.936H23.584C23.808 15.936 23.984 15.76 23.984 15.536C23.984 15.312 23.808 15.136 23.584 15.136L23.6 15.144ZM20.28 19.792C20.28 20.056 20.064 20.272 19.8 20.272H4.208C3.944 20.272 3.728 20.056 3.728 19.792V4.208C3.728 3.944 3.944 3.728 4.208 3.728H19.8C20.064 3.728 20.28 3.944 20.28 4.208V19.8V19.792Z" fill="#0C0C0C"/>
<path d="M18.8802 4.71997H5.12021C4.89621 4.71997 4.72021 4.89597 4.72021 5.11997V18.872C4.72021 19.096 4.89621 19.272 5.12021 19.272H18.8722C19.0962 19.272 19.2722 19.096 19.2722 18.872V5.11997C19.2722 4.89597 19.0962 4.71997 18.8722 4.71997H18.8802ZM13.2802 8.95997H18.4802V11.6H13.2802V8.95997ZM18.4722 8.15997H13.2722V5.51997H18.4722V8.15997ZM12.4722 5.52797V11.6H5.52821V5.52797H12.4802H12.4722ZM9.81622 15.144H5.52021V12.4H9.81622V15.144ZM5.52821 15.944H9.82421V18.472H5.52821V15.944ZM10.6162 18.472V12.4H18.4722V18.472H10.6162Z" fill="#0C0C0C"/>
</g>
<defs>
<clipPath id="clip0_2386_3661">
<rect width="24" height="24" fill="white"/>
</clipPath>
</defs>
</svg>
