<svg width="24" height="24" viewBox="0 0 24 24" fill="none" xmlns="http://www.w3.org/2000/svg">
<g clip-path="url(#clip0_2386_3683)">
<path d="M6.06392 16.168H3.16792C2.97592 16.168 2.81592 15.992 2.81592 15.768V4.87998C2.81592 4.66398 2.97592 4.47998 3.16792 4.47998H6.06392C6.25592 4.47998 6.41592 4.65598 6.41592 4.87998V15.776C6.41592 15.992 6.25592 16.176 6.06392 16.176V16.168ZM3.51192 15.376H5.70392V5.27998H3.51192V15.376Z" fill="#0C0C0C"/>
<path d="M10.9921 16.168H8.09614C7.90414 16.168 7.74414 15.992 7.74414 15.768V4.87998C7.74414 4.66398 7.90414 4.47998 8.09614 4.47998H10.9921C11.1841 4.47998 11.3441 4.65598 11.3441 4.87998V15.776C11.3441 15.992 11.1841 16.176 10.9921 16.176V16.168ZM8.44814 15.376H10.6401V5.27998H8.44814V15.376Z" fill="#0C0C0C"/>
<path d="M15.9282 16.168H13.0322C12.8402 16.168 12.6802 15.992 12.6802 15.768V4.87998C12.6802 4.66398 12.8402 4.47998 13.0322 4.47998H15.9282C16.1202 4.47998 16.2802 4.65598 16.2802 4.87998V15.776C16.2802 15.992 16.1202 16.176 15.9282 16.176V16.168ZM13.3842 15.376H15.5762V5.27998H13.3842V15.376Z" fill="#0C0C0C"/>
<path d="M20.8642 16.168H17.9682C17.7762 16.168 17.6162 15.992 17.6162 15.768V4.87998C17.6162 4.66398 17.7762 4.47998 17.9682 4.47998H20.8642C21.0562 4.47998 21.2162 4.65598 21.2162 4.87998V15.776C21.2162 15.992 21.0562 16.176 20.8642 16.176V16.168ZM18.3202 15.376H20.5122V5.27998H18.3202V15.376Z" fill="#0C0C0C"/>
<path d="M23.6722 9.19177C23.8642 9.15977 24.0002 8.99177 24.0002 8.79977V3.23177C24.0002 2.53577 23.4642 1.96777 22.8082 1.96777H1.19219C0.536187 1.96777 0.000187499 2.53577 0.000187499 3.23177V8.79977C0.000187499 8.96777 0.104187 9.11977 0.264187 9.17577C0.264187 9.17577 0.848187 9.39977 0.848187 9.78377C0.848187 10.1918 0.232187 10.5038 0.224187 10.5038C0.0881875 10.5678 -0.0078125 10.7118 -0.0078125 10.8638V17.5118C-0.0078125 18.2078 0.528187 18.7758 1.18419 18.7758H2.04019V21.6318C2.04019 21.8478 2.21619 22.0318 2.44019 22.0318H8.73619C8.85619 22.0318 8.96819 21.9758 9.04019 21.8878C9.11219 21.7998 9.15219 21.6798 9.12819 21.5598C9.08819 21.3518 9.04019 20.6798 9.28019 20.3998C9.32819 20.3358 9.41619 20.2718 9.60819 20.2718C9.80019 20.2718 9.89619 20.3438 9.94419 20.4078C10.1922 20.6958 10.1522 21.3598 10.1202 21.5678C10.1042 21.6798 10.1362 21.7998 10.2082 21.8878C10.2882 21.9758 10.3922 22.0238 10.5122 22.0238H21.5842C21.8002 22.0238 21.9842 21.8478 21.9842 21.6238V18.7678H22.7842C23.4402 18.7678 23.9762 18.1998 23.9762 17.5038V10.9198C23.9762 10.7518 23.8722 10.6078 23.7202 10.5518C23.6962 10.5438 23.1282 10.3118 23.1282 9.77577C23.1282 9.31177 23.5682 9.19977 23.6562 9.18377L23.6722 9.19177ZM21.2082 21.2318H20.3922V19.9038C20.3922 19.6878 20.2162 19.5038 19.9922 19.5038C19.7682 19.5038 19.5922 19.6798 19.5922 19.9038V21.2318H18.7762V19.9038C18.7762 19.6878 18.6002 19.5038 18.3762 19.5038C18.1522 19.5038 17.9762 19.6798 17.9762 19.9038V21.2318H17.1602V19.9038C17.1602 19.6878 16.9842 19.5038 16.7602 19.5038C16.5362 19.5038 16.3602 19.6798 16.3602 19.9038V21.2318H15.6002V19.9038C15.6002 19.6878 15.4242 19.5038 15.2002 19.5038C14.9762 19.5038 14.8002 19.6798 14.8002 19.9038V21.2318H13.9842V19.9038C13.9842 19.6878 13.8082 19.5038 13.5842 19.5038C13.3602 19.5038 13.1842 19.6798 13.1842 19.9038V21.2318H12.3682V19.9038C12.3682 19.6878 12.1922 19.5038 11.9682 19.5038C11.7442 19.5038 11.5682 19.6798 11.5682 19.9038V21.2318H10.9282C10.9282 20.8318 10.8642 20.2718 10.5362 19.8878C10.0722 19.3438 9.10419 19.3438 8.64819 19.8878C8.32819 20.2718 8.27219 20.8318 8.28019 21.2318H7.61619V19.9038C7.61619 19.6878 7.44019 19.5038 7.21619 19.5038C6.99219 19.5038 6.81619 19.6798 6.81619 19.9038V21.2318H6.00019V19.9038C6.00019 19.6878 5.82419 19.5038 5.60019 19.5038C5.37619 19.5038 5.20019 19.6798 5.20019 19.9038V21.2318H4.38419V19.9038C4.38419 19.6878 4.20819 19.5038 3.98419 19.5038C3.76019 19.5038 3.58419 19.6798 3.58419 19.9038V21.2318H2.80019V18.7758H21.1682V21.2318H21.2082ZM23.2082 8.51177C22.8162 8.68777 22.3602 9.07977 22.3602 9.78377C22.3602 10.5438 22.8802 10.9758 23.2082 11.1758V17.5118C23.2082 17.7678 23.0322 17.9758 22.8082 17.9758H1.19219C0.976187 17.9758 0.792187 17.7678 0.792187 17.5118V11.0958C1.11219 10.8878 1.64019 10.4478 1.64019 9.78377C1.64019 9.16777 1.18419 8.75977 0.792187 8.54377V3.23177C0.792187 2.97577 0.968187 2.76777 1.19219 2.76777H22.8082C23.0242 2.76777 23.2082 2.97577 23.2082 3.23177V8.51177Z" fill="#0C0C0C"/>
</g>
<defs>
<clipPath id="clip0_2386_3683">
<rect width="24" height="24" fill="white"/>
</clipPath>
</defs>
</svg>
