<svg width="24" height="24" viewBox="0 0 24 24" fill="none" xmlns="http://www.w3.org/2000/svg">
<g clip-path="url(#clip0_2386_3713)">
<path d="M16.9359 11.208C13.8479 11.208 11.3359 8.696 11.3359 5.608C11.3359 2.52 13.8479 0 16.9359 0C20.0239 0 22.5359 2.512 22.5359 5.6C22.5359 8.688 20.0239 11.2 16.9359 11.2V11.208ZM16.9359 0.776C14.2719 0.776 12.1119 2.944 12.1119 5.6C12.1119 8.256 14.2799 10.424 16.9359 10.424C19.5919 10.424 21.7599 8.256 21.7599 5.6C21.7599 2.944 19.5999 0.776 16.9359 0.776Z" fill="#0C0C0C"/>
<path d="M16.9361 9.10398C15.1201 9.10398 13.6401 7.62398 13.6401 5.80798C13.6401 5.07198 13.8801 4.36798 14.3281 3.79198C14.4641 3.61598 14.7201 3.58398 14.8961 3.71998C15.0721 3.85598 15.1041 4.11198 14.9681 4.28798C14.6241 4.72798 14.4481 5.25598 14.4481 5.81598C14.4481 7.18398 15.5601 8.30398 16.9361 8.30398C18.3121 8.30398 19.4241 7.19198 19.4241 5.81598C19.4241 5.27198 19.2481 4.75198 18.9201 4.31198C18.7841 4.13598 18.8161 3.87998 18.9921 3.74398C19.1681 3.60798 19.4241 3.63998 19.5601 3.81598C20.0001 4.39198 20.2321 5.07998 20.2321 5.80798C20.2321 7.62398 18.7521 9.10398 16.9361 9.10398Z" fill="#0C0C0C"/>
<path d="M16.9361 6.3998C16.7121 6.3998 16.5361 6.2158 16.5361 5.9998V3.0958C16.5361 2.8718 16.7201 2.6958 16.9361 2.6958C17.1521 2.6958 17.3361 2.8798 17.3361 3.0958V5.9998C17.3361 6.2238 17.1521 6.3998 16.9361 6.3998Z" fill="#0C0C0C"/>
<path d="M23.6002 12.6641H7.66416C7.44016 12.6641 7.26416 12.8401 7.26416 13.0481V23.6081C7.26416 23.8241 7.44816 23.9921 7.66416 23.9921H23.5922C23.8162 23.9921 23.9922 23.8161 23.9922 23.6081V13.0481C23.9922 12.8321 23.8082 12.6641 23.5922 12.6641H23.6002ZM23.1922 23.2241H8.07216V13.4401H23.1922V23.2241Z" fill="#0C0C0C"/>
<path d="M10.2242 21.9519H21.0082C21.2322 21.9519 21.4082 21.7759 21.4082 21.5679V17.2479C21.4082 17.0319 21.2242 16.8639 21.0082 16.8639H19.5122L18.6322 15.2879C18.5602 15.1599 18.4242 15.0879 18.2802 15.0879H13.0162C12.8722 15.0879 12.7362 15.1599 12.6642 15.2799L11.7282 16.8639H10.2242C10.0002 16.8639 9.82422 17.0399 9.82422 17.2479V21.5679C9.82422 21.7839 10.0082 21.9519 10.2242 21.9519ZM10.6322 17.6239H11.9682C12.1122 17.6239 12.2482 17.5519 12.3202 17.4319L13.2562 15.8479H18.0402L18.9202 17.4239C18.9922 17.5519 19.1282 17.6239 19.2722 17.6239H20.6082V21.1759H10.6322V17.6239Z" fill="#0C0C0C"/>
<path d="M19.3442 18.728C19.1202 18.728 18.9442 18.904 18.9442 19.112V19.712H17.9042V19.112C17.9042 18.896 17.7202 18.728 17.5042 18.728C17.2882 18.728 17.1042 18.904 17.1042 19.112V19.712H16.0322V19.112C16.0322 18.896 15.8482 18.728 15.6322 18.728C15.4162 18.728 15.2322 18.904 15.2322 19.112V19.712H14.1282V19.112C14.1282 18.896 13.9442 18.728 13.7282 18.728C13.5122 18.728 13.3282 18.904 13.3282 19.112V19.712H12.3122V19.112C12.3122 18.896 12.1282 18.728 11.9122 18.728C11.6962 18.728 11.5122 18.904 11.5122 19.112V20.096C11.5122 20.312 11.6962 20.48 11.9122 20.48H19.3682C19.5922 20.48 19.7682 20.304 19.7682 20.096V19.112C19.7682 18.896 19.5842 18.728 19.3682 18.728H19.3442Z" fill="#0C0C0C"/>
<path d="M5.664 3.67184C5.664 2.11184 4.392 0.839844 2.832 0.839844C1.272 0.839844 0 2.11184 0 3.67184C0 4.63184 0.496 5.51184 1.296 6.03184L0.56 23.5758C0.56 23.6878 0.592 23.7918 0.672 23.8718C0.744 23.9518 0.856 23.9918 0.96 23.9918H4.68C4.792 23.9918 4.896 23.9438 4.968 23.8718C5.04 23.7918 5.088 23.6878 5.08 23.5758L4.368 6.01584C5.16 5.49584 5.64 4.62384 5.64 3.67184H5.664ZM1.392 23.1918L2.12 5.83184C2.12 5.83184 2.12 5.79184 2.112 5.77584C2.112 5.74384 2.112 5.71984 2.096 5.68784C2.088 5.66384 2.072 5.63984 2.056 5.61584C2.04 5.59184 2.032 5.56784 2.016 5.55184C1.992 5.52784 1.968 5.51184 1.944 5.49584C1.928 5.48784 1.92 5.47184 1.904 5.46384C1.232 5.11184 0.808 4.42384 0.808 3.67984C0.808 2.55984 1.72 1.65584 2.832 1.65584C3.944 1.65584 4.856 2.56784 4.856 3.67984C4.856 4.42384 4.44 5.11184 3.768 5.46384C3.744 5.47984 3.728 5.49584 3.704 5.51184C3.696 5.51984 3.68 5.52784 3.672 5.53584C3.568 5.63984 3.536 5.79184 3.576 5.92784L4.272 23.1838H1.392V23.1918Z" fill="#0C0C0C"/>
<path d="M5.87197 7.36822C5.76797 7.36822 5.65597 7.32822 5.57597 7.24022C5.42397 7.08022 5.43197 6.82422 5.59197 6.67222C6.43197 5.88022 6.87997 4.93622 6.87997 3.92822C6.87997 3.00022 6.49597 2.11222 5.77597 1.36022C5.62397 1.20022 5.62397 0.944218 5.78397 0.792218C5.94397 0.640218 6.19997 0.640218 6.35197 0.800218C7.22397 1.70422 7.68797 2.78422 7.68797 3.92822C7.68797 5.14422 7.14397 6.32022 6.15197 7.25622C6.07197 7.32822 5.97597 7.36822 5.87997 7.36822H5.87197Z" fill="#0C0C0C"/>
<path d="M7.95223 8.03996C7.85623 8.03996 7.76823 8.00796 7.68823 7.94396C7.52023 7.79996 7.50423 7.54396 7.64823 7.37596C8.50423 6.38396 8.96023 5.18396 8.96023 3.91195C8.96023 2.73595 8.56823 1.61595 7.82423 0.663955C7.68823 0.487955 7.72023 0.231955 7.89623 0.095955C8.07223 -0.040045 8.32823 -0.00804501 8.46423 0.167955C9.32023 1.25595 9.76823 2.55195 9.76823 3.91195C9.76823 5.35995 9.23223 6.77596 8.25623 7.90395C8.17623 7.99996 8.06423 8.03996 7.95223 8.03996Z" fill="#0C0C0C"/>
</g>
<defs>
<clipPath id="clip0_2386_3713">
<rect width="24" height="24" fill="white"/>
</clipPath>
</defs>
</svg>
