<svg width="24" height="23" viewBox="0 0 24 23" fill="none" xmlns="http://www.w3.org/2000/svg">
<path d="M19.8677 8.70079C20.1111 8.75696 21.6841 8.6883 22.0835 8.76944C22.483 8.85059 22.7951 9.31247 22.7951 9.69321C22.7764 10.8979 22.7951 12.3584 22.7951 13.6005C22.7951 14.0187 22.4705 14.4494 22.0336 14.5243C21.5655 14.6054 20.3234 14.4244 20.0113 14.5742C19.8927 14.6304 19.5619 14.8364 19.7179 15.2733C19.7616 15.3981 20.7166 16.2532 20.8914 16.4654C21.2596 16.9211 21.3408 17.4142 20.9163 17.8386C19.9364 18.8186 19.0688 19.6862 18.0764 20.6786C17.627 20.9969 17.1838 20.9158 16.7718 20.5787C16.491 20.354 15.7857 19.4739 15.5547 19.3866C15.0491 19.1993 14.7932 19.5613 14.7558 19.811C14.6185 20.6973 15.2052 22.2889 13.8133 22.2889C12.515 22.2889 11.1231 22.2889 9.90599 22.2889C8.46416 22.1267 9.13202 20.4601 8.94477 19.4927C8.89484 19.3304 8.61396 18.9434 8.21449 19.2055C7.55912 19.7423 6.79139 21.153 5.79896 20.5225L2.82168 17.5765C2.02898 16.5216 3.82659 15.5542 4.36337 14.8301C4.48821 14.568 4.26975 14.2871 3.97639 14.2496C3.3647 14.181 2.48462 14.3558 1.91663 14.2372C1.49844 14.1498 1.20508 13.7129 1.20508 13.3134C1.20508 12.0151 1.20508 10.8105 1.20508 9.4061C1.33615 7.93306 3.3647 8.62589 4.35713 8.4636C4.58183 8.42615 4.70042 8.21393 4.58183 8.00796C4.23854 7.55856 2.92778 6.5911 2.84664 6.07928C2.80919 5.84209 2.82792 5.4988 2.97772 5.29907L5.955 2.30306C6.4044 2.02218 6.80387 2.09084 7.20958 2.40292C7.77758 2.83984 8.23322 3.57636 8.85739 4.032C9.11954 4.13187 9.23813 3.98831 9.2631 3.72616C9.31927 3.05206 9.1445 2.04091 9.26934 1.42298C9.33176 1.12962 9.68753 0.798809 9.98089 0.736393C11.2729 0.736393 12.7897 0.711426 14.1066 0.711426C15.6171 0.711426 14.8556 2.88977 15.0429 3.86972C15.0741 4.03825 15.2239 4.1506 15.4486 4.08818C15.6171 4.04449 16.7032 2.8336 16.9653 2.61514C17.3835 2.27809 17.8953 2.14701 18.2886 2.54648C19.1312 3.38911 20.2859 4.54382 21.2034 5.46135C21.9275 6.50371 20.2173 7.42748 19.6867 8.13903C19.5868 8.26387 19.6243 8.65085 19.8677 8.70079Z" stroke="#005792" stroke-width="0.5" stroke-miterlimit="10"/>
<path d="M17.1764 11.5044C17.1764 14.3631 14.8607 16.6788 12.002 16.6788C9.1433 16.6788 6.82764 14.3631 6.82764 11.5044C6.82764 8.64574 9.1433 6.33008 12.002 6.33008C14.8607 6.33008 17.1764 8.64574 17.1764 11.5044Z" stroke="#005792" stroke-width="0.5" stroke-miterlimit="10"/>
</svg>
