<svg width="28" height="32" viewBox="0 0 28 32" fill="none" xmlns="http://www.w3.org/2000/svg">
<path d="M21.2016 10.0855H27.1355C27.0807 9.96811 27.0024 9.85069 26.9085 9.75675L23.8476 6.7272L21.0372 3.94034C20.9511 3.86205 20.8493 3.7916 20.7476 3.74463" stroke="#0C0C0C" stroke-width="0.35" stroke-miterlimit="10"/>
<path d="M20.7476 3.7373V3.74491" stroke="#0C0C0C" stroke-width="0.35" stroke-miterlimit="10"/>
<path d="M20.7547 3.74439C20.5981 3.65828 20.4259 3.61914 20.2458 3.61914H8.50326C7.87699 3.61914 7.37598 4.12015 7.37598 4.73858V28.7323C7.37598 29.3507 7.88482 29.8517 8.50326 29.8517H26.1171C26.7434 29.8517 27.2444 29.3507 27.2444 28.7323V10.555C27.2444 10.3906 27.2053 10.234 27.1426 10.0853H21.2009" stroke="#0C0C0C" stroke-width="0.35" stroke-miterlimit="10"/>
<path d="M21.2016 10.0855C20.9511 10.0855 20.7554 9.882 20.7554 9.63932V3.74463" stroke="#0C0C0C" stroke-width="0.35" stroke-miterlimit="10"/>
<path d="M21.2016 10.086C20.9511 10.086 20.7554 9.89033 20.7554 9.63983V3.7373" stroke="#0C0C0C" stroke-width="0.35" stroke-miterlimit="10"/>
<path d="M23.8552 6.72749V1.3338C23.8552 0.715366 23.3464 0.214355 22.728 0.214355H5.1141C4.48783 0.214355 3.98682 0.715366 3.98682 1.3338V25.3275C3.98682 25.9459 4.49566 26.4469 5.1141 26.4469H7.3765" stroke="#0C0C0C" stroke-width="0.35" stroke-miterlimit="10"/>
<path d="M22.2107 16.4424C22.2107 17.4366 21.3965 18.2507 20.3945 18.2507H14.0535C13.0515 18.2507 12.2373 17.4366 12.2373 16.4424" stroke="#0C0C0C" stroke-width="0.35" stroke-linecap="round" stroke-linejoin="round"/>
<path d="M15.4708 20.8267H1.37192C0.753474 20.8267 0.244629 21.3277 0.244629 21.9461V30.1032C0.244629 30.7216 0.745645 31.2226 1.37192 31.2226H15.4708C16.0893 31.2226 16.5981 30.7216 16.5981 30.1032V21.9461C16.5981 21.3277 16.0971 20.8267 15.4708 20.8267Z" fill="#C82121"/>
<path d="M5.77931 24.1841C5.64622 23.9571 5.44268 23.777 5.18435 23.6439C4.91818 23.5187 4.60505 23.4482 4.22929 23.4482H2.40527V28.2313H3.23508V26.4543H4.23711C4.61288 26.4543 4.92601 26.3917 5.19218 26.2743C5.45834 26.1568 5.65405 25.9846 5.78713 25.7654C5.92022 25.5462 5.99067 25.2801 5.99067 24.9669C5.99067 24.6773 5.92022 24.4111 5.78713 24.1841H5.77931ZM5.05909 25.4053C4.99647 25.5306 4.90253 25.6245 4.76162 25.695C4.62853 25.7654 4.44848 25.8046 4.22929 25.8046H3.22725V24.1136H4.22929C4.44848 24.1136 4.6207 24.1606 4.76162 24.2389C4.8947 24.325 4.98864 24.4268 5.05909 24.5599C5.12172 24.6929 5.15303 24.8338 5.15303 24.9904C5.15303 25.1548 5.12172 25.2957 5.05909 25.421V25.4053Z" fill="white"/>
<path d="M10.4293 24.7957C10.3276 24.5217 10.171 24.279 9.98312 24.0833C9.79524 23.8797 9.56038 23.731 9.30205 23.6214C9.03588 23.5118 8.74623 23.4648 8.42527 23.4648H7.82248H6.99268V28.2479H8.39396C8.72275 28.2479 9.02023 28.1931 9.28639 28.0914C9.55256 27.9896 9.78741 27.833 9.97529 27.6373C10.171 27.4416 10.3197 27.1989 10.4215 26.9249C10.5233 26.6431 10.5781 26.3378 10.5781 25.9934V25.7429C10.5781 25.3984 10.5233 25.0853 10.4215 24.8113L10.4293 24.7957ZM9.75609 25.9855C9.75609 26.3143 9.7013 26.604 9.59953 26.8467C9.49776 27.0893 9.34119 27.2694 9.14548 27.4025C8.94194 27.5356 8.69926 27.5982 8.39396 27.5982H7.82248V24.1302H8.42527C8.63664 24.1302 8.82452 24.1694 8.98891 24.2398C9.15331 24.3103 9.29422 24.4121 9.40382 24.5451C9.52124 24.6782 9.59953 24.8504 9.66215 25.0462C9.72478 25.2419 9.74827 25.4767 9.74827 25.7272V25.9855H9.75609Z" fill="white"/>
<path d="M14.7504 24.1141V23.4565H12.5114H12.3001H11.6816V28.2396H12.5114V26.2043H14.4764V25.5545H12.5114V24.1141H14.7504Z" fill="white"/>
<path d="M20.5355 12.2695L17.2241 15.4556" stroke="#0C0C0C" stroke-width="0.35" stroke-linecap="round" stroke-linejoin="round"/>
<path d="M17.224 15.4556L13.9126 12.2695" stroke="#0C0C0C" stroke-width="0.35" stroke-linecap="round" stroke-linejoin="round"/>
<path d="M17.2241 7.59619V15.4558" stroke="#0C0C0C" stroke-width="0.35" stroke-linecap="round" stroke-linejoin="round"/>
</svg>
