<svg width="50" height="50" viewBox="0 0 50 50" fill="none" xmlns="http://www.w3.org/2000/svg">
<g clip-path="url(#clip0_2258_1177)">
<path d="M50 25C50 22.4966 46.8658 20.2483 41.1745 18.6711C41.0268 18.6309 40.8859 18.7181 40.8456 18.8591C40.8054 19 40.8926 19.1477 41.0336 19.1879C46.396 20.6779 49.4698 22.7919 49.4698 25C49.4698 29.2617 38.4966 32.7248 25.0067 32.7248C22.4362 32.7248 19.9664 32.5973 17.6376 32.3691C17.4027 30.0403 17.2819 27.5705 17.2819 25C17.2752 11.5101 20.7383 0.536913 25 0.536913C27.2685 0.536913 29.5034 3.91275 30.9732 9.57047C31.0134 9.71141 31.1611 9.79866 31.302 9.7651C31.443 9.72483 31.5302 9.58389 31.4966 9.43624C29.9329 3.43624 27.5705 0 25.0067 0C20.3691 0 16.745 10.9799 16.745 25C16.745 27.557 16.8658 30.0067 17.094 32.3087C7.48322 31.2685 0.550336 28.3826 0.550336 25C0.550336 22.9597 3.26846 20.9463 8 19.4832C8.63758 19.2886 9.2953 19.1074 9.95302 18.9396L8.2953 21.5638C8.21477 21.6913 8.25503 21.8524 8.37584 21.9329C8.42282 21.9597 8.4698 21.9732 8.51678 21.9732C8.60403 21.9732 8.69128 21.9262 8.74497 21.8456L10.7517 18.6644C10.8322 18.5369 10.7919 18.3758 10.6711 18.2953H10.6577C10.6577 18.2953 10.6577 18.2953 10.651 18.2886L7.42282 16.3826C7.2953 16.3087 7.12752 16.349 7.05369 16.4765C6.97987 16.604 7.02013 16.7718 7.14765 16.8456L9.80537 18.4161C9.14094 18.5839 8.47651 18.7718 7.83222 18.9664C2.78524 20.5302 0 22.6711 0 25C0 28.7248 7.08725 31.7987 17.1409 32.8591C18.2081 42.9128 21.2819 50 25 50C27.2013 50 29.2685 47.4698 30.8054 42.8725C31.0268 42.2215 31.2282 41.5503 31.4094 40.8725L33.0403 43.5503C33.094 43.6309 33.1812 43.6779 33.2685 43.6779C33.3154 43.6779 33.3624 43.6644 33.4094 43.6376C33.5369 43.557 33.5772 43.396 33.4966 43.2685L31.5369 40.0537C31.4966 39.9933 31.4295 39.953 31.3557 39.9329C31.302 39.9195 31.2483 39.9329 31.1946 39.953C31.1812 39.953 31.1611 39.9597 31.1477 39.9732L28.0067 42.0134C27.8859 42.094 27.8456 42.2617 27.9262 42.3826C27.9799 42.4631 28.0604 42.5034 28.1477 42.5034C28.2013 42.5034 28.2483 42.4899 28.2953 42.4564L30.8524 40.7919C30.6779 41.4362 30.4899 42.0738 30.2819 42.6913C28.8188 47.047 26.9396 49.4497 24.9866 49.4497C21.604 49.4497 18.7181 42.5168 17.6779 32.906C19.9799 33.1342 22.4362 33.255 24.9866 33.255C39.0067 33.255 49.9866 29.6242 49.9866 24.9866L50 25Z" fill="#0C0C0C"/>
<path d="M23.7247 24.5168C23.4294 24.6577 23.0804 24.7316 22.671 24.7316C22.2616 24.7316 21.9126 24.651 21.5972 24.49C21.2817 24.3289 21.0401 24.1141 20.8656 23.8322C20.6911 23.5504 20.6039 23.2282 20.6039 22.8658H19.8857C19.8857 23.2752 19.9663 23.6376 20.1206 23.9463C20.275 24.2551 20.4898 24.5168 20.7515 24.7249C21.0133 24.9329 21.3153 25.0873 21.6508 25.1879C21.9864 25.2886 22.3287 25.3423 22.6777 25.3423C23.067 25.3423 23.4227 25.2886 23.7448 25.1745C24.067 25.0671 24.3555 24.9061 24.5972 24.6913C24.8388 24.4765 25.0267 24.2148 25.1609 23.9061C25.2951 23.5973 25.3623 23.2483 25.3623 22.8524C25.3623 22.5436 25.3086 22.2483 25.2012 21.9799C25.0938 21.7114 24.926 21.4698 24.6978 21.2685C24.4696 21.0604 24.181 20.9061 23.8186 20.7853C23.7851 20.7718 23.7448 20.7718 23.7045 20.7584C24.0334 20.6376 24.3019 20.4698 24.5233 20.2685C24.7448 20.0604 24.9126 19.8322 25.0267 19.5772C25.1408 19.3222 25.1945 19.0671 25.1945 18.8054C25.1945 18.2886 25.0871 17.8524 24.879 17.4967C24.671 17.141 24.369 16.8658 23.9931 16.6779C23.6106 16.49 23.1676 16.396 22.6508 16.396C22.1341 16.396 21.7045 16.4967 21.3086 16.698C20.9126 16.8994 20.5972 17.1812 20.369 17.5436C20.1408 17.9061 20.0267 18.3222 20.0267 18.792H20.7381C20.7381 18.4228 20.8186 18.1074 20.9864 17.8389C21.1542 17.5705 21.3824 17.3691 21.671 17.2215C21.9596 17.0806 22.2884 17.0067 22.6508 17.0067C23.067 17.0067 23.4159 17.0806 23.6844 17.2282C23.9529 17.3759 24.1542 17.5839 24.2884 17.8524C24.4227 18.1208 24.4831 18.4228 24.4831 18.7785C24.4831 19.0873 24.4092 19.3759 24.2549 19.6309C24.1005 19.8859 23.8723 20.0873 23.5703 20.2416C23.2683 20.396 22.8925 20.4698 22.4495 20.4698H21.718V21.094H22.4495C22.8857 21.094 23.2683 21.1544 23.5972 21.2819C23.926 21.4027 24.181 21.5973 24.369 21.8591C24.5569 22.1208 24.6441 22.4631 24.6441 22.8792C24.6441 23.2752 24.5636 23.6108 24.4092 23.8859C24.2549 24.1611 24.0267 24.3691 23.7381 24.5168H23.7247Z" fill="#0C0C0C"/>
<path d="M30.3622 19.7383C30.0468 19.5839 29.6843 19.5101 29.2682 19.5101C28.9125 19.5101 28.577 19.5638 28.2682 19.6779C27.9595 19.792 27.6843 19.9531 27.4494 20.1678C27.3286 20.2752 27.2212 20.396 27.1273 20.5235C27.1541 20.1074 27.2145 19.7047 27.3219 19.349C27.4763 18.8725 27.6978 18.4631 27.9864 18.1276C28.2749 17.792 28.6374 17.5302 29.0669 17.3558C29.4964 17.1745 29.9863 17.0873 30.5367 17.0873H30.6441V16.4564H30.5367C29.832 16.4564 29.2212 16.5705 28.7045 16.8054C28.181 17.0403 27.7515 17.3759 27.4092 17.8054C27.0669 18.2417 26.8051 18.7584 26.6374 19.3625C26.4696 19.9665 26.3823 20.6376 26.3823 21.3826V22.141C26.3823 22.5772 26.4427 22.9933 26.5702 23.3759C26.6978 23.7651 26.8857 24.1007 27.1273 24.396C27.3756 24.6913 27.6709 24.9195 28.0132 25.0873C28.3622 25.2551 28.7515 25.3356 29.1877 25.3356C29.5904 25.3356 29.9528 25.2618 30.2682 25.1074C30.5837 24.9531 30.8588 24.745 31.0803 24.4766C31.3018 24.2081 31.4763 23.8927 31.5904 23.5302C31.7112 23.1678 31.7649 22.7786 31.7649 22.3625C31.7649 21.9799 31.7112 21.6175 31.6105 21.2685C31.5031 20.9262 31.3488 20.6175 31.1407 20.3558C30.9327 20.0873 30.6709 19.8792 30.3555 19.7316L30.3622 19.7383ZM30.9327 23.3021C30.8454 23.5839 30.7246 23.8323 30.5635 24.047C30.4025 24.2618 30.2078 24.4296 29.9729 24.5504C29.7447 24.6712 29.483 24.7316 29.1877 24.7316C28.8924 24.7316 28.6172 24.6712 28.3622 24.5571C28.1072 24.4363 27.8857 24.2685 27.6978 24.047C27.5031 23.8256 27.3555 23.5571 27.2481 23.2349C27.1407 22.9128 27.087 22.5571 27.087 22.1611V21.5839C27.1407 21.396 27.2145 21.2215 27.3353 21.0537C27.5367 20.7719 27.7984 20.5504 28.1206 20.3826C28.436 20.2148 28.7783 20.1343 29.1407 20.1343C29.4629 20.1343 29.7447 20.1947 29.9863 20.3155C30.228 20.4363 30.4226 20.5974 30.5837 20.8121C30.7447 21.0202 30.8588 21.2685 30.9394 21.537C31.0199 21.8121 31.0535 22.1007 31.0535 22.4094C31.0535 22.7182 31.0132 23.0269 30.9259 23.3155L30.9327 23.3021Z" fill="#0C0C0C"/>
<path d="M33.0808 24.0202C33.2351 24.3222 33.4163 24.5705 33.6378 24.7651C33.8593 24.9598 34.1076 25.1074 34.3828 25.2081C34.6579 25.302 34.9667 25.349 35.3022 25.349C35.7251 25.349 36.1009 25.2752 36.4298 25.1208C36.7586 24.9665 37.0405 24.7383 37.2687 24.4296C37.4969 24.1208 37.6714 23.7316 37.7922 23.2551C37.913 22.7853 37.9734 22.2282 37.9734 21.5906V20.1275C37.9734 19.6108 37.9331 19.1544 37.8526 18.7584C37.772 18.3557 37.6579 18.0067 37.5103 17.7114C37.3626 17.4161 37.1747 17.1678 36.96 16.9732C36.7452 16.7785 36.4969 16.6376 36.215 16.5369C35.9331 16.443 35.6244 16.396 35.2888 16.396C34.8727 16.396 34.4969 16.4698 34.168 16.6175C33.8392 16.7651 33.5573 16.9933 33.3291 17.302C33.1009 17.6041 32.9197 17.9933 32.7989 18.4631C32.6781 18.9329 32.6177 19.49 32.6177 20.1275V21.5906C32.6177 22.1007 32.6579 22.5571 32.7385 22.9598C32.819 23.3624 32.9331 23.7181 33.0875 24.0134L33.0808 24.0202ZM33.3291 20.0269C33.3291 19.5302 33.3694 19.094 33.4566 18.7181C33.5439 18.3423 33.6647 18.0269 33.8257 17.7718C33.9868 17.5168 34.1881 17.3289 34.4365 17.1947C34.6848 17.0671 34.9667 17 35.2888 17C35.5506 17 35.7855 17.0403 36.0002 17.1208C36.2083 17.2014 36.3962 17.3222 36.5506 17.49C36.7049 17.651 36.8392 17.8591 36.9398 18.1007C37.0405 18.3423 37.121 18.6242 37.1747 18.9463C37.2284 19.2685 37.2553 19.6242 37.2553 20.0202V21.6645C37.2553 22.1477 37.215 22.5839 37.1345 22.9665C37.0539 23.349 36.9331 23.6645 36.772 23.9262C36.611 24.1879 36.4029 24.3826 36.1613 24.5168C35.9197 24.651 35.6311 24.7181 35.3022 24.7181C35.0405 24.7181 34.8123 24.6712 34.5975 24.5839C34.3895 24.4967 34.2016 24.3692 34.0472 24.2014C33.8861 24.0336 33.7586 23.8255 33.6512 23.5772C33.5439 23.3289 33.4633 23.047 33.4096 22.7249C33.3559 22.4027 33.3291 22.047 33.3291 21.6577V20.0134V20.0269Z" fill="#0C0C0C"/>
<path d="M37.8321 14.698C38.0536 14.8322 38.2952 14.8926 38.5637 14.8926C38.8321 14.8926 39.0737 14.8255 39.2885 14.698C39.5033 14.5637 39.6778 14.3892 39.812 14.1678C39.9462 13.9463 40.0066 13.698 40.0066 13.4228C40.0066 13.1476 39.9395 12.906 39.812 12.6778C39.6778 12.4496 39.5033 12.2684 39.2885 12.1342C39.0737 12 38.8321 11.9329 38.5637 11.9329C38.2952 11.9329 38.0536 12 37.8321 12.1342C37.6107 12.2684 37.4362 12.4496 37.3019 12.6778C37.1677 12.906 37.1006 13.1543 37.1006 13.4228C37.1006 13.6913 37.1677 13.9463 37.3019 14.1678C37.4362 14.3892 37.6107 14.5704 37.8321 14.698ZM37.906 12.7382C38.0872 12.557 38.3086 12.4698 38.5637 12.4698C38.8187 12.4698 39.0469 12.557 39.2147 12.7382C39.3892 12.9194 39.4697 13.1409 39.4697 13.4161C39.4697 13.6913 39.3825 13.906 39.2147 14.0805C39.0402 14.255 38.8254 14.3423 38.5637 14.3423C38.3019 14.3423 38.0872 14.255 37.906 14.0805C37.7247 13.906 37.6308 13.6845 37.6308 13.4161C37.6308 13.1476 37.7247 12.9194 37.906 12.7382Z" fill="#0C0C0C"/>
</g>
<defs>
<clipPath id="clip0_2258_1177">
<rect width="50" height="50" fill="white"/>
</clipPath>
</defs>
</svg>
