<svg width="74" height="74" viewBox="0 0 74 74" fill="none" xmlns="http://www.w3.org/2000/svg">
<path d="M68.797 34.6806V28.3837C68.797 26.9177 67.7611 26.1966 66.8217 26.0044C66.7735 25.8361 66.7013 25.6919 66.629 25.5477C65.7859 23.8894 63.8829 22.183 62.9194 21.3899C63.642 20.4285 65.1355 18.4818 66.1472 17.0157C67.4721 15.045 68.0261 12.6656 68.0743 11.0794C68.1225 9.56526 67.3998 8.05114 66.3399 7.47433C66.0509 7.33012 65.7136 7.18592 65.3523 7.06575C64.5815 6.77735 63.642 6.44087 62.7266 5.67179C61.3054 4.49414 61.2572 4.34993 61.0886 3.41262C60.8477 1.92252 60.0287 0.841002 58.8243 0.38436C57.668 -0.0482476 54.9942 0.0238537 52.5372 0.913104C50.6342 1.61008 47.9122 3.94136 46.8282 4.90271C45.8647 3.98943 44.9975 3.22035 44.323 2.66757C43.2631 1.77832 40.3484 0.865036 38.4936 2.7637C37.7227 3.53279 37.3132 4.4701 37.3373 5.45549C37.3373 6.68121 37.9395 7.69063 38.5177 8.21937C39.3126 8.98845 56.9213 26.5571 59.0652 28.6721V29.6335H58.4871C58.1016 29.6094 56.4636 29.4652 55.3074 30.3785C54.6329 30.9073 54.2716 31.7004 54.2234 32.6617C54.1752 33.6711 54.4402 34.4883 55.0665 35.1132C56.1264 36.1466 57.7644 36.1226 58.0053 36.1226H58.463V48.2837L54.8015 51.5763L39.9871 45.6159V42.0589C40.7579 41.4581 42.6127 39.7517 43.8171 36.3389C44.2026 35.2574 44.4194 33.3827 44.5639 31.1716H45.5274C46.7319 31.1716 47.7917 30.3064 48.0567 29.5133C48.2976 28.7923 48.2735 27.9751 48.1049 25.4997C47.9363 23.5529 46.7559 23.1203 45.7683 23.1203H44.6843C44.6843 22.6396 44.6843 22.159 44.6602 21.7264C44.6843 21.6062 44.6843 21.486 44.6602 21.3658C44.6121 19.0105 44.5157 17.2801 44.4916 17.0157C44.3712 15.6939 43.1667 14.4441 42.0105 14.372C41.6973 14.372 41.3842 14.372 41.1192 14.372C41.1433 14.1317 41.0951 13.9394 40.9506 13.7712C40.8061 13.6029 40.6134 13.5308 40.4207 13.5308C39.963 13.5308 29.0509 13.4587 27.0997 13.6991C23.4382 14.1797 21.7039 15.9823 20.7403 17.3041C19.7286 18.6981 18.7651 21.1976 18.7169 22.2551C18.7169 22.5435 18.7169 22.7838 18.7169 23.0001C18.0183 23.0722 17.2234 23.3847 16.7416 24.1538C15.8985 25.5477 16.4285 28.8884 16.5248 29.2009C16.838 30.3545 17.6329 31.0515 18.6205 31.0755C19.1023 31.0755 19.6563 31.0755 20.0899 31.0755C20.114 32.1089 20.2104 34.0557 20.5476 35.8582C21.0294 38.7903 23.5587 41.0735 24.4018 41.7465V45.7601L9.85229 52.081C9.80412 52.081 9.78003 52.1291 9.73185 52.1531C9.73185 52.1531 9.70776 52.1531 9.68368 52.1772C9.65959 52.1772 9.6355 52.2252 9.61141 52.2493L3.51701 59.5555C3.42065 59.6757 3.34839 59.8439 3.34839 60.0122V72.9423C3.34839 73.3509 3.66154 73.6633 4.07104 73.6633H24.6186H27.0997H38.5417H40.782H54.9942C55.4037 73.6633 55.7169 73.3509 55.7169 72.9423V66.4292L69.4473 52.8982C69.5919 52.754 69.6641 52.5857 69.6641 52.3935V35.4016C69.6641 34.993 69.351 34.6806 68.9415 34.6806H68.797ZM38.7104 5.45549C38.7104 4.85464 38.9513 4.27783 39.4571 3.77312C40.782 2.45127 42.9018 3.38858 43.3595 3.77312C47.0932 6.77735 56.56 16.9196 56.6563 17.0157C56.9213 17.3041 57.379 17.3282 57.668 17.0638C57.9571 16.7994 57.9812 16.3428 57.7162 16.0544C57.4272 15.7419 52.0795 10.0219 47.8399 5.91213C48.8998 4.97481 51.405 2.85984 52.9949 2.28303C55.1869 1.48991 57.4994 1.46588 58.2703 1.75429C59.1856 2.09076 59.4988 2.98001 59.6192 3.67699C59.8601 5.09498 60.2214 5.55162 61.739 6.80138C62.8471 7.7387 63.9792 8.14727 64.7983 8.45971C65.1355 8.57988 65.4246 8.67601 65.6173 8.79618C66.1231 9.06055 66.629 10.0219 66.5808 11.0554C66.5326 12.4253 66.0509 14.5162 64.8946 16.2226C63.5697 18.1453 61.3054 21.0534 61.2813 21.0774C61.1609 21.2216 61.1127 21.4139 61.1368 21.6062C61.1609 21.7985 61.2572 21.9667 61.4259 22.0869C61.45 22.0869 64.3165 24.2739 65.28 26.1726C65.3282 26.2687 65.4005 26.437 65.4487 26.6292C65.4487 26.7254 65.4486 26.8215 65.4968 26.9177C65.5691 27.5185 65.3764 28.3597 64.2201 29.0086C63.2084 29.5854 61.4499 29.0567 60.1973 27.8309C60.1733 27.8069 60.1251 27.7588 60.0769 27.7348C58.2943 25.9563 40.2279 7.955 39.433 7.18592C39.0717 6.82541 38.7104 6.15247 38.7104 5.43145V5.45549ZM57.9089 34.6806C57.9089 34.6806 57.8848 34.6806 57.8608 34.6806C57.5235 34.6806 56.5359 34.6325 56.0059 34.0797C55.6928 33.7673 55.5723 33.3347 55.5964 32.7338C55.6205 32.181 55.8132 31.7725 56.1264 31.4841C56.7527 30.9794 57.8608 31.0034 58.2462 31.0755C58.2944 31.0755 58.3425 31.0755 58.3907 31.0755L59.7397 31.0274C60.1251 31.0274 60.4382 30.691 60.4382 30.3064V29.8017C61.9799 30.739 63.7143 30.9553 64.9669 30.2583C66.2195 29.5373 66.8217 28.5519 66.9662 27.5666C67.183 27.7108 67.3516 27.9511 67.3516 28.3597V34.6565H57.933L57.9089 34.6806ZM40.9747 60.589L43.9135 65.4198L40.2039 72.2454H38.9753L36.422 60.2285L37.6505 55.4938L38.8308 56.2869C38.9994 56.4071 39.1921 56.4311 39.3848 56.3831C39.5776 56.335 39.7462 56.2148 39.8425 56.0466L43.4558 50.0141L44.8529 57.6809L41.2638 59.6036C41.0951 59.6997 40.9506 59.868 40.9024 60.0602C40.8542 60.2525 40.9024 60.4448 40.9747 60.613V60.589ZM24.9076 72.2454L21.198 65.2756L24.2572 60.613C24.3777 60.4448 24.4018 60.2285 24.3536 60.0362C24.3054 59.8439 24.185 59.6757 23.9923 59.5796L20.1863 57.5367L21.8484 49.7738L25.3653 56.0466C25.4617 56.2148 25.6303 56.359 25.8471 56.4071C26.0398 56.4552 26.2566 56.4071 26.4252 56.2869L27.4128 55.5659L28.6895 60.2765L26.377 72.2934H24.9317L24.9076 72.2454ZM10.7436 53.2106L20.5476 48.9566L18.6687 57.753C18.5964 58.0654 18.741 58.3779 19.03 58.5461L22.6192 60.4688L19.7527 64.8429C19.6082 65.0592 19.5841 65.3477 19.7286 65.588L23.2937 72.2694H10.7677V53.2346L10.7436 53.2106ZM32.0378 44.6305C35.0489 44.6305 37.2169 43.7413 38.4695 43.0443V45.7361L32.3028 50.1823L25.7266 45.8082V42.852C26.9552 43.6452 29.0749 44.6065 32.0378 44.6065V44.6305ZM24.9317 47.0339L31.0502 51.0956L27.5092 53.6432C27.4128 53.6913 27.3406 53.7393 27.2683 53.8114L26.2084 54.5805L22.547 48.0433L24.9317 47.0099V47.0339ZM35.1212 59.4834H29.9662L28.6654 54.6286L32.351 51.9608L36.3738 54.6286L35.1212 59.4834ZM30.0144 60.9254H35.0971L37.5059 72.2454H27.8223L29.9903 60.9254H30.0144ZM38.9753 54.6526L33.5795 51.0716L39.2885 46.9378L42.7572 48.3317L38.9753 54.6526ZM45.696 24.5383C46.2019 24.5383 46.5151 24.6104 46.5873 25.5718C46.7559 27.903 46.78 28.6 46.6355 29.0086C46.5391 29.2489 46.0333 29.7056 45.4552 29.7056H44.5639C44.6362 28.0232 44.6362 26.2207 44.6362 24.5383H45.696ZM41.8419 15.79C42.2273 15.79 42.9018 16.463 42.974 17.1359C42.9981 17.4243 43.0463 18.4578 43.0945 19.9238C42.7572 19.7316 42.3477 19.5873 41.9141 19.5393C41.2638 19.4672 40.3966 19.4672 39.698 19.4912C40.4929 17.9531 40.782 16.5351 40.9024 15.766C41.1915 15.766 41.5287 15.766 41.866 15.766L41.8419 15.79ZM21.8002 18.1213C22.6915 16.9196 24.0886 15.4776 27.196 15.093C28.7618 14.9008 36.8796 14.9248 39.5053 14.9248V14.9729C39.5053 15.045 39.5053 15.1171 39.5053 15.2132C39.4571 15.766 39.144 18.2415 37.3373 20.5487C36.0606 22.183 33.435 22.904 32.351 23.0242C30.6648 23.1924 22.4506 23.0722 20.0417 23.0242C20.0417 22.8319 20.0417 22.5916 20.0417 22.3032C20.0899 21.5581 20.8848 19.323 21.7761 18.1213H21.8002ZM18.5483 29.6094C18.1147 29.6094 17.8979 29.1528 17.8015 28.7923C17.657 28.2395 17.4161 25.5958 17.8738 24.8507C18.1388 24.3941 18.7651 24.346 19.0782 24.3701C19.1746 24.4181 19.2709 24.4422 19.3673 24.4422C19.4395 24.4422 19.7286 24.4422 20.1622 24.4422L20.0177 29.6094C19.5841 29.6094 19.0059 29.6094 18.5483 29.6094ZM21.8725 35.5938C21.5111 33.575 21.4389 31.2678 21.4389 30.5708C21.4389 30.5227 21.4389 30.4746 21.4389 30.4266L21.5834 24.5143C23.3419 24.5383 25.8712 24.5623 28.0873 24.5623C30.3035 24.5623 31.7729 24.5383 32.4955 24.4662C33.5795 24.3701 36.7592 23.625 38.4695 21.462C38.5899 21.3178 38.7104 21.1495 38.8067 21.0053C39.4571 20.9813 40.9024 20.9332 41.7696 21.0053C42.3959 21.0774 42.9018 21.5341 43.1427 21.7985C43.239 26.5812 43.1908 33.599 42.3718 35.8582C41.047 39.6556 38.8308 41.0735 38.8067 41.0735C38.7345 41.1216 38.6863 41.1697 38.6381 41.2418C38.2045 41.5783 35.8679 43.2126 32.0378 43.2126C28.2078 43.2126 25.9193 41.2898 25.5821 40.9774C25.5339 40.9053 25.4858 40.8572 25.4135 40.8092C25.3894 40.8092 22.3302 38.4779 21.8725 35.6179V35.5938ZM4.64917 60.3006L9.29826 54.7247V72.2454H4.64917V60.3006ZM54.127 72.2454H41.8419L45.3829 65.7322C45.5033 65.5159 45.5033 65.2275 45.3829 65.0112L42.6127 60.4688L45.9851 58.6663C46.2501 58.5221 46.4187 58.2096 46.3464 57.8972L44.7566 49.1008L54.127 52.8741V72.2454ZM68.0743 52.081L55.5723 64.4103V52.7299L59.5951 49.1249C59.7397 48.9807 59.836 48.7884 59.836 48.5961V36.1226H68.0743V52.081Z" fill="#005792"/>
<path d="M24.9557 30.451C24.9557 30.451 25.6783 29.9943 26.6901 29.9222C27.6295 29.8501 28.4485 30.4269 28.4485 30.4269C28.569 30.5231 28.7376 30.5711 28.8821 30.5711C29.0989 30.5711 29.3157 30.475 29.4602 30.2827C29.7011 29.9703 29.6289 29.5136 29.3157 29.2733C29.2675 29.2252 28.0631 28.36 26.5937 28.4802C25.1966 28.6004 24.233 29.2252 24.1849 29.2493C23.8476 29.4656 23.7513 29.9222 23.9681 30.2347C24.1849 30.5711 24.6425 30.6673 24.9557 30.451Z" fill="#005792"/>
<path d="M35.6993 30.451C35.6993 30.451 36.422 29.9943 37.4337 29.9222C38.3732 29.8501 39.1922 30.4269 39.1922 30.4269C39.3126 30.5231 39.4812 30.5711 39.6258 30.5711C39.8426 30.5711 40.0594 30.475 40.2039 30.2827C40.4448 29.9703 40.3725 29.5136 40.0594 29.2733C40.0112 29.2252 38.8068 28.36 37.3374 28.4802C35.9402 28.6004 34.9767 29.2252 34.9285 29.2493C34.5913 29.4656 34.4949 29.9222 34.7117 30.2347C34.9285 30.5711 35.3862 30.6673 35.6993 30.451Z" fill="#005792"/>
<path d="M29.5808 34.0079C29.6772 34.104 30.4962 34.9933 32.0378 34.9933C33.5795 34.9933 34.3744 34.08 34.4467 33.9838C34.6876 33.6714 34.6635 33.2148 34.3503 32.9744C34.0372 32.7341 33.5795 32.7581 33.3386 33.0706C33.3386 33.0706 32.905 33.5512 32.0378 33.5512C31.1707 33.5512 30.713 33.0705 30.6648 33.0465C30.3998 32.7581 29.9421 32.7341 29.6531 32.9744C29.364 33.2388 29.3158 33.6954 29.5808 33.9838V34.0079Z" fill="#005792"/>
<path d="M35.2657 36.9637C35.2175 37.0117 34.2058 38.0692 32.0378 38.0692C29.8699 38.0692 28.81 37.0117 28.7618 36.9396C28.4968 36.6512 28.0391 36.6272 27.7501 36.9156C27.461 37.18 27.4369 37.6366 27.7019 37.925C27.7501 37.9971 29.1954 39.5112 32.0378 39.5112C34.8803 39.5112 36.2774 37.9971 36.3256 37.925C36.5906 37.6366 36.5665 37.18 36.2774 36.9156C35.9884 36.6512 35.5307 36.6753 35.2657 36.9637Z" fill="#005792"/>
</svg>
