<?xml version="1.0" encoding="UTF-8"?>
<svg width="19" height="19" viewBox="0 0 19 19" fill="none" xmlns="http://www.w3.org/2000/svg"><path d="M18.0819 19L10.9113 11.8292C10.3615 12.3159 9.72039 12.6908 8.98803 12.954C8.25568 13.2172 7.49753 13.3488 6.7136 13.3488C4.83722 13.3488 3.24919 12.6995 1.94951 11.4007C0.649837 10.1018 0 8.52696 0 6.6762C0 4.82526 0.649376 3.24987 1.94813 1.95003C3.24688 0.650011 4.82377 0 6.67879 0C8.53363 0 10.1108 0.64955 11.4103 1.94865C12.7098 3.24776 13.3595 4.82315 13.3595 6.67482C13.3595 7.4488 13.2271 8.20242 12.9622 8.93568C12.6972 9.66895 12.3138 10.3331 11.8123 10.9283L19 18.0714L18.0819 19ZM6.69675 12.095C8.20622 12.095 9.48508 11.569 10.5333 10.5169C11.5816 9.46496 12.1057 8.18418 12.1057 6.67455C12.1057 5.16473 11.5816 3.88386 10.5333 2.83194C9.48508 1.77984 8.20622 1.25379 6.69675 1.25379C5.1777 1.25379 3.89073 1.77984 2.83585 2.83194C1.78116 3.88386 1.25381 5.16473 1.25381 6.67455C1.25381 8.18418 1.78116 9.46496 2.83585 10.5169C3.89073 11.569 5.1777 12.095 6.69675 12.095Z" fill="#0C0C0C"/></svg>
