<?xml version="1.0" encoding="UTF-8"?>
<svg width="45" height="46" viewBox="0 0 45 46" fill="none" xmlns="http://www.w3.org/2000/svg">
    <path d="M44.8 22.9999C44.8 35.3709 34.7713 45.3997 22.4002 45.3997C10.0292 45.3997 0 35.3714 0 22.9999C0 10.6284 10.0287 0.600098 22.3998 0.600098C34.7708 0.600098 44.7996 10.6288 44.7996 22.9999H44.8ZM11.6667 14.1185V31.3532C11.7231 31.329 11.7972 31.3973 11.821 31.3973H15.9202L15.9864 31.3312V25.8213L16.0525 25.7552H24.207L28.0476 31.3475C28.1123 31.3955 28.1851 31.3924 28.2604 31.399C29.6467 31.526 31.2216 31.2959 32.626 31.4008L32.8252 31.3298L28.7735 25.8161C28.7568 25.7592 28.8031 25.7411 28.8454 25.7204C28.9701 25.6596 29.3417 25.6226 29.5281 25.5657C31.7739 24.8767 32.2839 23.196 32.3862 21.0186C32.5581 17.3451 32.1565 14.3442 27.8219 14.119H11.6676L11.6667 14.1185Z" fill="#BFBFBF"/>
    <path d="M11.6669 14.1187H27.8212C32.1563 14.3443 32.5574 17.3452 32.3855 21.0187C32.2837 23.1966 31.7737 24.8773 29.5275 25.5658C29.341 25.6231 28.9694 25.6601 28.8447 25.7205C28.802 25.7413 28.7557 25.7593 28.7729 25.8162L32.8245 31.33L32.6253 31.4009C31.2214 31.296 29.6461 31.5261 28.2598 31.3992C28.1844 31.3921 28.1117 31.3956 28.0469 31.3476L24.2063 25.7554H16.0518L15.9857 25.8215V31.3313L15.9196 31.3974H11.8203C11.7965 31.3974 11.7224 31.3291 11.666 31.3533V14.1187H11.6669ZM15.9866 17.9535V21.8985L16.0527 21.9646H26.896C26.948 21.9646 27.3302 21.8773 27.4025 21.854C27.6612 21.7702 27.8644 21.5573 27.9504 21.2999C28.0676 20.9495 28.0676 19.014 27.9645 18.6482C27.8269 18.1589 27.4029 18.0011 26.9396 17.9539C23.4671 18.0324 19.7685 17.6987 16.3154 17.9072C16.2008 17.9142 16.0981 17.9372 15.9866 17.9535Z" fill="white"/>
    <path d="M15.9863 17.9531C16.0978 17.9373 16.2001 17.9139 16.3152 17.9069C19.7683 17.6988 23.4669 18.032 26.9394 17.9536C27.4026 18.0007 27.8267 18.1586 27.9642 18.6478C28.0669 19.0137 28.0669 20.9487 27.9501 21.2996C27.8641 21.557 27.6609 21.7699 27.4022 21.8536C27.3299 21.877 26.9478 21.9643 26.8957 21.9643H16.0524L15.9863 21.8982V17.9531Z" fill="#BFBFBF"/>
    <path d="M33.6151 14.2752C34.8194 14.2752 35.7957 13.2989 35.7957 12.0946C35.7957 10.8903 34.8194 9.91406 33.6151 9.91406C32.4108 9.91406 31.4346 10.8903 31.4346 12.0946C31.4346 13.2989 32.4108 14.2752 33.6151 14.2752Z" fill="white"/>
</svg>
