<?xml version="1.0" encoding="UTF-8"?>
<svg width="46" height="46" viewBox="0 0 46 46" fill="none" xmlns="http://www.w3.org/2000/svg">
    <rect x="0.599609" y="0.600098" width="44.8" height="44.8" rx="22.4" fill="#BFBFBF"/>
    <path d="M31.8778 14.1102C29.6652 11.9052 26.7149 10.6802 23.6008 10.6802C17.1266 10.6802 11.8818 15.9068 11.8818 22.3585C11.8818 24.4002 12.4554 26.4418 13.4388 28.1568L11.7998 34.2002L18.0281 32.5668C19.7491 33.4652 21.6339 33.9552 23.6008 33.9552C30.0749 33.9552 35.3198 28.7285 35.3198 22.2768C35.2379 19.2552 34.0905 16.3152 31.8778 14.1102ZM29.2554 26.5235C29.0096 27.1768 27.8622 27.8302 27.2886 27.9118C26.7969 27.9935 26.1413 27.9935 25.4857 27.8302C25.0759 27.6668 24.5022 27.5035 23.8466 27.1768C20.8964 25.9518 19.0115 23.0118 18.8476 22.7668C18.6837 22.6035 17.6183 21.2152 17.6183 19.7452C17.6183 18.2752 18.3559 17.6218 18.6018 17.2952C18.8476 16.9685 19.1754 16.9685 19.4213 16.9685C19.5852 16.9685 19.831 16.9685 19.9949 16.9685C20.1588 16.9685 20.4047 16.8868 20.6505 17.4585C20.8964 18.0302 21.47 19.5002 21.552 19.5818C21.6339 19.7452 21.6339 19.9085 21.552 20.0718C21.47 20.2352 21.3881 20.3985 21.2242 20.5618C21.0603 20.7252 20.8964 20.9702 20.8144 21.0518C20.6505 21.2152 20.4866 21.3785 20.6505 21.6235C20.8144 21.9502 21.3881 22.8485 22.2896 23.6652C23.4369 24.6452 24.3383 24.9718 24.6661 25.1352C24.994 25.2985 25.1579 25.2168 25.3218 25.0535C25.4857 24.8902 26.0593 24.2368 26.2232 23.9102C26.3871 23.5835 26.633 23.6652 26.8788 23.7468C27.1247 23.8285 28.5998 24.5635 28.8457 24.7268C29.1735 24.8902 29.3374 24.9718 29.4193 25.0535C29.5013 25.2985 29.5013 25.8702 29.2554 26.5235Z" fill="white"/>
</svg>