<?xml version="1.0" encoding="UTF-8"?>
<svg width="46" height="46" viewBox="0 0 46 46" fill="none" xmlns="http://www.w3.org/2000/svg">
    <rect x="0.400391" y="0.600098" width="44.8" height="44.8" rx="22.4" fill="#BFBFBF"/>
    <path d="M23.9009 30.8402C15.4823 30.8402 10.6805 24.9543 10.4805 15.1602H14.6974C14.8359 22.3488 17.9448 25.3937 20.4073 26.0216V15.1602H24.378V21.36C26.8097 21.0931 29.3645 18.2679 30.2263 15.1602H34.197C33.8723 16.7719 33.2249 18.298 32.2954 19.643C31.3659 20.9879 30.1742 22.1228 28.795 22.9766C30.3346 23.7568 31.6944 24.861 32.7847 26.2165C33.8751 27.572 34.6712 29.1479 35.1205 30.8402H30.7496C30.3463 29.3703 29.5265 28.0545 28.3931 27.0577C27.2596 26.0609 25.8629 25.4275 24.378 25.2368V30.8402H23.9009Z"
          fill="white"/>
</svg>