<svg width="45" height="46" viewBox="0 0 45 46" fill="none" xmlns="http://www.w3.org/2000/svg">
<path d="M22.6006 0.850098C34.8335 0.85031 44.75 10.7675 44.75 23.0005C44.7498 35.2333 34.8334 45.1497 22.6006 45.1499C10.3676 45.1499 0.450408 35.2334 0.450195 23.0005C0.450195 10.7674 10.3675 0.850098 22.6006 0.850098Z" fill="#BFBFBF" stroke="#BFBFBF" stroke-width="0.5"/>
<path d="M24.7604 25.1603C23.0004 26.9763 22.8724 29.2403 22.7204 34.2003C27.3444 34.2003 30.5364 34.1843 32.1844 32.5843C33.7844 30.9363 33.8004 27.5923 33.8004 23.1203C28.8404 23.2803 26.5764 23.4003 24.7604 25.1603ZM11.4004 23.1203C11.4004 27.5923 11.4164 30.9363 13.0164 32.5843C14.6644 34.1843 17.8564 34.2003 22.4804 34.2003C22.3204 29.2403 22.2004 26.9763 20.4404 25.1603C18.6244 23.4003 16.3604 23.2723 11.4004 23.1203ZM22.4804 11.8003C17.8644 11.8003 14.6644 11.8163 13.0164 13.4163C11.4164 15.0643 11.4004 18.4083 11.4004 22.8803C16.3604 22.7203 18.6244 22.6003 20.4404 20.8403C22.2004 19.0243 22.3284 16.7603 22.4804 11.8003ZM24.7604 20.8403C23.0004 19.0243 22.8724 16.7603 22.7204 11.8003C27.3444 11.8003 30.5364 11.8163 32.1844 13.4163C33.7844 15.0643 33.8004 18.4083 33.8004 22.8803C28.8404 22.7203 26.5764 22.6003 24.7604 20.8403Z" fill="white"/>
<path d="M33.8004 23.1203V22.8803C28.8404 22.7203 26.5764 22.6003 24.7604 20.8403C23.0004 19.0243 22.8724 16.7603 22.7204 11.8003H22.4804C22.3204 16.7603 22.2004 19.0243 20.4404 20.8403C18.6244 22.6003 16.3604 22.7283 11.4004 22.8803V23.1203C16.3604 23.2803 18.6244 23.4003 20.4404 25.1603C22.2004 26.9763 22.3284 29.2403 22.4804 34.2003H22.7204C22.8804 29.2403 23.0004 26.9763 24.7604 25.1603C26.5764 23.4003 28.8404 23.2723 33.8004 23.1203Z" fill="#BFBFBF"/>
</svg>
