<svg width="179" height="34" viewBox="0 0 179 34" fill="none" xmlns="http://www.w3.org/2000/svg">
<g clip-path="url(#clip0_149_4126)">
<path d="M26.1255 0.238281L0 33.2383H9.62548L35.751 0.238281H26.1255Z" fill="#BFBFBF"/>
<path d="M167.751 13.9873H134.751V5.73442H173.253V0.238281H61.8765L66.2317 5.74021H92.1255V33.2383H101.751V5.74021H125.125V33.2383H167.751C173.068 33.2383 178.749 29.7518 178.749 23.6128C178.749 17.4738 173.068 13.9873 167.751 13.9873ZM165 27.7363H134.751V19.4835H165C167.276 19.4835 170.502 20.717 170.502 23.607C170.502 26.497 167.282 27.7306 165 27.7306V27.7363Z" fill="#BFBFBF"/>
<path d="M50.8784 0.238281H46.7491H41.2529L15.1274 33.2383H24.7529L48.8108 2.84446L61.9923 19.4892H39.8745L44.2298 24.9912H66.3417L72.8745 33.2383H82.5L56.3745 0.238281H50.8784Z" fill="#BFBFBF"/>
</g>
<defs>
<clipPath id="clip0_149_4126">
<rect width="178.755" height="33" fill="white" transform="translate(0 0.238281)"/>
</clipPath>
</defs>
</svg>
