<svg width="54" height="54" viewBox="0 0 54 54" fill="none" xmlns="http://www.w3.org/2000/svg">
<g clip-path="url(#clip0_2429_4833)">
<path d="M4.9493 25.04H1.7793C1.22701 25.04 0.779297 25.4878 0.779297 26.04V40.07C0.779297 40.6223 1.22701 41.07 1.7793 41.07H4.9493C5.50158 41.07 5.9493 40.6223 5.9493 40.07V26.04C5.9493 25.4878 5.50158 25.04 4.9493 25.04Z" stroke="#0C0C0C" stroke-width="0.75" stroke-linecap="round" stroke-linejoin="round"/>
<path d="M52.2188 25.04H49.0488C48.4965 25.04 48.0488 25.4878 48.0488 26.04V40.07C48.0488 40.6223 48.4965 41.07 49.0488 41.07H52.2188C52.7711 41.07 53.2188 40.6223 53.2188 40.07V26.04C53.2188 25.4878 52.7711 25.04 52.2188 25.04Z" stroke="#0C0C0C" stroke-width="0.75" stroke-linecap="round" stroke-linejoin="round"/>
<path d="M48.0492 27.11H36.3792C36.3792 27.11 30.8192 23.49 28.7692 23.49C27.0692 23.49 26.0392 24.45 26.0392 24.45C26.0392 24.45 25.1892 23.49 23.3792 23.49C21.5692 23.49 15.6992 27.11 15.6992 27.11H5.94922" stroke="#0C0C0C" stroke-width="0.75" stroke-linecap="round" stroke-linejoin="round"/>
<path d="M26.0389 24.45C26.0389 24.45 21.7189 28.8099 20.4289 30.4C19.9289 31.02 19.2089 32.56 20.2089 33.58C21.1489 34.54 22.6489 34.71 23.5689 33.91C24.2889 33.29 28.6989 28.9599 28.6989 28.9599L42.6589 39.82C42.6589 39.82 44.2089 39.2699 45.3189 39.0099C46.4289 38.7499 48.0389 38.7099 48.0389 38.7099" stroke="#0C0C0C" stroke-width="0.75" stroke-linecap="round" stroke-linejoin="round"/>
<path d="M42.6593 39.8099C42.6593 39.8099 43.9793 41.4099 43.0293 42.5899C41.3993 44.6099 39.6493 42.5899 39.6493 42.5899C39.6493 42.5899 41.0193 44.7099 39.6493 46.0799C38.2793 47.4499 36.2693 45.7499 36.2693 45.7499C36.2693 45.7499 37.7393 48.0499 36.6593 49.1299C35.1093 50.6799 33.2293 49.1299 33.2293 49.1299C33.2293 49.1299 34.4993 50.9599 33.2293 52.2299C31.9593 53.4999 30.5193 52.5599 30.5193 52.5599L28.0293 50.5799" stroke="#0C0C0C" stroke-width="0.75" stroke-linecap="round" stroke-linejoin="round"/>
<path d="M5.94922 38.77C5.94922 38.77 7.79922 38.91 9.70922 39.43C11.6192 39.95 12.7592 40.48 12.7592 40.48" stroke="#0C0C0C" stroke-width="0.75" stroke-linecap="round" stroke-linejoin="round"/>
<path d="M17.9553 38.5325L16.7785 37.6515C16.1684 37.1947 15.3036 37.3191 14.8468 37.9292L11.7963 42.0038C11.3396 42.614 11.4639 43.4788 12.074 43.9356L13.2508 44.8166C13.8609 45.2733 14.7258 45.149 15.1825 44.5389L18.233 40.4642C18.6898 39.8541 18.5654 38.9892 17.9553 38.5325Z" stroke="#0C0C0C" stroke-width="0.75" stroke-linecap="round" stroke-linejoin="round"/>
<path d="M25.2478 43.9882L23.959 43.0234C23.287 42.5203 22.3343 42.6572 21.8312 43.3292L18.9486 47.1797C18.4455 47.8517 18.5824 48.8044 19.2545 49.3075L20.5433 50.2723C21.2153 50.7754 22.1679 50.6385 22.671 49.9665L25.5537 46.116C26.0568 45.444 25.9198 44.4913 25.2478 43.9882Z" stroke="#0C0C0C" stroke-width="0.75" stroke-linecap="round" stroke-linejoin="round"/>
<path d="M28.2908 47.6779L27.002 46.7131C26.3299 46.21 25.3773 46.3469 24.8742 47.0189L22.5549 50.1169C22.0518 50.789 22.1887 51.7416 22.8608 52.2447L24.1496 53.2096C24.8216 53.7126 25.7742 53.5757 26.2773 52.9037L28.5966 49.8057C29.0997 49.1337 28.9628 48.181 28.2908 47.6779Z" stroke="#0C0C0C" stroke-width="0.75" stroke-linecap="round" stroke-linejoin="round"/>
<path d="M22.1635 40.3887L20.8746 39.4239C20.2114 38.9274 19.2714 39.0625 18.7749 39.7257L15.1611 44.5528C14.6646 45.216 14.7997 46.1561 15.4629 46.6526L16.7517 47.6174C17.4149 48.1139 18.355 47.9788 18.8515 47.3156L22.4653 42.4885C22.9618 41.8253 22.8266 40.8852 22.1635 40.3887Z" stroke="#0C0C0C" stroke-width="0.75" stroke-linecap="round" stroke-linejoin="round"/>
<path d="M49.4194 0.790039H35.1594C33.0607 0.790039 31.3594 2.49136 31.3594 4.59004V15.01C31.3594 17.1087 33.0607 18.81 35.1594 18.81H49.4194C51.5181 18.81 53.2194 17.1087 53.2194 15.01V4.59004C53.2194 2.49136 51.5181 0.790039 49.4194 0.790039Z" stroke="#0C0C0C" stroke-width="0.75" stroke-linecap="round" stroke-linejoin="round"/>
<path d="M48.2987 4.66003H36.1387C35.5864 4.66003 35.1387 5.10775 35.1387 5.66003V13.93C35.1387 14.4823 35.5864 14.93 36.1387 14.93H48.2987C48.851 14.93 49.2987 14.4823 49.2987 13.93V5.66003C49.2987 5.10775 48.851 4.66003 48.2987 4.66003Z" stroke="#0C0C0C" stroke-width="0.75" stroke-linecap="round" stroke-linejoin="round"/>
<path d="M46.489 6.66003H37.959C37.6828 6.66003 37.459 6.88389 37.459 7.16003V12.44C37.459 12.7162 37.6828 12.94 37.959 12.94H46.489C46.7651 12.94 46.989 12.7162 46.989 12.44V7.16003C46.989 6.88389 46.7651 6.66003 46.489 6.66003Z" stroke="#0C0C0C" stroke-width="0.75" stroke-linecap="round" stroke-linejoin="round"/>
<path d="M37.1699 0.790039V4.65004" stroke="#0C0C0C" stroke-width="0.75" stroke-linecap="round" stroke-linejoin="round"/>
<path d="M47.25 0.790039V4.65004" stroke="#0C0C0C" stroke-width="0.75" stroke-linecap="round" stroke-linejoin="round"/>
<path d="M40.5996 0.790039V4.65004" stroke="#0C0C0C" stroke-width="0.75" stroke-linecap="round" stroke-linejoin="round"/>
<path d="M43.9199 0.790039V4.65004" stroke="#0C0C0C" stroke-width="0.75" stroke-linecap="round" stroke-linejoin="round"/>
<path d="M35.1194 6.41003H31.3594" stroke="#0C0C0C" stroke-width="0.75" stroke-linecap="round" stroke-linejoin="round"/>
<path d="M35.1194 9.8501H31.3594" stroke="#0C0C0C" stroke-width="0.75" stroke-linecap="round" stroke-linejoin="round"/>
<path d="M35.1194 13.17H31.3594" stroke="#0C0C0C" stroke-width="0.75" stroke-linecap="round" stroke-linejoin="round"/>
<path d="M53.0803 6.41003H49.3203" stroke="#0C0C0C" stroke-width="0.75" stroke-linecap="round" stroke-linejoin="round"/>
<path d="M53.0803 9.8501H49.3203" stroke="#0C0C0C" stroke-width="0.75" stroke-linecap="round" stroke-linejoin="round"/>
<path d="M53.0803 13.17H49.3203" stroke="#0C0C0C" stroke-width="0.75" stroke-linecap="round" stroke-linejoin="round"/>
<path d="M37.1699 14.9301V18.7901" stroke="#0C0C0C" stroke-width="0.75" stroke-linecap="round" stroke-linejoin="round"/>
<path d="M47.25 14.9301V18.7901" stroke="#0C0C0C" stroke-width="0.75" stroke-linecap="round" stroke-linejoin="round"/>
<path d="M40.5996 14.9301V18.7901" stroke="#0C0C0C" stroke-width="0.75" stroke-linecap="round" stroke-linejoin="round"/>
<path d="M43.9199 14.9301V18.7901" stroke="#0C0C0C" stroke-width="0.75" stroke-linecap="round" stroke-linejoin="round"/>
<path d="M6.57031 3.41003H3.57031V12.97H6.57031V3.41003Z" stroke="#0C0C0C" stroke-width="0.75" stroke-linecap="round" stroke-linejoin="round"/>
<path d="M11.2305 3.41003H8.23047V12.97H11.2305V3.41003Z" stroke="#0C0C0C" stroke-width="0.75" stroke-linecap="round" stroke-linejoin="round"/>
<path d="M15.8809 3.41003H12.8809V12.97H15.8809V3.41003Z" stroke="#0C0C0C" stroke-width="0.75" stroke-linecap="round" stroke-linejoin="round"/>
<path d="M20.5312 3.41003H17.5312V12.97H20.5312V3.41003Z" stroke="#0C0C0C" stroke-width="0.75" stroke-linecap="round" stroke-linejoin="round"/>
<path d="M0.740469 7.66004C0.740469 7.66004 1.57047 7.96004 1.57047 8.63004C1.57047 9.30004 0.740469 9.70004 0.740469 9.70004V14.69C0.740469 15.16 1.09047 15.54 1.52047 15.54H22.5705C23.0005 15.54 23.3505 15.16 23.3505 14.69V9.76004C23.3505 9.76004 22.5205 9.45004 22.5205 8.63004C22.5205 7.81004 23.3505 7.66004 23.3505 7.66004V1.64004C23.3505 1.17004 23.0005 0.790039 22.5705 0.790039H1.51047C1.08047 0.790039 0.730469 1.17004 0.730469 1.64004V7.66004H0.740469Z" stroke="#0C0C0C" stroke-width="0.75" stroke-linecap="round" stroke-linejoin="round"/>
<path d="M2.73047 15.55V18.76H8.87047C8.87047 18.76 8.57047 17.02 9.73047 17.02C10.8905 17.02 10.6105 18.76 10.6105 18.76H21.4005V15.55" stroke="#0C0C0C" stroke-width="0.75" stroke-linecap="round" stroke-linejoin="round"/>
<path d="M4.28125 17.05V18.76" stroke="#0C0C0C" stroke-width="0.75" stroke-linecap="round" stroke-linejoin="round"/>
<path d="M5.84961 17.05V18.76" stroke="#0C0C0C" stroke-width="0.75" stroke-linecap="round" stroke-linejoin="round"/>
<path d="M7.41016 17.05V18.76" stroke="#0C0C0C" stroke-width="0.75" stroke-linecap="round" stroke-linejoin="round"/>
<path d="M12.041 17.05V18.76" stroke="#0C0C0C" stroke-width="0.75" stroke-linecap="round" stroke-linejoin="round"/>
<path d="M13.6113 17.05V18.76" stroke="#0C0C0C" stroke-width="0.75" stroke-linecap="round" stroke-linejoin="round"/>
<path d="M15.1797 17.05V18.76" stroke="#0C0C0C" stroke-width="0.75" stroke-linecap="round" stroke-linejoin="round"/>
<path d="M16.6914 17.05V18.76" stroke="#0C0C0C" stroke-width="0.75" stroke-linecap="round" stroke-linejoin="round"/>
<path d="M18.2598 17.05V18.76" stroke="#0C0C0C" stroke-width="0.75" stroke-linecap="round" stroke-linejoin="round"/>
<path d="M19.8301 17.05V18.76" stroke="#0C0C0C" stroke-width="0.75" stroke-linecap="round" stroke-linejoin="round"/>
</g>
<defs>
<clipPath id="clip0_2429_4833">
<rect width="54" height="54" fill="white"/>
</clipPath>
</defs>
</svg>
