<svg width="24" height="24" viewBox="0 0 24 24" fill="none" xmlns="http://www.w3.org/2000/svg">
<g clip-path="url(#clip0_2386_3665)">
<path d="M22 24H2C0.896 24 0 23.104 0 22V2C0 0.896 0.896 0 2 0H21.992C23.096 0 23.992 0.896 23.992 2V21.992C23.992 23.096 23.096 23.992 21.992 23.992L22 24ZM2 0.8C1.336 0.8 0.8 1.336 0.8 2V21.992C0.8 22.656 1.336 23.192 2 23.192H21.992C22.656 23.192 23.192 22.656 23.192 21.992V2C23.192 1.336 22.656 0.8 21.992 0.8H2Z" fill="#0C0C0C"/>
<path d="M3.05607 4.27206C2.45607 4.27206 1.97607 3.78406 1.97607 3.19206C1.97607 2.60006 2.46407 2.11206 3.05607 2.11206C3.64807 2.11206 4.13607 2.60006 4.13607 3.19206C4.13607 3.78406 3.64807 4.27206 3.05607 4.27206ZM3.05607 2.90406C2.90407 2.90406 2.77607 3.03206 2.77607 3.18406C2.77607 3.33606 2.90407 3.46406 3.05607 3.46406C3.20807 3.46406 3.33607 3.33606 3.33607 3.18406C3.33607 3.03206 3.20807 2.90406 3.05607 2.90406Z" fill="#0C0C0C"/>
<path d="M3.05607 21.7921C2.45607 21.7921 1.97607 21.3041 1.97607 20.7121C1.97607 20.1201 2.46407 19.6321 3.05607 19.6321C3.64807 19.6321 4.13607 20.1201 4.13607 20.7121C4.13607 21.3041 3.64807 21.7921 3.05607 21.7921ZM3.05607 20.4321C2.90407 20.4321 2.77607 20.5601 2.77607 20.7121C2.77607 20.8641 2.90407 20.9921 3.05607 20.9921C3.20807 20.9921 3.33607 20.8641 3.33607 20.7121C3.33607 20.5601 3.20807 20.4321 3.05607 20.4321Z" fill="#0C0C0C"/>
<path d="M20.9682 21.7921C20.3682 21.7921 19.8882 21.3041 19.8882 20.7121C19.8882 20.1201 20.3762 19.6321 20.9682 19.6321C21.5602 19.6321 22.0482 20.1201 22.0482 20.7121C22.0482 21.3041 21.5602 21.7921 20.9682 21.7921ZM20.9682 20.4321C20.8162 20.4321 20.6882 20.5601 20.6882 20.7121C20.6882 20.8641 20.8162 20.9921 20.9682 20.9921C21.1202 20.9921 21.2482 20.8641 21.2482 20.7121C21.2482 20.5601 21.1202 20.4321 20.9682 20.4321Z" fill="#0C0C0C"/>
<path d="M20.9682 4.27206C20.3682 4.27206 19.8882 3.78406 19.8882 3.19206C19.8882 2.60006 20.3762 2.11206 20.9682 2.11206C21.5602 2.11206 22.0482 2.60006 22.0482 3.19206C22.0482 3.78406 21.5602 4.27206 20.9682 4.27206ZM20.9682 2.90406C20.8162 2.90406 20.6882 3.03206 20.6882 3.18406C20.6882 3.33606 20.8162 3.46406 20.9682 3.46406C21.1202 3.46406 21.2482 3.33606 21.2482 3.18406C21.2482 3.03206 21.1202 2.90406 20.9682 2.90406Z" fill="#0C0C0C"/>
<path d="M21.1841 10.576C21.4081 10.576 21.5841 10.4 21.5841 10.176C21.5841 9.95202 21.4081 9.77602 21.1841 9.77602H19.6561V7.03202H21.1841C21.4081 7.03202 21.5841 6.85602 21.5841 6.63202C21.5841 6.40802 21.4081 6.23202 21.1841 6.23202H19.6561V5.94402C19.6561 5.06402 18.9361 4.34402 18.0561 4.34402H17.7201V2.81602C17.7201 2.59202 17.5441 2.41602 17.3201 2.41602C17.0961 2.41602 16.9201 2.59202 16.9201 2.81602V4.34402H14.1761V2.81602C14.1761 2.59202 14.0001 2.41602 13.7761 2.41602C13.5521 2.41602 13.3761 2.59202 13.3761 2.81602V4.34402H10.6321V2.81602C10.6321 2.59202 10.4561 2.41602 10.2321 2.41602C10.0081 2.41602 9.83209 2.59202 9.83209 2.81602V4.34402H7.08809V2.81602C7.08809 2.59202 6.91209 2.41602 6.68809 2.41602C6.46409 2.41602 6.28809 2.59202 6.28809 2.81602V4.34402H5.95209C5.07209 4.34402 4.35209 5.06402 4.35209 5.94402V6.23202H2.79209C2.56809 6.23202 2.39209 6.40802 2.39209 6.63202C2.39209 6.85602 2.56809 7.03202 2.79209 7.03202H4.35209V9.77602H2.79209C2.56809 9.77602 2.39209 9.95202 2.39209 10.176C2.39209 10.4 2.56809 10.576 2.79209 10.576H4.35209V13.32H2.79209C2.56809 13.32 2.39209 13.496 2.39209 13.72C2.39209 13.944 2.56809 14.12 2.79209 14.12H4.35209V16.864H2.79209C2.56809 16.864 2.39209 17.04 2.39209 17.264C2.39209 17.488 2.56809 17.664 2.79209 17.664H4.35209V18.056C4.35209 18.936 5.07209 19.656 5.95209 19.656H6.28809V21.184C6.28809 21.408 6.46409 21.584 6.68809 21.584C6.91209 21.584 7.08809 21.408 7.08809 21.184V19.656H9.83209V21.184C9.83209 21.408 10.0081 21.584 10.2321 21.584C10.4561 21.584 10.6321 21.408 10.6321 21.184V19.656H13.3761V21.184C13.3761 21.408 13.5521 21.584 13.7761 21.584C14.0001 21.584 14.1761 21.408 14.1761 21.184V19.656H16.9201V21.184C16.9201 21.408 17.0961 21.584 17.3201 21.584C17.5441 21.584 17.7201 21.408 17.7201 21.184V19.656H18.0561C18.9361 19.656 19.6561 18.936 19.6561 18.056V17.664H21.1841C21.4081 17.664 21.5841 17.488 21.5841 17.264C21.5841 17.04 21.4081 16.864 21.1841 16.864H19.6561V14.12H21.1841C21.4081 14.12 21.5841 13.944 21.5841 13.72C21.5841 13.496 21.4081 13.32 21.1841 13.32H19.6561V10.576H21.1841ZM18.8641 18.056C18.8641 18.496 18.5041 18.856 18.0641 18.856H5.94409C5.50409 18.856 5.14409 18.496 5.14409 18.056V5.94402C5.14409 5.50402 5.50409 5.14402 5.94409 5.14402H18.0641C18.5041 5.14402 18.8641 5.50402 18.8641 5.94402V18.064V18.056Z" fill="#0C0C0C"/>
<path d="M7.69584 11.312C7.72784 11.152 7.78384 11.024 7.84784 10.92C7.91984 10.816 7.99984 10.736 8.10384 10.688C8.20784 10.64 8.32784 10.608 8.46384 10.608C8.64784 10.608 8.79184 10.64 8.90384 10.696C9.01584 10.752 9.09584 10.84 9.15184 10.952C9.20784 11.064 9.23984 11.2 9.24784 11.36H10.0638C10.0398 11.088 9.95984 10.848 9.83984 10.64C9.71184 10.432 9.53584 10.264 9.31184 10.144C9.08784 10.024 8.80784 9.96802 8.47184 9.96802C8.22384 9.96802 7.99984 10.016 7.79984 10.104C7.59984 10.192 7.42384 10.32 7.27984 10.488C7.13584 10.656 7.02384 10.856 6.95184 11.088C6.87184 11.32 6.83984 11.584 6.83984 11.872V12.144C6.83984 12.432 6.87984 12.696 6.95184 12.928C7.02384 13.16 7.13584 13.36 7.27984 13.528C7.42384 13.696 7.59184 13.816 7.79184 13.904C7.99184 13.992 8.22384 14.032 8.47184 14.032C8.79984 14.032 9.07184 13.976 9.30384 13.856C9.53584 13.736 9.71184 13.576 9.84784 13.368C9.98384 13.16 10.0478 12.928 10.0638 12.656H9.24784C9.23984 12.816 9.19984 12.952 9.14384 13.056C9.08784 13.16 8.99984 13.24 8.88784 13.296C8.77584 13.352 8.63984 13.376 8.46384 13.376C8.31984 13.376 8.19184 13.352 8.09584 13.296C7.99184 13.24 7.91184 13.16 7.84784 13.056C7.78384 12.952 7.73584 12.816 7.70384 12.664C7.67184 12.512 7.65584 12.328 7.65584 12.128V11.848C7.65584 11.64 7.67184 11.456 7.70384 11.296L7.69584 11.312Z" fill="#0C0C0C"/>
<path d="M12.928 10.1841C12.704 10.0721 12.44 10.0161 12.128 10.0161H10.584V13.9761H11.4V12.5601H12.128C12.44 12.5601 12.704 12.5121 12.928 12.4081C13.152 12.3041 13.32 12.1601 13.44 11.9761C13.56 11.7921 13.616 11.5681 13.616 11.3121C13.616 11.0561 13.56 10.8321 13.44 10.6401C13.32 10.4481 13.152 10.2881 12.928 10.1761V10.1841ZM12.728 11.6401C12.68 11.7361 12.608 11.8081 12.512 11.8561C12.416 11.9041 12.288 11.9361 12.128 11.9361H11.4V10.6641H12.128C12.28 10.6641 12.408 10.6961 12.512 10.7601C12.608 10.8241 12.68 10.9041 12.728 11.0081C12.776 11.1121 12.8 11.2161 12.8 11.3361C12.8 11.4561 12.776 11.5601 12.728 11.6481V11.6401Z" fill="#0C0C0C"/>
<path d="M16.3679 10.0239V12.6399C16.3679 12.8159 16.3439 12.9599 16.2879 13.0719C16.2319 13.1839 16.1519 13.2639 16.0479 13.3199C15.9439 13.3759 15.8159 13.3999 15.6719 13.3999C15.5279 13.3999 15.3999 13.3759 15.2959 13.3199C15.1919 13.2639 15.1119 13.1839 15.0559 13.0719C14.9999 12.9599 14.9679 12.8159 14.9679 12.6399V10.0239H14.1519V12.6399C14.1519 12.9439 14.2159 13.1999 14.3439 13.4079C14.4719 13.6159 14.6559 13.7759 14.8799 13.8799C15.1039 13.9839 15.3759 14.0399 15.6719 14.0399C15.9679 14.0399 16.2319 13.9839 16.4559 13.8799C16.6799 13.7759 16.8639 13.6159 16.9919 13.4079C17.1199 13.1999 17.1839 12.9439 17.1839 12.6399V10.0239H16.3679Z" fill="#0C0C0C"/>
</g>
<defs>
<clipPath id="clip0_2386_3665">
<rect width="24" height="24" fill="white"/>
</clipPath>
</defs>
</svg>
