<svg width="24" height="24" viewBox="0 0 24 24" fill="none" xmlns="http://www.w3.org/2000/svg">
<g clip-path="url(#clip0_2408_3906)">
<path d="M13.5759 9.45607H3.53594C2.87194 9.45607 2.33594 8.92807 2.33594 8.27207V8.05607C2.33594 7.40007 2.87194 6.87207 3.53594 6.87207H13.5759C14.2399 6.87207 14.7759 7.40007 14.7759 8.05607V8.27207C14.7759 8.92807 14.2399 9.45607 13.5759 9.45607ZM3.53594 7.66407C3.31994 7.66407 3.13594 7.84007 3.13594 8.05607V8.27207C3.13594 8.48807 3.31194 8.66407 3.53594 8.66407H13.5759C13.7919 8.66407 13.9759 8.48807 13.9759 8.27207V8.05607C13.9759 7.84007 13.7999 7.66407 13.5759 7.66407H3.53594Z" fill="#0C0C0C"/>
<path d="M11.3999 13.376H3.53594C2.87194 13.376 2.33594 12.848 2.33594 12.192V11.976C2.33594 11.32 2.87194 10.792 3.53594 10.792H11.3999C12.0639 10.792 12.5999 11.32 12.5999 11.976V12.192C12.5999 12.848 12.0639 13.376 11.3999 13.376ZM3.53594 11.584C3.31994 11.584 3.13594 11.76 3.13594 11.976V12.192C3.13594 12.408 3.31194 12.584 3.53594 12.584H11.3999C11.6159 12.584 11.7999 12.408 11.7999 12.192V11.976C11.7999 11.76 11.6239 11.584 11.3999 11.584H3.53594Z" fill="#0C0C0C"/>
<path d="M9.95994 17.2881H3.53594C2.87194 17.2881 2.33594 16.7601 2.33594 16.1041V15.8881C2.33594 15.2321 2.87194 14.7041 3.53594 14.7041H9.95194C10.6159 14.7041 11.1519 15.2321 11.1519 15.8881V16.1041C11.1519 16.7601 10.6159 17.2881 9.95194 17.2881H9.95994ZM3.53594 15.4961C3.31994 15.4961 3.13594 15.6721 3.13594 15.8881V16.1041C3.13594 16.3201 3.31194 16.4961 3.53594 16.4961H9.95194C10.1679 16.4961 10.3519 16.3201 10.3519 16.1041V15.8881C10.3519 15.6721 10.1759 15.4961 9.95194 15.4961H3.53594Z" fill="#0C0C0C"/>
<path d="M23.984 1.75984C23.952 1.65584 23.88 1.56784 23.784 1.51984L20.832 0.039843C20.64 -0.056157 20.408 0.0158429 20.304 0.191843L18.136 3.89584C17.888 3.79184 17.616 3.72784 17.344 3.72784H2.008C0.896 3.72784 0 4.61584 0 5.70384V17.9918C0 19.0798 0.904 19.9678 2.008 19.9678H4.016C4.056 20.2078 4.08 20.6158 4.024 21.1918C3.928 22.2158 3.16 23.3598 3.152 23.3758C3.048 23.5278 3.064 23.7358 3.2 23.8638C3.28 23.9438 3.384 23.9838 3.488 23.9838C3.56 23.9838 3.632 23.9678 3.696 23.9278C3.704 23.9278 4.92 23.2078 6.208 22.3358C7.296 21.5998 8.184 20.4078 8.504 19.9598H17.344C18.456 19.9598 19.352 19.0718 19.352 17.9838V9.79184L22.664 4.20784L23.944 2.04784C24 1.95184 24.016 1.83984 23.984 1.73584V1.75984ZM19.648 3.09584L21.752 4.19984L18.608 9.50384L16.2 13.5598L14.2 12.5118C14.152 12.4878 14.104 12.4718 14.056 12.4718L18.64 4.64784L19.576 3.04784C19.576 3.04784 19.624 3.09584 19.656 3.11184L19.648 3.09584ZM13.768 13.1678C13.768 13.1678 13.8 13.1998 13.816 13.2078L15.616 14.1518L13.304 15.9518L13.76 13.1678H13.768ZM17.344 19.1838H8.296C8.16 19.1838 8.032 19.2558 7.96 19.3678C7.952 19.3838 6.968 20.8878 5.76 21.7038C5.32 21.9998 4.888 22.2798 4.512 22.5198C4.664 22.1358 4.792 21.7038 4.832 21.2798C4.952 20.0878 4.744 19.5038 4.72 19.4398C4.664 19.2878 4.512 19.1838 4.344 19.1838H2.016C1.352 19.1838 0.808 18.6478 0.808 17.9998V5.71184C0.808 5.05584 1.352 4.52784 2.016 4.52784H17.344C17.48 4.52784 17.608 4.55184 17.728 4.59184L13.088 12.5118C13.064 12.5518 13.048 12.5998 13.04 12.6478L12.352 16.8238C12.328 16.9838 12.4 17.1438 12.544 17.2318C12.608 17.2718 12.68 17.2878 12.744 17.2878C12.832 17.2878 12.92 17.2558 12.992 17.1998L16.592 14.3838C16.592 14.3838 16.664 14.3118 16.688 14.2718L18.536 11.1518V17.9918C18.536 18.6478 17.992 19.1758 17.328 19.1758L17.344 19.1838ZM22.16 3.51184L20.032 2.39984C20.032 2.39984 19.984 2.38384 19.96 2.37584L20.808 0.919843L23.032 2.03184L22.152 3.51184H22.16Z" fill="#0C0C0C"/>
</g>
<defs>
<clipPath id="clip0_2408_3906">
<rect width="24" height="24" fill="white"/>
</clipPath>
</defs>
</svg>
