<svg width="24" height="24" viewBox="0 0 24 24" fill="none" xmlns="http://www.w3.org/2000/svg">
<g clip-path="url(#clip0_2386_3695)">
<path d="M23.6 3.02382H2.84V0.583816C2.84 0.319816 2.664 0.111816 2.44 0.111816H0.4C0.176 0.111816 0 0.319816 0 0.583816C0 0.847816 0.176 1.05582 0.4 1.05582H2.04V23.4238C2.04 23.6878 2.216 23.8958 2.44 23.8958C2.664 23.8958 2.84 23.6878 2.84 23.4238V19.4238H6.04L6.92 21.1358C6.992 21.2798 7.12 21.3598 7.264 21.3598H18.08C18.304 21.3598 18.48 21.1518 18.48 20.8878V19.4158H20.088V20.8878C20.088 21.1518 20.264 21.3598 20.488 21.3598H23.6C23.824 21.3598 24 21.1518 24 20.8878V3.48782C24 3.22382 23.824 3.01582 23.6 3.01582V3.02382ZM23.2 20.4238H20.88V18.9518C20.88 18.6878 20.704 18.4798 20.48 18.4798H18.072C17.848 18.4798 17.672 18.6878 17.672 18.9518V20.4238H7.48L6.6 18.7118C6.528 18.5678 6.4 18.4878 6.256 18.4878H2.84V3.95982H23.2V20.4158V20.4238Z" fill="#0C0C0C"/>
<path d="M4.79209 10.0961H8.88009C9.10409 10.0961 9.28009 9.92007 9.28009 9.69607V7.16807C9.28009 6.94407 9.10409 6.76807 8.88009 6.76807H4.79209C4.56809 6.76807 4.39209 6.94407 4.39209 7.16807V9.69607C4.39209 9.92007 4.56809 10.0961 4.79209 10.0961ZM5.19209 7.56807H8.48009V9.29607H5.19209V7.56807Z" fill="#0C0C0C"/>
<path d="M4.79209 15.8002H8.88009C9.10409 15.8002 9.28009 15.6242 9.28009 15.4002V12.8722C9.28009 12.6482 9.10409 12.4722 8.88009 12.4722H4.79209C4.56809 12.4722 4.39209 12.6482 4.39209 12.8722V15.4002C4.39209 15.6242 4.56809 15.8002 4.79209 15.8002ZM5.19209 13.2722H8.48009V15.0002H5.19209V13.2722Z" fill="#0C0C0C"/>
<path d="M11.6402 12.5441C11.4162 12.5441 11.2402 12.7201 11.2402 12.9441C11.2402 13.1681 11.4162 13.3441 11.6402 13.3441H12.3922V14.1601C12.3922 14.3841 12.5682 14.5601 12.7922 14.5601H13.8162V15.3121C13.8162 15.5361 13.9922 15.7121 14.2162 15.7121C14.4402 15.7121 14.6162 15.5361 14.6162 15.3121V14.5601H15.4322V15.3121C15.4322 15.5361 15.6082 15.7121 15.8322 15.7121C16.0562 15.7121 16.2322 15.5361 16.2322 15.3121V14.5601H17.0482V15.3121C17.0482 15.5361 17.2242 15.7121 17.4482 15.7121C17.6722 15.7121 17.8482 15.5361 17.8482 15.3121V14.5601H18.8642C19.0882 14.5601 19.2642 14.3841 19.2642 14.1601V13.3441H20.0162C20.2402 13.3441 20.4162 13.1681 20.4162 12.9441C20.4162 12.7201 20.2402 12.5441 20.0162 12.5441H19.2642V11.7281H20.0162C20.2402 11.7281 20.4162 11.5521 20.4162 11.3281C20.4162 11.1041 20.2402 10.9281 20.0162 10.9281H19.2642V10.1121H20.0162C20.2402 10.1121 20.4162 9.93613 20.4162 9.71213C20.4162 9.48813 20.2402 9.31213 20.0162 9.31213H19.2642V8.08813C19.2642 7.86413 19.0882 7.68813 18.8642 7.68813H17.8482V6.93613C17.8482 6.71213 17.6722 6.53613 17.4482 6.53613C17.2242 6.53613 17.0482 6.71213 17.0482 6.93613V7.68813H16.2402V6.93613C16.2402 6.71213 16.0642 6.53613 15.8402 6.53613C15.6162 6.53613 15.4402 6.71213 15.4402 6.93613V7.68813H14.6242V6.93613C14.6242 6.71213 14.4482 6.53613 14.2242 6.53613C14.0002 6.53613 13.8242 6.71213 13.8242 6.93613V7.68813H12.7922C12.5682 7.68813 12.3922 7.86413 12.3922 8.08813V9.31213H11.6402C11.4162 9.31213 11.2402 9.48813 11.2402 9.71213C11.2402 9.93613 11.4162 10.1121 11.6402 10.1121H12.3922V10.9281H11.6402C11.4162 10.9281 11.2402 11.1041 11.2402 11.3281C11.2402 11.5521 11.4162 11.7281 11.6402 11.7281H12.3922V12.5441H11.6402ZM13.1922 8.48813H18.4642V13.7601H13.1922V8.48813Z" fill="#0C0C0C"/>
</g>
<defs>
<clipPath id="clip0_2386_3695">
<rect width="24" height="24" fill="white"/>
</clipPath>
</defs>
</svg>
