<svg width="28" height="28" viewBox="0 0 28 28" fill="none" xmlns="http://www.w3.org/2000/svg">
<rect x="0.125" y="0.125" width="27.75" height="27.75" rx="3.875" fill="white"/>
<rect x="0.125" y="0.125" width="27.75" height="27.75" rx="3.875" stroke="#BFBFBF" stroke-width="0.25"/>
<path d="M15.937 13.0889C16.2632 12.5601 17.0239 12.5601 17.3501 13.0889L22.0249 20.7207C22.3725 21.2719 21.9813 21.9994 21.3296 22H11.98C11.8926 22 11.8098 21.9859 11.7329 21.9619C11.6782 21.986 11.6166 21.9999 11.5503 22H6.45068C6.09503 21.9999 5.88125 21.6087 6.0708 21.3125L8.62061 17.2129H8.60889C8.7869 16.9289 9.20255 16.9287 9.38037 17.2129L11.4214 20.4961L15.9595 13.0889H15.937ZM8.00049 6C9.10485 6.00024 10.0005 6.89558 10.0005 8C10.0005 9.10442 9.10485 9.99976 8.00049 10C6.89592 10 6.00049 9.10457 6.00049 8C6.00049 6.89543 6.89592 6 8.00049 6Z" fill="#005792"/>
</svg>
